G04 #@! TF.GenerationSoftware,KiCad,Pcbnew,10.0.0*
G04 #@! TF.CreationDate,2026-04-10T19:00:32-05:00*
G04 #@! TF.ProjectId,pepuinoSplit44,70657075-696e-46f5-9370-6c697434342e,rev?*
G04 #@! TF.SameCoordinates,Original*
G04 #@! TF.FileFunction,Copper,L1,Top*
G04 #@! TF.FilePolarity,Positive*
%FSLAX46Y46*%
G04 Gerber Fmt 4.6, Leading zero omitted, Abs format (unit mm)*
G04 Created by KiCad (PCBNEW 10.0.0) date 2026-04-10 19:00:32*
%MOMM*%
%LPD*%
G01*
G04 APERTURE LIST*
G04 Aperture macros list*
%AMRoundRect*
0 Rectangle with rounded corners*
0 $1 Rounding radius*
0 $2 $3 $4 $5 $6 $7 $8 $9 X,Y pos of 4 corners*
0 Add a 4 corners polygon primitive as box body*
4,1,4,$2,$3,$4,$5,$6,$7,$8,$9,$2,$3,0*
0 Add four circle primitives for the rounded corners*
1,1,$1+$1,$2,$3*
1,1,$1+$1,$4,$5*
1,1,$1+$1,$6,$7*
1,1,$1+$1,$8,$9*
0 Add four rect primitives between the rounded corners*
20,1,$1+$1,$2,$3,$4,$5,0*
20,1,$1+$1,$4,$5,$6,$7,0*
20,1,$1+$1,$6,$7,$8,$9,0*
20,1,$1+$1,$8,$9,$2,$3,0*%
G04 Aperture macros list end*
G04 #@! TA.AperFunction,ComponentPad*
%ADD10C,1.800000*%
G04 #@! TD*
G04 #@! TA.AperFunction,ComponentPad*
%ADD11RoundRect,0.450000X-0.450000X-0.450000X0.450000X-0.450000X0.450000X0.450000X-0.450000X0.450000X0*%
G04 #@! TD*
G04 #@! TA.AperFunction,ComponentPad*
%ADD12O,1.800000X4.340000*%
G04 #@! TD*
G04 #@! TA.AperFunction,ComponentPad*
%ADD13R,2.250000X2.250000*%
G04 #@! TD*
G04 #@! TA.AperFunction,ComponentPad*
%ADD14C,2.250000*%
G04 #@! TD*
G04 #@! TA.AperFunction,SMDPad,CuDef*
%ADD15C,2.500000*%
G04 #@! TD*
G04 #@! TA.AperFunction,ComponentPad*
%ADD16O,1.300000X1.000000*%
G04 #@! TD*
G04 #@! TA.AperFunction,ComponentPad*
%ADD17R,1.700000X1.700000*%
G04 #@! TD*
G04 #@! TA.AperFunction,ComponentPad*
%ADD18O,1.700000X1.700000*%
G04 #@! TD*
G04 #@! TA.AperFunction,ComponentPad*
%ADD19C,1.400000*%
G04 #@! TD*
G04 #@! TA.AperFunction,ViaPad*
%ADD20C,0.600000*%
G04 #@! TD*
G04 #@! TA.AperFunction,Conductor*
%ADD21C,0.200000*%
G04 #@! TD*
G04 APERTURE END LIST*
D10*
X-150971250Y-21113750D03*
X-150971250Y-23653750D03*
D11*
X-150971250Y-26193750D03*
X-150971250Y-28733750D03*
D10*
X-150971250Y-31273750D03*
X-150971250Y-33813750D03*
X-150971250Y-36353750D03*
X-150971250Y-38893750D03*
X-150971250Y-41433750D03*
X-150971250Y-43973750D03*
X-150971250Y-46513750D03*
X-150971250Y-49053750D03*
D12*
X-135731250Y-19843750D03*
D11*
X-135731250Y-23653750D03*
D10*
X-135731250Y-26193750D03*
X-135731250Y-28733750D03*
X-135731250Y-31273750D03*
X-135731250Y-33813750D03*
X-135731250Y-36353750D03*
X-135731250Y-38893750D03*
X-135731250Y-41433750D03*
X-135731250Y-43973750D03*
X-135731250Y-46513750D03*
X-135731250Y-49053750D03*
X-147897850Y-45960030D03*
X-145357850Y-45960030D03*
X-142817850Y-45960030D03*
D11*
X-150971250Y-18573750D03*
D10*
X-135731250Y-18573750D03*
D13*
X-151209375Y-52387500D03*
D14*
X-151209375Y-58887500D03*
D15*
X-170259518Y-26193772D03*
D16*
X-164187500Y-18454703D03*
X-166687500Y-18454703D03*
X-169187500Y-18454703D03*
D10*
X-173831250Y-21113750D03*
X-173831250Y-23653750D03*
D11*
X-173831250Y-26193750D03*
X-173831250Y-28733750D03*
D10*
X-173831250Y-31273750D03*
X-173831250Y-33813750D03*
X-173831250Y-36353750D03*
X-173831250Y-38893750D03*
X-173831250Y-41433750D03*
X-173831250Y-43973750D03*
X-173831250Y-46513750D03*
X-173831250Y-49053750D03*
D12*
X-158591250Y-19843750D03*
D11*
X-158591250Y-23653750D03*
D10*
X-158591250Y-26193750D03*
X-158591250Y-28733750D03*
X-158591250Y-31273750D03*
X-158591250Y-33813750D03*
X-158591250Y-36353750D03*
X-158591250Y-38893750D03*
X-158591250Y-41433750D03*
X-158591250Y-43973750D03*
X-158591250Y-46513750D03*
X-158591250Y-49053750D03*
X-170757850Y-45960030D03*
X-168217850Y-45960030D03*
X-165677850Y-45960030D03*
D11*
X-173831250Y-18573750D03*
D10*
X-158591250Y-18573750D03*
D15*
X-166092327Y-26193772D03*
D16*
X-140375000Y-18454703D03*
X-142875000Y-18454703D03*
X-145375000Y-18454703D03*
D15*
X-143470309Y-26193750D03*
D17*
X-139542498Y-54768750D03*
D18*
X-142082501Y-54768749D03*
X-144622501Y-54768749D03*
X-147162500Y-54768749D03*
D15*
X-147637500Y-26193750D03*
D17*
X-162412500Y-54768750D03*
D18*
X-164952503Y-54768750D03*
X-167492503Y-54768750D03*
X-170032502Y-54768750D03*
D13*
X-158353125Y-52387500D03*
D14*
X-158353125Y-58887500D03*
D19*
X-148828250Y-44053162D03*
X-143748250Y-44053162D03*
X-171767643Y-44053162D03*
X-166687643Y-44053162D03*
X-171767643Y-41671910D03*
X-166687643Y-41671910D03*
X-148828250Y-41671910D03*
X-143748250Y-41671910D03*
D20*
X-107097500Y-59372500D03*
X-119016610Y-87258406D03*
X-107097500Y-21272500D03*
X-107097500Y-40322500D03*
X-30897500Y-45085000D03*
X-30897500Y-64135000D03*
X-30897500Y-83185000D03*
X-30897500Y-26035000D03*
X-49947500Y-45085000D03*
X-49947500Y-26035000D03*
X-49947500Y-64135000D03*
X-21012500Y-57850000D03*
X-59112500Y-72137500D03*
X-78162500Y-29275000D03*
X-21012500Y-95950000D03*
X-21012500Y-76900000D03*
X-147637500Y-26193750D03*
X-116262500Y-36418750D03*
X-40062500Y-38800000D03*
X-70246934Y-54768796D03*
X-116262500Y-55468750D03*
X-40062500Y-76900000D03*
X-59112500Y-34037500D03*
X-59112500Y-53087500D03*
X-78162500Y-67375000D03*
X-97212500Y-72137500D03*
X-78162500Y-48325000D03*
X-97212500Y-34037500D03*
X-21012500Y-38800000D03*
X-116262500Y-74518750D03*
X-97212500Y-53087500D03*
X-87687500Y-95950000D03*
X-40062500Y-57850000D03*
X-123844208Y-103862020D03*
X-68997500Y-40322500D03*
X-68997500Y-21272500D03*
X-68997500Y-59372500D03*
X-88047500Y-35560000D03*
X-91678202Y-78581316D03*
X-88047500Y-54610000D03*
X-88047500Y-16510000D03*
X-138787370Y-97749705D03*
X-126147500Y-42703750D03*
X-126147500Y-61753750D03*
X-126147500Y-23653750D03*
X-83762500Y-27875000D03*
X-121862500Y-35018750D03*
X-64712500Y-32637500D03*
X-26612500Y-75500000D03*
X-121862500Y-73118750D03*
X-64712500Y-51687500D03*
X-26612500Y-94550000D03*
X-121862500Y-54068750D03*
X-45662500Y-37400000D03*
X-64712500Y-70737500D03*
X-83762500Y-46925000D03*
X-93287500Y-94550000D03*
X-26612500Y-56450000D03*
X-45662500Y-56450000D03*
X-140493750Y-29331250D03*
X-102812500Y-70737500D03*
X-83762500Y-65975000D03*
X-102812500Y-32637500D03*
X-102812500Y-51687500D03*
X-26612500Y-37400000D03*
X-45662500Y-75500000D03*
X-141684494Y-52387544D03*
X-204236184Y-83590940D03*
X-216635000Y-59372500D03*
X-216635000Y-21272500D03*
X-216635000Y-40322500D03*
X-254735000Y-21272500D03*
X-254735000Y-59372500D03*
X-254735000Y-40322500D03*
X-170259518Y-26193750D03*
X-225800000Y-29275000D03*
X-216275000Y-95950000D03*
X-282950000Y-57850000D03*
X-244850000Y-53087500D03*
X-263900000Y-57850000D03*
X-206750000Y-34037500D03*
X-225800000Y-48325000D03*
X-244850000Y-34037500D03*
X-187700000Y-74518750D03*
X-263900000Y-38800000D03*
X-181598881Y-107855110D03*
X-206750000Y-72137500D03*
X-244850000Y-72137500D03*
X-282950000Y-95950000D03*
X-197991835Y-98485585D03*
X-206750000Y-53087500D03*
X-187700000Y-55468750D03*
X-225800000Y-67375000D03*
X-282950000Y-76900000D03*
X-263900000Y-76900000D03*
X-187700000Y-36418750D03*
X-282950000Y-38800000D03*
X-235685000Y-16510000D03*
X-235685000Y-54610000D03*
X-226160000Y-83185000D03*
X-235685000Y-35560000D03*
X-269500000Y-37400000D03*
X-193300000Y-73118750D03*
X-212350000Y-32637500D03*
X-185748619Y-103842674D03*
X-212350000Y-51687500D03*
X-250450000Y-32637500D03*
X-269500000Y-56450000D03*
X-193300000Y-54068750D03*
X-163115810Y-57150000D03*
X-288550000Y-75500000D03*
X-183951717Y-71437560D03*
X-288550000Y-56450000D03*
X-269500000Y-75500000D03*
X-250450000Y-70737500D03*
X-231400000Y-65975000D03*
X-288550000Y-94550000D03*
X-203038669Y-95677727D03*
X-231400000Y-27875000D03*
X-163115768Y-29331272D03*
X-250450000Y-51687500D03*
X-288550000Y-37400000D03*
X-193300000Y-35018750D03*
X-221875000Y-94550000D03*
X-231400000Y-46925000D03*
X-212350000Y-70737500D03*
X-157162632Y-55364109D03*
X-292835000Y-26193750D03*
X-292835000Y-64135000D03*
X-292835000Y-83185000D03*
X-292835000Y-45085000D03*
X-273785000Y-26035000D03*
X-273785000Y-45085000D03*
X-273785000Y-64135000D03*
X-197585000Y-42703750D03*
X-197585000Y-61753750D03*
X-197585000Y-23653750D03*
X-183777040Y-91857795D03*
X-282950000Y-56450000D03*
X-288550000Y-38800000D03*
X-282950000Y-94550000D03*
X-288550000Y-76900000D03*
X-21012500Y-56450000D03*
X-26612500Y-38800000D03*
X-21012500Y-94550000D03*
X-26612500Y-76900000D03*
X-121862500Y-55468750D03*
X-116262500Y-73118750D03*
X-193300000Y-55468750D03*
X-187700000Y-73118750D03*
D21*
X-156928125Y-53812500D02*
X-158353125Y-55237500D01*
X-157162500Y-20002500D02*
X-158591250Y-18573750D01*
X-157162500Y-24516814D02*
X-157162500Y-20002500D01*
X-156762500Y-24916814D02*
X-157162500Y-24516814D01*
X-156762500Y-50562500D02*
X-156762500Y-24916814D01*
X-156528125Y-53978185D02*
X-156528125Y-50796815D01*
X-156762440Y-54212500D02*
X-156528125Y-53978185D01*
X-156762500Y-54212500D02*
X-156762440Y-54212500D01*
X-156762500Y-54212560D02*
X-156762500Y-54212500D01*
X-156528125Y-50796815D02*
X-156762440Y-50562500D01*
X-157162500Y-54612561D02*
X-156762500Y-54212560D01*
X-157162500Y-55363977D02*
X-157162500Y-54612561D01*
X-157162632Y-55364109D02*
X-157162500Y-55363977D01*
X-156762440Y-50562500D02*
X-156762500Y-50562500D01*
X-156928125Y-50962500D02*
X-157162500Y-50962500D01*
X-156928125Y-53812500D02*
X-156928125Y-50962500D01*
X-157162500Y-25082500D02*
X-158591250Y-23653750D01*
X-157162500Y-50962500D02*
X-157162500Y-25082500D01*
X-119016610Y-82416610D02*
X-119016610Y-87258406D01*
X-106561027Y-40481284D02*
X-106561027Y-58836027D01*
X-107097500Y-59372500D02*
X-107097500Y-70497500D01*
X-106719811Y-40322500D02*
X-106561027Y-40481284D01*
X-107097500Y-21272500D02*
X-106561027Y-21808973D01*
X-107097500Y-40322500D02*
X-106719811Y-40322500D01*
X-107097500Y-70497500D02*
X-119016610Y-82416610D01*
X-106561027Y-21808973D02*
X-106561027Y-40481284D01*
X-106561027Y-58836027D02*
X-107097500Y-59372500D01*
X-30360963Y-82648463D02*
X-30897500Y-83185000D01*
X-30519767Y-64135000D02*
X-30360963Y-64293804D01*
X-30360963Y-64293804D02*
X-30360963Y-82648463D01*
X-30360963Y-26571537D02*
X-30360963Y-64293804D01*
X-30897500Y-64135000D02*
X-30519767Y-64135000D01*
X-30897500Y-26035000D02*
X-30360963Y-26571537D01*
X-30897500Y-45085000D02*
X-30519751Y-45085000D01*
X-49947500Y-26035000D02*
X-49947500Y-64135000D01*
X-61248500Y-36873442D02*
X-61248500Y-40201684D01*
X-40062500Y-39499942D02*
X-41043842Y-40481284D01*
X-59112500Y-34737442D02*
X-61248500Y-36873442D01*
X-97611500Y-41938684D02*
X-97611500Y-54318435D01*
X-87687500Y-83684375D02*
X-87687500Y-95950000D01*
X-80298500Y-32242935D02*
X-80298500Y-35439184D01*
X-125818529Y-107542020D02*
X-130582980Y-107542020D01*
X-118759375Y-60704959D02*
X-115861500Y-63602834D01*
X-131251593Y-65797010D02*
X-138161103Y-58887500D01*
X-131251593Y-84251533D02*
X-131251593Y-65797010D01*
X-21012500Y-39631935D02*
X-23148500Y-41767935D01*
X-23256250Y-60925685D02*
X-23256250Y-63906434D01*
X-78162500Y-48325000D02*
X-71718704Y-54768796D01*
X-40062500Y-38800000D02*
X-40062500Y-39499942D01*
X-78561500Y-37176184D02*
X-78561500Y-49555935D01*
X-20611500Y-85034084D02*
X-20611500Y-86519750D01*
X-43457849Y-42267223D02*
X-43457849Y-43704835D01*
X-78162500Y-29275000D02*
X-78162500Y-30106935D01*
X-19634375Y-57303810D02*
X-23256250Y-60925685D01*
X-20611500Y-48204125D02*
X-19634375Y-49181250D01*
X-78561500Y-49555935D02*
X-80298500Y-51292935D01*
X-99696875Y-39853309D02*
X-97611500Y-41938684D01*
X-115861500Y-65041625D02*
X-114756250Y-66146875D01*
X-20611500Y-86519750D02*
X-19443750Y-87687500D01*
X-78162500Y-56625184D02*
X-78162500Y-67375000D01*
X-140493750Y-93493689D02*
X-131251593Y-84251533D01*
X-21012500Y-38800000D02*
X-21012500Y-39631935D01*
X-147637500Y-26193750D02*
X-150971250Y-26193750D01*
X-19443750Y-94381250D02*
X-21012500Y-95950000D01*
X-123641355Y-105364846D02*
X-125818529Y-107542020D01*
X-116661500Y-44319934D02*
X-116661500Y-56699685D01*
X-97212500Y-72137500D02*
X-97212500Y-74159375D01*
X-118759375Y-58797560D02*
X-118759375Y-60704959D01*
X-133945425Y-49171677D02*
X-133945425Y-25439575D01*
X-59511500Y-41938684D02*
X-59511500Y-54318435D01*
X-99348500Y-59251684D02*
X-97212500Y-61387684D01*
X-139542498Y-54768750D02*
X-133945425Y-49171677D01*
X-80298500Y-54489184D02*
X-78162500Y-56625184D01*
X-133945425Y-25439575D02*
X-135731250Y-23653750D01*
X-78162500Y-30106935D02*
X-80298500Y-32242935D01*
X-116262500Y-36418750D02*
X-116262500Y-37250685D01*
X-40062500Y-66150184D02*
X-40062500Y-76900000D01*
X-97212500Y-61387684D02*
X-97212500Y-72137500D01*
X-40461500Y-59080935D02*
X-42198500Y-60817935D01*
X-59511500Y-54318435D02*
X-61248500Y-56055435D01*
X-41671910Y-40481284D02*
X-43457849Y-42267223D01*
X-97212500Y-34037500D02*
X-97212500Y-34869435D01*
X-41043842Y-40481284D02*
X-41671910Y-40481284D01*
X-97212500Y-34869435D02*
X-99696875Y-37353810D01*
X-61248500Y-56055435D02*
X-61248500Y-59251684D01*
X-23148500Y-41767935D02*
X-23148500Y-44397084D01*
X-138161103Y-58887500D02*
X-150018750Y-58887500D01*
X-23256250Y-63906434D02*
X-21350000Y-65812684D01*
X-21350000Y-78069435D02*
X-23446875Y-80166310D01*
X-43457849Y-43704835D02*
X-40461500Y-46701184D01*
X-130582980Y-107542020D02*
X-140493750Y-97631250D01*
X-99696875Y-37353810D02*
X-99696875Y-39853309D01*
X-42198500Y-64014184D02*
X-40062500Y-66150184D01*
X-23148500Y-44397084D02*
X-20611500Y-46934084D01*
X-116661500Y-56699685D02*
X-118759375Y-58797560D01*
X-80298500Y-35439184D02*
X-78561500Y-37176184D01*
X-114756250Y-66146875D02*
X-114756250Y-73012500D01*
X-97611500Y-54318435D02*
X-99348500Y-56055435D01*
X-80298500Y-51292935D02*
X-80298500Y-54489184D01*
X-140493750Y-97631250D02*
X-140493750Y-93493689D01*
X-19443750Y-87687500D02*
X-19443750Y-94381250D01*
X-123844208Y-103862020D02*
X-123641355Y-104064873D01*
X-99348500Y-56055435D02*
X-99348500Y-59251684D01*
X-21350000Y-65812684D02*
X-21350000Y-78069435D01*
X-19634375Y-49181250D02*
X-19634375Y-57303810D01*
X-71718704Y-54768796D02*
X-70246934Y-54768796D01*
X-61248500Y-40201684D02*
X-59511500Y-41938684D01*
X-23446875Y-82198709D02*
X-20611500Y-85034084D01*
X-115861500Y-63602834D02*
X-115861500Y-65041625D01*
X-116262500Y-37250685D02*
X-118398500Y-39386685D01*
X-114756250Y-73012500D02*
X-116262500Y-74518750D01*
X-123641355Y-104064873D02*
X-123641355Y-105364846D01*
X-118398500Y-39386685D02*
X-118398500Y-42582934D01*
X-97212500Y-74159375D02*
X-87687500Y-83684375D01*
X-61248500Y-59251684D02*
X-59112500Y-61387684D01*
X-23446875Y-80166310D02*
X-23446875Y-82198709D01*
X-59112500Y-61387684D02*
X-59112500Y-72137500D01*
X-20180565Y-57850000D02*
X-19634375Y-57303810D01*
X-20611500Y-46934084D02*
X-20611500Y-48204125D01*
X-42198500Y-60817935D02*
X-42198500Y-64014184D01*
X-118398500Y-42582934D02*
X-116661500Y-44319934D01*
X-40461500Y-46701184D02*
X-40461500Y-59080935D01*
X-21012500Y-57850000D02*
X-20180565Y-57850000D01*
X-59112500Y-34037500D02*
X-59112500Y-34737442D01*
X-68460995Y-21809005D02*
X-68460995Y-40481284D01*
X-68460995Y-40481284D02*
X-68460995Y-58835995D01*
X-68997500Y-40322500D02*
X-68619779Y-40322500D01*
X-68619779Y-40322500D02*
X-68460995Y-40481284D01*
X-68997500Y-21272500D02*
X-68460995Y-21809005D01*
X-68460995Y-58835995D02*
X-68997500Y-59372500D01*
X-88047500Y-54610000D02*
X-88047500Y-74950614D01*
X-88047500Y-74950614D02*
X-91678202Y-78581316D01*
X-88047500Y-16510000D02*
X-88047500Y-54610000D01*
X-138112500Y-91678125D02*
X-138112500Y-97074835D01*
X-126147500Y-79713125D02*
X-138112500Y-91678125D01*
X-138112500Y-97074835D02*
X-138787370Y-97749705D01*
X-126147500Y-23653750D02*
X-126147500Y-61753750D01*
X-126147500Y-61753750D02*
X-126147500Y-79713125D01*
X-148828250Y-41671910D02*
X-150733090Y-41671910D01*
X-148828250Y-44053160D02*
X-150891840Y-44053160D01*
X-103045435Y-57496500D02*
X-101946500Y-58595435D01*
X-27213500Y-76101000D02*
X-27213500Y-80940935D01*
X-25735821Y-44318614D02*
X-25735821Y-46223505D01*
X-63846500Y-58595435D02*
X-63846500Y-60224625D01*
X-25746500Y-82407935D02*
X-25746500Y-83962065D01*
X-26612500Y-75500000D02*
X-27213500Y-76101000D01*
X-44796500Y-44307935D02*
X-44796500Y-45862065D01*
X-45662500Y-37400000D02*
X-45734382Y-37400000D01*
X-122463500Y-54669750D02*
X-122463500Y-59509685D01*
X-92262500Y-79676475D02*
X-92262500Y-84175184D01*
X-26612500Y-56358422D02*
X-26213500Y-55959422D01*
X-25735821Y-46223505D02*
X-26213500Y-46701184D01*
X-27213500Y-80940935D02*
X-25746500Y-82407935D01*
X-47029727Y-38695345D02*
X-47029727Y-42074708D01*
X-93287500Y-85200184D02*
X-93287500Y-94550000D01*
X-64712500Y-38679435D02*
X-63846500Y-39545435D01*
X-26213500Y-46701184D02*
X-26213500Y-55959422D01*
X-140493750Y-25876250D02*
X-135731250Y-21113750D01*
X-101946500Y-41450326D02*
X-103045435Y-42549261D01*
X-63846500Y-60224625D02*
X-64712500Y-61090625D01*
X-102812500Y-32637500D02*
X-102812500Y-38679435D01*
X-103045435Y-42549261D02*
X-103045435Y-57496500D01*
X-64812500Y-57629435D02*
X-63846500Y-58595435D01*
X-121862500Y-54068750D02*
X-122463500Y-54669750D01*
X-83762500Y-56312500D02*
X-83762500Y-65975000D01*
X-120996500Y-62855875D02*
X-121862500Y-63721875D01*
X-64712500Y-61090625D02*
X-64712500Y-70737500D01*
X-101946500Y-58595435D02*
X-101946500Y-60149565D01*
X-63846500Y-41352750D02*
X-64812500Y-42318750D01*
X-45734382Y-37400000D02*
X-47029727Y-38695345D01*
X-64712500Y-32637500D02*
X-64712500Y-38679435D01*
X-25746500Y-83962065D02*
X-26612500Y-84828065D01*
X-101946500Y-60149565D02*
X-102812500Y-61015565D01*
X-120996500Y-60976685D02*
X-120996500Y-62855875D01*
X-82896500Y-55446500D02*
X-83762500Y-56312500D01*
X-83762500Y-33916935D02*
X-82896500Y-34782935D01*
X-26612500Y-66150184D02*
X-26612500Y-75500000D01*
X-144625000Y-17704703D02*
X-136600297Y-17704703D01*
X-63846500Y-39545435D02*
X-63846500Y-41352750D01*
X-102812500Y-38679435D02*
X-101946500Y-39545435D01*
X-82896500Y-34782935D02*
X-82896500Y-36709184D01*
X-102812500Y-61015565D02*
X-102812500Y-70737500D01*
X-121862500Y-54068750D02*
X-121862500Y-44659375D01*
X-28212500Y-38315625D02*
X-28212500Y-41841935D01*
X-82896500Y-53832935D02*
X-82896500Y-55446500D01*
X-26213500Y-62890935D02*
X-25746500Y-63357935D01*
X-25746500Y-63357935D02*
X-25746500Y-65284184D01*
X-123229791Y-34528154D02*
X-122869926Y-34168289D01*
X-45263500Y-46329065D02*
X-45263500Y-62890935D01*
X-123229791Y-39693394D02*
X-123229791Y-34528154D01*
X-125367500Y-31513750D02*
X-125367500Y-23585221D01*
X-140493750Y-29331250D02*
X-140493750Y-25876250D01*
X-83762500Y-27875000D02*
X-83762500Y-33916935D01*
X-121862500Y-44659375D02*
X-120996500Y-43793375D01*
X-83684375Y-53045060D02*
X-82896500Y-53832935D01*
X-25746500Y-65284184D02*
X-26612500Y-66150184D01*
X-136600297Y-17704703D02*
X-135731250Y-18573750D01*
X-120996500Y-43793375D02*
X-120996500Y-41926685D01*
X-101946500Y-39545435D02*
X-101946500Y-41450326D01*
X-44796500Y-65193375D02*
X-45662500Y-66059375D01*
X-45662500Y-66059375D02*
X-45662500Y-75500000D01*
X-145375000Y-18454703D02*
X-144625000Y-17704703D01*
X-47029727Y-42074708D02*
X-44796500Y-44307935D01*
X-26213500Y-55959422D02*
X-26213500Y-62890935D01*
X-102812500Y-70737500D02*
X-102812500Y-73325000D01*
X-82896500Y-36709184D02*
X-83684375Y-37497059D01*
X-44796500Y-45862065D02*
X-45263500Y-46329065D01*
X-44796500Y-63357935D02*
X-44796500Y-65193375D01*
X-45263500Y-62890935D02*
X-44796500Y-63357935D01*
X-125367500Y-23585221D02*
X-130378971Y-18573750D01*
X-27296875Y-37400000D02*
X-28212500Y-38315625D01*
X-64812500Y-42318750D02*
X-64812500Y-57629435D01*
X-26612500Y-37400000D02*
X-27296875Y-37400000D01*
X-83684375Y-37497059D02*
X-83684375Y-53045060D01*
X-102812500Y-73325000D02*
X-101793750Y-74343750D01*
X-97595225Y-74343750D02*
X-92262500Y-79676475D01*
X-121862500Y-63721875D02*
X-121862500Y-73118750D01*
X-26612500Y-84828065D02*
X-26612500Y-94550000D01*
X-125367500Y-31513750D02*
X-121862500Y-35018750D01*
X-92262500Y-84175184D02*
X-93287500Y-85200184D01*
X-120996500Y-41926685D02*
X-123229791Y-39693394D01*
X-101793750Y-74343750D02*
X-97595225Y-74343750D01*
X-130378971Y-18573750D02*
X-135731250Y-18573750D01*
X-122463500Y-59509685D02*
X-120996500Y-60976685D01*
X-28212500Y-41841935D02*
X-25735821Y-44318614D01*
X-26612500Y-56450000D02*
X-26612500Y-56358422D01*
X-135731250Y-26193750D02*
X-139303242Y-29765742D01*
X-139303242Y-50006292D02*
X-141684494Y-52387544D01*
X-139303242Y-29765742D02*
X-139303242Y-50006292D01*
X-137517303Y-30519803D02*
X-135731250Y-28733750D01*
X-142082501Y-54768749D02*
X-137517303Y-50203551D01*
X-137517303Y-50203551D02*
X-137517303Y-30519803D01*
X-216635000Y-59372500D02*
X-216635000Y-69119542D01*
X-204236184Y-81518358D02*
X-204236184Y-83590940D01*
X-216635000Y-21272500D02*
X-216635000Y-59372500D01*
X-216635000Y-69119542D02*
X-204236184Y-81518358D01*
X-254735000Y-21272500D02*
X-254735000Y-59372500D01*
X-188099000Y-42882250D02*
X-188099000Y-55364109D01*
X-227936000Y-35439184D02*
X-226199000Y-37176184D01*
X-221456436Y-78232714D02*
X-218411000Y-81278150D01*
X-266036000Y-41767935D02*
X-266036000Y-44964184D01*
X-195699000Y-86904309D02*
X-195699000Y-96192750D01*
X-180773881Y-107855110D02*
X-181598881Y-107855110D01*
X-206854643Y-52982857D02*
X-207149000Y-52982857D01*
X-285086000Y-60817935D02*
X-285086000Y-62576500D01*
X-282950000Y-38800000D02*
X-282950000Y-39631935D01*
X-164404068Y-57550000D02*
X-163066568Y-58887500D01*
X-162412500Y-54768750D02*
X-161943750Y-55237500D01*
X-246986000Y-59251684D02*
X-244850000Y-61387684D01*
X-245249000Y-54318435D02*
X-246986000Y-56055435D01*
X-209550000Y-37537442D02*
X-209550000Y-39537684D01*
X-185737500Y-74518750D02*
X-182761091Y-71542341D01*
X-263900000Y-38800000D02*
X-263900000Y-39631935D01*
X-163066568Y-58887500D02*
X-158353125Y-58887500D01*
X-285556250Y-82026834D02*
X-282549000Y-85034084D01*
X-186431250Y-66718750D02*
X-186431250Y-73250000D01*
X-187700000Y-55468750D02*
X-187804641Y-55364109D01*
X-189836000Y-39386685D02*
X-189836000Y-41145250D01*
X-206750000Y-72137500D02*
X-206750000Y-74894520D01*
X-225800000Y-67375000D02*
X-221456436Y-71718564D01*
X-282950000Y-39631935D02*
X-285086000Y-41767935D01*
X-195699000Y-96192750D02*
X-197991835Y-98485585D01*
X-187700000Y-74518750D02*
X-176560250Y-85658500D01*
X-225800000Y-54983065D02*
X-225800000Y-67375000D01*
X-209550000Y-39537684D02*
X-207149000Y-41938684D01*
X-190053125Y-60848709D02*
X-187299000Y-63602834D01*
X-246986000Y-40201684D02*
X-245249000Y-41938684D01*
X-208886000Y-56055435D02*
X-208886000Y-57609565D01*
X-216275000Y-85200184D02*
X-216275000Y-95950000D01*
X-196435145Y-85209375D02*
X-196435145Y-86168164D01*
X-161943750Y-55237500D02*
X-158353125Y-55237500D01*
X-263900000Y-39631935D02*
X-266036000Y-41767935D01*
X-227936000Y-52847065D02*
X-225800000Y-54983065D01*
X-227936000Y-51292935D02*
X-227936000Y-52847065D01*
X-176560250Y-85658500D02*
X-176560250Y-103641479D01*
X-182761091Y-71542341D02*
X-182761091Y-66645527D01*
X-206750000Y-34737442D02*
X-209550000Y-37537442D01*
X-264299000Y-59080935D02*
X-266036000Y-60817935D01*
X-264299000Y-46701184D02*
X-264299000Y-59080935D01*
X-206750000Y-34037500D02*
X-206750000Y-34737442D01*
X-283349000Y-78130935D02*
X-285556250Y-80338185D01*
X-244850000Y-34781250D02*
X-246986000Y-36917250D01*
X-281553125Y-48475701D02*
X-281553125Y-57285060D01*
X-246986000Y-56055435D02*
X-246986000Y-59251684D01*
X-226199000Y-49555935D02*
X-227936000Y-51292935D01*
X-158353125Y-58887500D02*
X-158353125Y-55237500D01*
X-225800000Y-30106935D02*
X-227936000Y-32242935D01*
X-282950000Y-57850000D02*
X-282118065Y-57850000D01*
X-282549000Y-85034084D02*
X-282549000Y-86882250D01*
X-207149000Y-41938684D02*
X-207149000Y-52982857D01*
X-206750000Y-59745565D02*
X-206750000Y-72137500D01*
X-281896000Y-47117174D02*
X-281896000Y-48132826D01*
X-281171875Y-94171875D02*
X-282950000Y-95950000D01*
X-225800000Y-29275000D02*
X-225800000Y-30106935D01*
X-207149000Y-52982857D02*
X-207149000Y-54318435D01*
X-285086000Y-43526500D02*
X-281695663Y-46916837D01*
X-187804641Y-55364109D02*
X-188099000Y-55364109D01*
X-218411000Y-81278150D02*
X-218411000Y-83064184D01*
X-281171875Y-88259375D02*
X-281171875Y-94171875D01*
X-266036000Y-60817935D02*
X-266036000Y-64014184D01*
X-190053125Y-58653810D02*
X-190053125Y-60848709D01*
X-245249000Y-41938684D02*
X-245249000Y-54318435D01*
X-285086000Y-41767935D02*
X-285086000Y-43526500D01*
X-281896000Y-48132826D02*
X-281553125Y-48475701D01*
X-221456436Y-71718564D02*
X-221456436Y-78232714D01*
X-196435145Y-86168164D02*
X-195699000Y-86904309D01*
X-218411000Y-83064184D02*
X-216275000Y-85200184D01*
X-282065745Y-57797681D02*
X-285086000Y-60817935D01*
X-208886000Y-57609565D02*
X-206750000Y-59745565D01*
X-187299000Y-63602834D02*
X-187299000Y-65851000D01*
X-246986000Y-36917250D02*
X-246986000Y-40201684D01*
X-188099000Y-56699685D02*
X-190053125Y-58653810D01*
X-182761091Y-66645527D02*
X-173665564Y-57550000D01*
X-186431250Y-73250000D02*
X-187700000Y-74518750D01*
X-266036000Y-64014184D02*
X-263900000Y-66150184D01*
X-188099000Y-55364109D02*
X-188099000Y-56699685D01*
X-244850000Y-61387684D02*
X-244850000Y-72137500D01*
X-206750000Y-53087500D02*
X-206854643Y-52982857D01*
X-285556250Y-80338185D02*
X-285556250Y-82026834D01*
X-282549000Y-86882250D02*
X-281171875Y-88259375D01*
X-281553125Y-57285060D02*
X-282118065Y-57850000D01*
X-244850000Y-34037500D02*
X-244850000Y-34781250D01*
X-187700000Y-36418750D02*
X-187700000Y-37250685D01*
X-206750000Y-74894520D02*
X-196435145Y-85209375D01*
X-189836000Y-41145250D02*
X-188099000Y-42882250D01*
X-207149000Y-54318435D02*
X-208886000Y-56055435D01*
X-187299000Y-65851000D02*
X-186431250Y-66718750D01*
X-173665564Y-57550000D02*
X-164404068Y-57550000D01*
X-263900000Y-66150184D02*
X-263900000Y-76900000D01*
X-281695663Y-46916837D02*
X-281896000Y-47117174D01*
X-227936000Y-32242935D02*
X-227936000Y-35439184D01*
X-283349000Y-64313500D02*
X-283349000Y-78130935D01*
X-187700000Y-74518750D02*
X-185737500Y-74518750D01*
X-176560250Y-103641479D02*
X-180773881Y-107855110D01*
X-226199000Y-37176184D02*
X-226199000Y-49555935D01*
X-266036000Y-44964184D02*
X-264299000Y-46701184D01*
X-285086000Y-62576500D02*
X-283349000Y-64313500D01*
X-187700000Y-37250685D02*
X-189836000Y-39386685D01*
X-235685000Y-16510000D02*
X-235148635Y-17046365D01*
X-226377760Y-83185000D02*
X-226160000Y-83185000D01*
X-235685000Y-35560000D02*
X-235307415Y-35560000D01*
X-230386131Y-70437219D02*
X-230386131Y-79176629D01*
X-235307415Y-35560000D02*
X-235148635Y-35718780D01*
X-230386131Y-79176629D02*
X-226377760Y-83185000D01*
X-235148635Y-54073635D02*
X-235685000Y-54610000D01*
X-235148635Y-17046365D02*
X-235148635Y-35718780D01*
X-235685000Y-54610000D02*
X-235685000Y-65138350D01*
X-235685000Y-65138350D02*
X-230386131Y-70437219D01*
X-235148635Y-35718780D02*
X-235148635Y-54073635D01*
X-164187500Y-24288945D02*
X-166092327Y-26193772D01*
X-164187500Y-18454703D02*
X-164187500Y-24288945D01*
X-163115810Y-57150000D02*
X-173831250Y-57150000D01*
X-199023816Y-85042677D02*
X-203038669Y-89057530D01*
X-212350000Y-70737500D02*
X-212350000Y-72837442D01*
X-212350000Y-32637500D02*
X-212350000Y-38679435D01*
X-193300000Y-35018750D02*
X-193300000Y-41060685D01*
X-159460297Y-17704703D02*
X-158591250Y-18573750D01*
X-269732935Y-47333119D02*
X-269732935Y-62259000D01*
X-269500000Y-65778065D02*
X-269500000Y-75500000D01*
X-193300000Y-44718934D02*
X-193300000Y-54068750D01*
X-250450000Y-51687500D02*
X-250578204Y-51687500D01*
X-221856436Y-78399814D02*
X-220934375Y-79321875D01*
X-220934375Y-84259559D02*
X-221875000Y-85200184D01*
X-163115768Y-25638268D02*
X-158591250Y-21113750D01*
X-250450000Y-61015565D02*
X-250450000Y-70737500D01*
X-193901000Y-54669750D02*
X-193901000Y-59509685D01*
X-287684000Y-83962065D02*
X-288550000Y-84828065D01*
X-211951000Y-41938684D02*
X-211951000Y-51792231D01*
X-269500000Y-43441935D02*
X-268634000Y-44307935D01*
X-212245269Y-51792231D02*
X-211951000Y-51792231D01*
X-230534000Y-55387065D02*
X-231400000Y-56253065D01*
X-199023816Y-83834469D02*
X-199023816Y-85042677D01*
X-268634000Y-63357935D02*
X-268634000Y-64912065D01*
X-287684000Y-65284184D02*
X-288550000Y-66150184D01*
X-249584000Y-39545435D02*
X-249584000Y-41471684D01*
X-230534000Y-53832935D02*
X-230534000Y-55387065D01*
X-193300000Y-63768934D02*
X-193300000Y-73118750D01*
X-231400000Y-68856250D02*
X-230009316Y-70246934D01*
X-193300000Y-75218692D02*
X-192078067Y-76440625D01*
X-250682935Y-42570619D02*
X-250682935Y-51792231D01*
X-268634000Y-64912065D02*
X-269500000Y-65778065D01*
X-176961250Y-92325184D02*
X-185748619Y-101112553D01*
X-231400000Y-33916935D02*
X-230534000Y-34782935D01*
X-192434000Y-60976685D02*
X-192434000Y-62902934D01*
X-268634000Y-46234184D02*
X-269732935Y-47333119D01*
X-287684000Y-82407935D02*
X-287684000Y-83962065D01*
X-221875000Y-85200184D02*
X-221875000Y-94550000D01*
X-212350000Y-61387684D02*
X-212350000Y-70737500D01*
X-287684000Y-44307935D02*
X-287684000Y-46234184D01*
X-288550000Y-56450000D02*
X-288550000Y-62491935D01*
X-289940625Y-76890625D02*
X-289940625Y-80151310D01*
X-221856436Y-71884250D02*
X-221856436Y-78399814D01*
X-211951000Y-58128435D02*
X-211484000Y-58595435D01*
X-288550000Y-37400000D02*
X-288643750Y-37400000D01*
X-230534000Y-36709184D02*
X-231632935Y-37808119D01*
X-193300000Y-41060685D02*
X-192434000Y-41926685D01*
X-250682935Y-51792231D02*
X-250682935Y-57496500D01*
X-212350000Y-51687500D02*
X-212245269Y-51792231D01*
X-169187500Y-18454703D02*
X-168437500Y-17704703D01*
X-231400000Y-56253065D02*
X-231400000Y-65975000D01*
X-186345225Y-76440625D02*
X-176961250Y-85824600D01*
X-211484000Y-58595435D02*
X-211484000Y-60521684D01*
X-288550000Y-62491935D02*
X-287684000Y-63357935D01*
X-250682935Y-57496500D02*
X-249584000Y-58595435D01*
X-288550000Y-66150184D02*
X-288550000Y-75500000D01*
X-220934375Y-79321875D02*
X-220934375Y-84259559D01*
X-168437500Y-17704703D02*
X-159460297Y-17704703D01*
X-212350000Y-72837442D02*
X-202624869Y-82562573D01*
X-230009316Y-70246934D02*
X-223493752Y-70246934D01*
X-203038669Y-89057530D02*
X-203038669Y-95677727D01*
X-193901000Y-59509685D02*
X-192434000Y-60976685D01*
X-268634000Y-44307935D02*
X-268634000Y-46234184D01*
X-211484000Y-60521684D02*
X-212350000Y-61387684D01*
X-192434000Y-41926685D02*
X-192434000Y-43852934D01*
X-290321875Y-41670060D02*
X-287684000Y-44307935D01*
X-192078067Y-76440625D02*
X-186345225Y-76440625D01*
X-173831250Y-57150000D02*
X-183356250Y-66675000D01*
X-183356250Y-66675000D02*
X-183356250Y-70842093D01*
X-231632935Y-52734000D02*
X-230534000Y-53832935D01*
X-230534000Y-34782935D02*
X-230534000Y-36709184D01*
X-288550000Y-47100184D02*
X-288550000Y-56450000D01*
X-185748619Y-101112553D02*
X-185748619Y-103842674D01*
X-288550000Y-75500000D02*
X-289940625Y-76890625D01*
X-250450000Y-32637500D02*
X-250450000Y-38679435D01*
X-200295712Y-82562573D02*
X-199023816Y-83834469D01*
X-211951000Y-51792231D02*
X-211951000Y-58128435D01*
X-231400000Y-27875000D02*
X-231400000Y-33916935D01*
X-288550000Y-84828065D02*
X-288550000Y-94550000D01*
X-192434000Y-62902934D02*
X-193300000Y-63768934D01*
X-193300000Y-54068750D02*
X-193901000Y-54669750D01*
X-250450000Y-38679435D02*
X-249584000Y-39545435D01*
X-249584000Y-60149565D02*
X-250450000Y-61015565D01*
X-287684000Y-46234184D02*
X-288550000Y-47100184D01*
X-192434000Y-43852934D02*
X-193300000Y-44718934D01*
X-211484000Y-39545435D02*
X-211484000Y-41471684D01*
X-176961250Y-85824600D02*
X-176961250Y-92325184D01*
X-250578204Y-51687500D02*
X-250682935Y-51792231D01*
X-231632935Y-37808119D02*
X-231632935Y-52734000D01*
X-231400000Y-65975000D02*
X-231400000Y-68856250D01*
X-223493752Y-70246934D02*
X-221856436Y-71884250D01*
X-211484000Y-41471684D02*
X-211951000Y-41938684D01*
X-249584000Y-41471684D02*
X-250682935Y-42570619D01*
X-287684000Y-63357935D02*
X-287684000Y-65284184D01*
X-202624869Y-82562573D02*
X-200295712Y-82562573D01*
X-249584000Y-58595435D02*
X-249584000Y-60149565D01*
X-193300000Y-73118750D02*
X-193300000Y-75218692D01*
X-288643750Y-37400000D02*
X-290321875Y-39078125D01*
X-212350000Y-38679435D02*
X-211484000Y-39545435D01*
X-269732935Y-62259000D02*
X-268634000Y-63357935D01*
X-289940625Y-80151310D02*
X-287684000Y-82407935D01*
X-183356250Y-70842093D02*
X-183951717Y-71437560D01*
X-290321875Y-39078125D02*
X-290321875Y-41670060D01*
X-163115768Y-29331272D02*
X-163115768Y-25638268D01*
X-269500000Y-37400000D02*
X-269500000Y-43441935D01*
X-292835000Y-26193750D02*
X-292835000Y-83185000D01*
X-273785000Y-45085000D02*
X-273407455Y-45085000D01*
X-273407455Y-45085000D02*
X-273248667Y-45243788D01*
X-273248667Y-63598667D02*
X-273785000Y-64135000D01*
X-273248667Y-26571333D02*
X-273248667Y-45243788D01*
X-273785000Y-26035000D02*
X-273248667Y-26571333D01*
X-273248667Y-45243788D02*
X-273248667Y-63598667D01*
X-197585000Y-42703750D02*
X-197207389Y-42703750D01*
X-180975000Y-82377950D02*
X-180975000Y-89055755D01*
X-197048603Y-61217353D02*
X-197585000Y-61753750D01*
X-197585000Y-61753750D02*
X-197585000Y-71500792D01*
X-197207389Y-42703750D02*
X-197048603Y-42862536D01*
X-197048603Y-24190147D02*
X-197048603Y-42862536D01*
X-197585000Y-23653750D02*
X-197048603Y-24190147D01*
X-180975000Y-89055755D02*
X-183777040Y-91857795D01*
X-192244167Y-76841625D02*
X-186511325Y-76841625D01*
X-197585000Y-71500792D02*
X-192244167Y-76841625D01*
X-186511325Y-76841625D02*
X-180975000Y-82377950D01*
X-197048603Y-42862536D02*
X-197048603Y-61217353D01*
X-164952503Y-54768750D02*
X-161925136Y-51741383D01*
X-161925136Y-51741383D02*
X-161925136Y-32067636D01*
X-161925136Y-32067636D02*
X-158591250Y-28733750D01*
X-140375000Y-23098441D02*
X-143470309Y-26193750D01*
X-140375000Y-18454703D02*
X-140375000Y-23098441D01*
X-144157850Y-54304098D02*
X-144157850Y-44462760D01*
X-146557850Y-54164099D02*
X-146557850Y-44164016D01*
X-147162500Y-54768749D02*
X-146557850Y-54164099D01*
X-146557850Y-44164016D02*
X-144065744Y-41671910D01*
X-167017850Y-54294097D02*
X-167017850Y-44383370D01*
X-169417850Y-44402120D02*
X-169417850Y-54154098D01*
X-169417850Y-54154098D02*
X-170032502Y-54768750D01*
X-166687640Y-41671910D02*
X-169417850Y-44402120D01*
X-282950000Y-47100184D02*
X-288550000Y-41500184D01*
X-282950000Y-56450000D02*
X-282950000Y-47100184D01*
X-288550000Y-41500184D02*
X-288550000Y-38800000D01*
X-288550000Y-79600184D02*
X-282950000Y-85200184D01*
X-288550000Y-76900000D02*
X-288550000Y-79600184D01*
X-282950000Y-85200184D02*
X-282950000Y-94550000D01*
X-21012500Y-47100184D02*
X-21012500Y-56450000D01*
X-26612500Y-38800000D02*
X-26612500Y-41500184D01*
X-26612500Y-41500184D02*
X-21012500Y-47100184D01*
X-26612500Y-76900000D02*
X-26612500Y-79600184D01*
X-21012500Y-85200184D02*
X-21012500Y-94550000D01*
X-26612500Y-79600184D02*
X-21012500Y-85200184D01*
X-121862500Y-55468750D02*
X-121862500Y-58168934D01*
X-121862500Y-58168934D02*
X-116262500Y-63768934D01*
X-116262500Y-63768934D02*
X-116262500Y-73118750D01*
X-193300000Y-55468750D02*
X-193300000Y-58168934D01*
X-187700000Y-63768934D02*
X-187700000Y-73118750D01*
X-193300000Y-58168934D02*
X-187700000Y-63768934D01*
M02*
