G04 #@! TF.GenerationSoftware,KiCad,Pcbnew,10.0.0*
G04 #@! TF.CreationDate,2026-04-10T19:00:32-05:00*
G04 #@! TF.ProjectId,pepuinoSplit44,70657075-696e-46f5-9370-6c697434342e,rev?*
G04 #@! TF.SameCoordinates,Original*
G04 #@! TF.FileFunction,Legend,Top*
G04 #@! TF.FilePolarity,Positive*
%FSLAX46Y46*%
G04 Gerber Fmt 4.6, Leading zero omitted, Abs format (unit mm)*
G04 Created by KiCad (PCBNEW 10.0.0) date 2026-04-10 19:00:32*
%MOMM*%
%LPD*%
G01*
G04 APERTURE LIST*
%ADD10C,0.100000*%
%ADD11C,0.150000*%
%ADD12C,0.120000*%
G04 APERTURE END LIST*
D10*
X-175908763Y-66547419D02*
X-175908763Y-65547419D01*
X-175432573Y-66547419D02*
X-175432573Y-65547419D01*
X-175432573Y-65547419D02*
X-174861145Y-66547419D01*
X-174861145Y-66547419D02*
X-174861145Y-65547419D01*
X-174432573Y-66499800D02*
X-174289716Y-66547419D01*
X-174289716Y-66547419D02*
X-174051621Y-66547419D01*
X-174051621Y-66547419D02*
X-173956383Y-66499800D01*
X-173956383Y-66499800D02*
X-173908764Y-66452180D01*
X-173908764Y-66452180D02*
X-173861145Y-66356942D01*
X-173861145Y-66356942D02*
X-173861145Y-66261704D01*
X-173861145Y-66261704D02*
X-173908764Y-66166466D01*
X-173908764Y-66166466D02*
X-173956383Y-66118847D01*
X-173956383Y-66118847D02*
X-174051621Y-66071228D01*
X-174051621Y-66071228D02*
X-174242097Y-66023609D01*
X-174242097Y-66023609D02*
X-174337335Y-65975990D01*
X-174337335Y-65975990D02*
X-174384954Y-65928371D01*
X-174384954Y-65928371D02*
X-174432573Y-65833133D01*
X-174432573Y-65833133D02*
X-174432573Y-65737895D01*
X-174432573Y-65737895D02*
X-174384954Y-65642657D01*
X-174384954Y-65642657D02*
X-174337335Y-65595038D01*
X-174337335Y-65595038D02*
X-174242097Y-65547419D01*
X-174242097Y-65547419D02*
X-174004002Y-65547419D01*
X-174004002Y-65547419D02*
X-173861145Y-65595038D01*
X-173432573Y-66023609D02*
X-173099240Y-66023609D01*
X-172956383Y-66547419D02*
X-173432573Y-66547419D01*
X-173432573Y-66547419D02*
X-173432573Y-65547419D01*
X-173432573Y-65547419D02*
X-172956383Y-65547419D01*
X-171956383Y-66547419D02*
X-172289716Y-66071228D01*
X-172527811Y-66547419D02*
X-172527811Y-65547419D01*
X-172527811Y-65547419D02*
X-172146859Y-65547419D01*
X-172146859Y-65547419D02*
X-172051621Y-65595038D01*
X-172051621Y-65595038D02*
X-172004002Y-65642657D01*
X-172004002Y-65642657D02*
X-171956383Y-65737895D01*
X-171956383Y-65737895D02*
X-171956383Y-65880752D01*
X-171956383Y-65880752D02*
X-172004002Y-65975990D01*
X-172004002Y-65975990D02*
X-172051621Y-66023609D01*
X-172051621Y-66023609D02*
X-172146859Y-66071228D01*
X-172146859Y-66071228D02*
X-172527811Y-66071228D01*
X-171670668Y-65547419D02*
X-171099240Y-65547419D01*
X-171384954Y-66547419D02*
X-171384954Y-65547419D01*
X-169432573Y-66452180D02*
X-169480192Y-66499800D01*
X-169480192Y-66499800D02*
X-169623049Y-66547419D01*
X-169623049Y-66547419D02*
X-169718287Y-66547419D01*
X-169718287Y-66547419D02*
X-169861144Y-66499800D01*
X-169861144Y-66499800D02*
X-169956382Y-66404561D01*
X-169956382Y-66404561D02*
X-170004001Y-66309323D01*
X-170004001Y-66309323D02*
X-170051620Y-66118847D01*
X-170051620Y-66118847D02*
X-170051620Y-65975990D01*
X-170051620Y-65975990D02*
X-170004001Y-65785514D01*
X-170004001Y-65785514D02*
X-169956382Y-65690276D01*
X-169956382Y-65690276D02*
X-169861144Y-65595038D01*
X-169861144Y-65595038D02*
X-169718287Y-65547419D01*
X-169718287Y-65547419D02*
X-169623049Y-65547419D01*
X-169623049Y-65547419D02*
X-169480192Y-65595038D01*
X-169480192Y-65595038D02*
X-169432573Y-65642657D01*
X-168813525Y-65547419D02*
X-168623049Y-65547419D01*
X-168623049Y-65547419D02*
X-168527811Y-65595038D01*
X-168527811Y-65595038D02*
X-168432573Y-65690276D01*
X-168432573Y-65690276D02*
X-168384954Y-65880752D01*
X-168384954Y-65880752D02*
X-168384954Y-66214085D01*
X-168384954Y-66214085D02*
X-168432573Y-66404561D01*
X-168432573Y-66404561D02*
X-168527811Y-66499800D01*
X-168527811Y-66499800D02*
X-168623049Y-66547419D01*
X-168623049Y-66547419D02*
X-168813525Y-66547419D01*
X-168813525Y-66547419D02*
X-168908763Y-66499800D01*
X-168908763Y-66499800D02*
X-169004001Y-66404561D01*
X-169004001Y-66404561D02*
X-169051620Y-66214085D01*
X-169051620Y-66214085D02*
X-169051620Y-65880752D01*
X-169051620Y-65880752D02*
X-169004001Y-65690276D01*
X-169004001Y-65690276D02*
X-168908763Y-65595038D01*
X-168908763Y-65595038D02*
X-168813525Y-65547419D01*
X-167765906Y-65547419D02*
X-167575430Y-65547419D01*
X-167575430Y-65547419D02*
X-167480192Y-65595038D01*
X-167480192Y-65595038D02*
X-167384954Y-65690276D01*
X-167384954Y-65690276D02*
X-167337335Y-65880752D01*
X-167337335Y-65880752D02*
X-167337335Y-66214085D01*
X-167337335Y-66214085D02*
X-167384954Y-66404561D01*
X-167384954Y-66404561D02*
X-167480192Y-66499800D01*
X-167480192Y-66499800D02*
X-167575430Y-66547419D01*
X-167575430Y-66547419D02*
X-167765906Y-66547419D01*
X-167765906Y-66547419D02*
X-167861144Y-66499800D01*
X-167861144Y-66499800D02*
X-167956382Y-66404561D01*
X-167956382Y-66404561D02*
X-168004001Y-66214085D01*
X-168004001Y-66214085D02*
X-168004001Y-65880752D01*
X-168004001Y-65880752D02*
X-167956382Y-65690276D01*
X-167956382Y-65690276D02*
X-167861144Y-65595038D01*
X-167861144Y-65595038D02*
X-167765906Y-65547419D01*
X-166432573Y-66547419D02*
X-166908763Y-66547419D01*
X-166908763Y-66547419D02*
X-166908763Y-65547419D01*
X-165384953Y-66499800D02*
X-165242096Y-66547419D01*
X-165242096Y-66547419D02*
X-165004001Y-66547419D01*
X-165004001Y-66547419D02*
X-164908763Y-66499800D01*
X-164908763Y-66499800D02*
X-164861144Y-66452180D01*
X-164861144Y-66452180D02*
X-164813525Y-66356942D01*
X-164813525Y-66356942D02*
X-164813525Y-66261704D01*
X-164813525Y-66261704D02*
X-164861144Y-66166466D01*
X-164861144Y-66166466D02*
X-164908763Y-66118847D01*
X-164908763Y-66118847D02*
X-165004001Y-66071228D01*
X-165004001Y-66071228D02*
X-165194477Y-66023609D01*
X-165194477Y-66023609D02*
X-165289715Y-65975990D01*
X-165289715Y-65975990D02*
X-165337334Y-65928371D01*
X-165337334Y-65928371D02*
X-165384953Y-65833133D01*
X-165384953Y-65833133D02*
X-165384953Y-65737895D01*
X-165384953Y-65737895D02*
X-165337334Y-65642657D01*
X-165337334Y-65642657D02*
X-165289715Y-65595038D01*
X-165289715Y-65595038D02*
X-165194477Y-65547419D01*
X-165194477Y-65547419D02*
X-164956382Y-65547419D01*
X-164956382Y-65547419D02*
X-164813525Y-65595038D01*
X-164384953Y-66547419D02*
X-164384953Y-65547419D01*
X-163432573Y-66547419D02*
X-163908763Y-66547419D01*
X-163908763Y-66547419D02*
X-163908763Y-65547419D01*
X-163099239Y-66547419D02*
X-163099239Y-65547419D01*
X-162527811Y-66547419D02*
X-162956382Y-65975990D01*
X-162527811Y-65547419D02*
X-163099239Y-66118847D01*
X-162146858Y-66499800D02*
X-162004001Y-66547419D01*
X-162004001Y-66547419D02*
X-161765906Y-66547419D01*
X-161765906Y-66547419D02*
X-161670668Y-66499800D01*
X-161670668Y-66499800D02*
X-161623049Y-66452180D01*
X-161623049Y-66452180D02*
X-161575430Y-66356942D01*
X-161575430Y-66356942D02*
X-161575430Y-66261704D01*
X-161575430Y-66261704D02*
X-161623049Y-66166466D01*
X-161623049Y-66166466D02*
X-161670668Y-66118847D01*
X-161670668Y-66118847D02*
X-161765906Y-66071228D01*
X-161765906Y-66071228D02*
X-161956382Y-66023609D01*
X-161956382Y-66023609D02*
X-162051620Y-65975990D01*
X-162051620Y-65975990D02*
X-162099239Y-65928371D01*
X-162099239Y-65928371D02*
X-162146858Y-65833133D01*
X-162146858Y-65833133D02*
X-162146858Y-65737895D01*
X-162146858Y-65737895D02*
X-162099239Y-65642657D01*
X-162099239Y-65642657D02*
X-162051620Y-65595038D01*
X-162051620Y-65595038D02*
X-161956382Y-65547419D01*
X-161956382Y-65547419D02*
X-161718287Y-65547419D01*
X-161718287Y-65547419D02*
X-161575430Y-65595038D01*
X-160575430Y-66452180D02*
X-160623049Y-66499800D01*
X-160623049Y-66499800D02*
X-160765906Y-66547419D01*
X-160765906Y-66547419D02*
X-160861144Y-66547419D01*
X-160861144Y-66547419D02*
X-161004001Y-66499800D01*
X-161004001Y-66499800D02*
X-161099239Y-66404561D01*
X-161099239Y-66404561D02*
X-161146858Y-66309323D01*
X-161146858Y-66309323D02*
X-161194477Y-66118847D01*
X-161194477Y-66118847D02*
X-161194477Y-65975990D01*
X-161194477Y-65975990D02*
X-161146858Y-65785514D01*
X-161146858Y-65785514D02*
X-161099239Y-65690276D01*
X-161099239Y-65690276D02*
X-161004001Y-65595038D01*
X-161004001Y-65595038D02*
X-160861144Y-65547419D01*
X-160861144Y-65547419D02*
X-160765906Y-65547419D01*
X-160765906Y-65547419D02*
X-160623049Y-65595038D01*
X-160623049Y-65595038D02*
X-160575430Y-65642657D01*
X-159575430Y-66547419D02*
X-159908763Y-66071228D01*
X-160146858Y-66547419D02*
X-160146858Y-65547419D01*
X-160146858Y-65547419D02*
X-159765906Y-65547419D01*
X-159765906Y-65547419D02*
X-159670668Y-65595038D01*
X-159670668Y-65595038D02*
X-159623049Y-65642657D01*
X-159623049Y-65642657D02*
X-159575430Y-65737895D01*
X-159575430Y-65737895D02*
X-159575430Y-65880752D01*
X-159575430Y-65880752D02*
X-159623049Y-65975990D01*
X-159623049Y-65975990D02*
X-159670668Y-66023609D01*
X-159670668Y-66023609D02*
X-159765906Y-66071228D01*
X-159765906Y-66071228D02*
X-160146858Y-66071228D01*
X-159146858Y-66023609D02*
X-158813525Y-66023609D01*
X-158670668Y-66547419D02*
X-159146858Y-66547419D01*
X-159146858Y-66547419D02*
X-159146858Y-65547419D01*
X-159146858Y-65547419D02*
X-158670668Y-65547419D01*
X-158242096Y-66023609D02*
X-157908763Y-66023609D01*
X-157765906Y-66547419D02*
X-158242096Y-66547419D01*
X-158242096Y-66547419D02*
X-158242096Y-65547419D01*
X-158242096Y-65547419D02*
X-157765906Y-65547419D01*
X-157337334Y-66547419D02*
X-157337334Y-65547419D01*
X-157337334Y-65547419D02*
X-156765906Y-66547419D01*
X-156765906Y-66547419D02*
X-156765906Y-65547419D01*
X-152691556Y-66547419D02*
X-152691556Y-65547419D01*
X-152215366Y-66547419D02*
X-152215366Y-65547419D01*
X-152215366Y-65547419D02*
X-151643938Y-66547419D01*
X-151643938Y-66547419D02*
X-151643938Y-65547419D01*
X-151215366Y-66499800D02*
X-151072509Y-66547419D01*
X-151072509Y-66547419D02*
X-150834414Y-66547419D01*
X-150834414Y-66547419D02*
X-150739176Y-66499800D01*
X-150739176Y-66499800D02*
X-150691557Y-66452180D01*
X-150691557Y-66452180D02*
X-150643938Y-66356942D01*
X-150643938Y-66356942D02*
X-150643938Y-66261704D01*
X-150643938Y-66261704D02*
X-150691557Y-66166466D01*
X-150691557Y-66166466D02*
X-150739176Y-66118847D01*
X-150739176Y-66118847D02*
X-150834414Y-66071228D01*
X-150834414Y-66071228D02*
X-151024890Y-66023609D01*
X-151024890Y-66023609D02*
X-151120128Y-65975990D01*
X-151120128Y-65975990D02*
X-151167747Y-65928371D01*
X-151167747Y-65928371D02*
X-151215366Y-65833133D01*
X-151215366Y-65833133D02*
X-151215366Y-65737895D01*
X-151215366Y-65737895D02*
X-151167747Y-65642657D01*
X-151167747Y-65642657D02*
X-151120128Y-65595038D01*
X-151120128Y-65595038D02*
X-151024890Y-65547419D01*
X-151024890Y-65547419D02*
X-150786795Y-65547419D01*
X-150786795Y-65547419D02*
X-150643938Y-65595038D01*
X-150215366Y-66023609D02*
X-149882033Y-66023609D01*
X-149739176Y-66547419D02*
X-150215366Y-66547419D01*
X-150215366Y-66547419D02*
X-150215366Y-65547419D01*
X-150215366Y-65547419D02*
X-149739176Y-65547419D01*
X-148739176Y-66547419D02*
X-149072509Y-66071228D01*
X-149310604Y-66547419D02*
X-149310604Y-65547419D01*
X-149310604Y-65547419D02*
X-148929652Y-65547419D01*
X-148929652Y-65547419D02*
X-148834414Y-65595038D01*
X-148834414Y-65595038D02*
X-148786795Y-65642657D01*
X-148786795Y-65642657D02*
X-148739176Y-65737895D01*
X-148739176Y-65737895D02*
X-148739176Y-65880752D01*
X-148739176Y-65880752D02*
X-148786795Y-65975990D01*
X-148786795Y-65975990D02*
X-148834414Y-66023609D01*
X-148834414Y-66023609D02*
X-148929652Y-66071228D01*
X-148929652Y-66071228D02*
X-149310604Y-66071228D01*
X-148453461Y-65547419D02*
X-147882033Y-65547419D01*
X-148167747Y-66547419D02*
X-148167747Y-65547419D01*
X-146215366Y-66452180D02*
X-146262985Y-66499800D01*
X-146262985Y-66499800D02*
X-146405842Y-66547419D01*
X-146405842Y-66547419D02*
X-146501080Y-66547419D01*
X-146501080Y-66547419D02*
X-146643937Y-66499800D01*
X-146643937Y-66499800D02*
X-146739175Y-66404561D01*
X-146739175Y-66404561D02*
X-146786794Y-66309323D01*
X-146786794Y-66309323D02*
X-146834413Y-66118847D01*
X-146834413Y-66118847D02*
X-146834413Y-65975990D01*
X-146834413Y-65975990D02*
X-146786794Y-65785514D01*
X-146786794Y-65785514D02*
X-146739175Y-65690276D01*
X-146739175Y-65690276D02*
X-146643937Y-65595038D01*
X-146643937Y-65595038D02*
X-146501080Y-65547419D01*
X-146501080Y-65547419D02*
X-146405842Y-65547419D01*
X-146405842Y-65547419D02*
X-146262985Y-65595038D01*
X-146262985Y-65595038D02*
X-146215366Y-65642657D01*
X-145596318Y-65547419D02*
X-145405842Y-65547419D01*
X-145405842Y-65547419D02*
X-145310604Y-65595038D01*
X-145310604Y-65595038D02*
X-145215366Y-65690276D01*
X-145215366Y-65690276D02*
X-145167747Y-65880752D01*
X-145167747Y-65880752D02*
X-145167747Y-66214085D01*
X-145167747Y-66214085D02*
X-145215366Y-66404561D01*
X-145215366Y-66404561D02*
X-145310604Y-66499800D01*
X-145310604Y-66499800D02*
X-145405842Y-66547419D01*
X-145405842Y-66547419D02*
X-145596318Y-66547419D01*
X-145596318Y-66547419D02*
X-145691556Y-66499800D01*
X-145691556Y-66499800D02*
X-145786794Y-66404561D01*
X-145786794Y-66404561D02*
X-145834413Y-66214085D01*
X-145834413Y-66214085D02*
X-145834413Y-65880752D01*
X-145834413Y-65880752D02*
X-145786794Y-65690276D01*
X-145786794Y-65690276D02*
X-145691556Y-65595038D01*
X-145691556Y-65595038D02*
X-145596318Y-65547419D01*
X-144548699Y-65547419D02*
X-144358223Y-65547419D01*
X-144358223Y-65547419D02*
X-144262985Y-65595038D01*
X-144262985Y-65595038D02*
X-144167747Y-65690276D01*
X-144167747Y-65690276D02*
X-144120128Y-65880752D01*
X-144120128Y-65880752D02*
X-144120128Y-66214085D01*
X-144120128Y-66214085D02*
X-144167747Y-66404561D01*
X-144167747Y-66404561D02*
X-144262985Y-66499800D01*
X-144262985Y-66499800D02*
X-144358223Y-66547419D01*
X-144358223Y-66547419D02*
X-144548699Y-66547419D01*
X-144548699Y-66547419D02*
X-144643937Y-66499800D01*
X-144643937Y-66499800D02*
X-144739175Y-66404561D01*
X-144739175Y-66404561D02*
X-144786794Y-66214085D01*
X-144786794Y-66214085D02*
X-144786794Y-65880752D01*
X-144786794Y-65880752D02*
X-144739175Y-65690276D01*
X-144739175Y-65690276D02*
X-144643937Y-65595038D01*
X-144643937Y-65595038D02*
X-144548699Y-65547419D01*
X-143215366Y-66547419D02*
X-143691556Y-66547419D01*
X-143691556Y-66547419D02*
X-143691556Y-65547419D01*
X-142167746Y-66499800D02*
X-142024889Y-66547419D01*
X-142024889Y-66547419D02*
X-141786794Y-66547419D01*
X-141786794Y-66547419D02*
X-141691556Y-66499800D01*
X-141691556Y-66499800D02*
X-141643937Y-66452180D01*
X-141643937Y-66452180D02*
X-141596318Y-66356942D01*
X-141596318Y-66356942D02*
X-141596318Y-66261704D01*
X-141596318Y-66261704D02*
X-141643937Y-66166466D01*
X-141643937Y-66166466D02*
X-141691556Y-66118847D01*
X-141691556Y-66118847D02*
X-141786794Y-66071228D01*
X-141786794Y-66071228D02*
X-141977270Y-66023609D01*
X-141977270Y-66023609D02*
X-142072508Y-65975990D01*
X-142072508Y-65975990D02*
X-142120127Y-65928371D01*
X-142120127Y-65928371D02*
X-142167746Y-65833133D01*
X-142167746Y-65833133D02*
X-142167746Y-65737895D01*
X-142167746Y-65737895D02*
X-142120127Y-65642657D01*
X-142120127Y-65642657D02*
X-142072508Y-65595038D01*
X-142072508Y-65595038D02*
X-141977270Y-65547419D01*
X-141977270Y-65547419D02*
X-141739175Y-65547419D01*
X-141739175Y-65547419D02*
X-141596318Y-65595038D01*
X-141167746Y-66547419D02*
X-141167746Y-65547419D01*
X-140215366Y-66547419D02*
X-140691556Y-66547419D01*
X-140691556Y-66547419D02*
X-140691556Y-65547419D01*
X-139882032Y-66547419D02*
X-139882032Y-65547419D01*
X-139310604Y-66547419D02*
X-139739175Y-65975990D01*
X-139310604Y-65547419D02*
X-139882032Y-66118847D01*
X-138929651Y-66499800D02*
X-138786794Y-66547419D01*
X-138786794Y-66547419D02*
X-138548699Y-66547419D01*
X-138548699Y-66547419D02*
X-138453461Y-66499800D01*
X-138453461Y-66499800D02*
X-138405842Y-66452180D01*
X-138405842Y-66452180D02*
X-138358223Y-66356942D01*
X-138358223Y-66356942D02*
X-138358223Y-66261704D01*
X-138358223Y-66261704D02*
X-138405842Y-66166466D01*
X-138405842Y-66166466D02*
X-138453461Y-66118847D01*
X-138453461Y-66118847D02*
X-138548699Y-66071228D01*
X-138548699Y-66071228D02*
X-138739175Y-66023609D01*
X-138739175Y-66023609D02*
X-138834413Y-65975990D01*
X-138834413Y-65975990D02*
X-138882032Y-65928371D01*
X-138882032Y-65928371D02*
X-138929651Y-65833133D01*
X-138929651Y-65833133D02*
X-138929651Y-65737895D01*
X-138929651Y-65737895D02*
X-138882032Y-65642657D01*
X-138882032Y-65642657D02*
X-138834413Y-65595038D01*
X-138834413Y-65595038D02*
X-138739175Y-65547419D01*
X-138739175Y-65547419D02*
X-138501080Y-65547419D01*
X-138501080Y-65547419D02*
X-138358223Y-65595038D01*
X-137358223Y-66452180D02*
X-137405842Y-66499800D01*
X-137405842Y-66499800D02*
X-137548699Y-66547419D01*
X-137548699Y-66547419D02*
X-137643937Y-66547419D01*
X-137643937Y-66547419D02*
X-137786794Y-66499800D01*
X-137786794Y-66499800D02*
X-137882032Y-66404561D01*
X-137882032Y-66404561D02*
X-137929651Y-66309323D01*
X-137929651Y-66309323D02*
X-137977270Y-66118847D01*
X-137977270Y-66118847D02*
X-137977270Y-65975990D01*
X-137977270Y-65975990D02*
X-137929651Y-65785514D01*
X-137929651Y-65785514D02*
X-137882032Y-65690276D01*
X-137882032Y-65690276D02*
X-137786794Y-65595038D01*
X-137786794Y-65595038D02*
X-137643937Y-65547419D01*
X-137643937Y-65547419D02*
X-137548699Y-65547419D01*
X-137548699Y-65547419D02*
X-137405842Y-65595038D01*
X-137405842Y-65595038D02*
X-137358223Y-65642657D01*
X-136358223Y-66547419D02*
X-136691556Y-66071228D01*
X-136929651Y-66547419D02*
X-136929651Y-65547419D01*
X-136929651Y-65547419D02*
X-136548699Y-65547419D01*
X-136548699Y-65547419D02*
X-136453461Y-65595038D01*
X-136453461Y-65595038D02*
X-136405842Y-65642657D01*
X-136405842Y-65642657D02*
X-136358223Y-65737895D01*
X-136358223Y-65737895D02*
X-136358223Y-65880752D01*
X-136358223Y-65880752D02*
X-136405842Y-65975990D01*
X-136405842Y-65975990D02*
X-136453461Y-66023609D01*
X-136453461Y-66023609D02*
X-136548699Y-66071228D01*
X-136548699Y-66071228D02*
X-136929651Y-66071228D01*
X-135929651Y-66023609D02*
X-135596318Y-66023609D01*
X-135453461Y-66547419D02*
X-135929651Y-66547419D01*
X-135929651Y-66547419D02*
X-135929651Y-65547419D01*
X-135929651Y-65547419D02*
X-135453461Y-65547419D01*
X-135024889Y-66023609D02*
X-134691556Y-66023609D01*
X-134548699Y-66547419D02*
X-135024889Y-66547419D01*
X-135024889Y-66547419D02*
X-135024889Y-65547419D01*
X-135024889Y-65547419D02*
X-134548699Y-65547419D01*
X-134120127Y-66547419D02*
X-134120127Y-65547419D01*
X-134120127Y-65547419D02*
X-133548699Y-66547419D01*
X-133548699Y-66547419D02*
X-133548699Y-65547419D01*
D11*
X-174593154Y-68742319D02*
X-174593154Y-67742319D01*
X-174593154Y-68218509D02*
X-174021726Y-68218509D01*
X-174021726Y-68742319D02*
X-174021726Y-67742319D01*
X-173021726Y-68742319D02*
X-173593154Y-68742319D01*
X-173307440Y-68742319D02*
X-173307440Y-67742319D01*
X-173307440Y-67742319D02*
X-173402678Y-67885176D01*
X-173402678Y-67885176D02*
X-173497916Y-67980414D01*
X-173497916Y-67980414D02*
X-173593154Y-68028033D01*
X-101822023Y-54319700D02*
X-101679166Y-54367319D01*
X-101679166Y-54367319D02*
X-101441071Y-54367319D01*
X-101441071Y-54367319D02*
X-101345833Y-54319700D01*
X-101345833Y-54319700D02*
X-101298214Y-54272080D01*
X-101298214Y-54272080D02*
X-101250595Y-54176842D01*
X-101250595Y-54176842D02*
X-101250595Y-54081604D01*
X-101250595Y-54081604D02*
X-101298214Y-53986366D01*
X-101298214Y-53986366D02*
X-101345833Y-53938747D01*
X-101345833Y-53938747D02*
X-101441071Y-53891128D01*
X-101441071Y-53891128D02*
X-101631547Y-53843509D01*
X-101631547Y-53843509D02*
X-101726785Y-53795890D01*
X-101726785Y-53795890D02*
X-101774404Y-53748271D01*
X-101774404Y-53748271D02*
X-101822023Y-53653033D01*
X-101822023Y-53653033D02*
X-101822023Y-53557795D01*
X-101822023Y-53557795D02*
X-101774404Y-53462557D01*
X-101774404Y-53462557D02*
X-101726785Y-53414938D01*
X-101726785Y-53414938D02*
X-101631547Y-53367319D01*
X-101631547Y-53367319D02*
X-101393452Y-53367319D01*
X-101393452Y-53367319D02*
X-101250595Y-53414938D01*
X-100917261Y-53367319D02*
X-100679166Y-54367319D01*
X-100679166Y-54367319D02*
X-100488690Y-53653033D01*
X-100488690Y-53653033D02*
X-100298214Y-54367319D01*
X-100298214Y-54367319D02*
X-100060119Y-53367319D01*
X-99774404Y-53367319D02*
X-99155357Y-53367319D01*
X-99155357Y-53367319D02*
X-99488690Y-53748271D01*
X-99488690Y-53748271D02*
X-99345833Y-53748271D01*
X-99345833Y-53748271D02*
X-99250595Y-53795890D01*
X-99250595Y-53795890D02*
X-99202976Y-53843509D01*
X-99202976Y-53843509D02*
X-99155357Y-53938747D01*
X-99155357Y-53938747D02*
X-99155357Y-54176842D01*
X-99155357Y-54176842D02*
X-99202976Y-54272080D01*
X-99202976Y-54272080D02*
X-99250595Y-54319700D01*
X-99250595Y-54319700D02*
X-99345833Y-54367319D01*
X-99345833Y-54367319D02*
X-99631547Y-54367319D01*
X-99631547Y-54367319D02*
X-99726785Y-54319700D01*
X-99726785Y-54319700D02*
X-99774404Y-54272080D01*
X-98679166Y-54367319D02*
X-98488690Y-54367319D01*
X-98488690Y-54367319D02*
X-98393452Y-54319700D01*
X-98393452Y-54319700D02*
X-98345833Y-54272080D01*
X-98345833Y-54272080D02*
X-98250595Y-54129223D01*
X-98250595Y-54129223D02*
X-98202976Y-53938747D01*
X-98202976Y-53938747D02*
X-98202976Y-53557795D01*
X-98202976Y-53557795D02*
X-98250595Y-53462557D01*
X-98250595Y-53462557D02*
X-98298214Y-53414938D01*
X-98298214Y-53414938D02*
X-98393452Y-53367319D01*
X-98393452Y-53367319D02*
X-98583928Y-53367319D01*
X-98583928Y-53367319D02*
X-98679166Y-53414938D01*
X-98679166Y-53414938D02*
X-98726785Y-53462557D01*
X-98726785Y-53462557D02*
X-98774404Y-53557795D01*
X-98774404Y-53557795D02*
X-98774404Y-53795890D01*
X-98774404Y-53795890D02*
X-98726785Y-53891128D01*
X-98726785Y-53891128D02*
X-98679166Y-53938747D01*
X-98679166Y-53938747D02*
X-98583928Y-53986366D01*
X-98583928Y-53986366D02*
X-98393452Y-53986366D01*
X-98393452Y-53986366D02*
X-98298214Y-53938747D01*
X-98298214Y-53938747D02*
X-98250595Y-53891128D01*
X-98250595Y-53891128D02*
X-98202976Y-53795890D01*
X-152154470Y-50778569D02*
X-152154470Y-51588092D01*
X-152154470Y-51588092D02*
X-152106851Y-51683330D01*
X-152106851Y-51683330D02*
X-152059232Y-51730950D01*
X-152059232Y-51730950D02*
X-151963994Y-51778569D01*
X-151963994Y-51778569D02*
X-151773518Y-51778569D01*
X-151773518Y-51778569D02*
X-151678280Y-51730950D01*
X-151678280Y-51730950D02*
X-151630661Y-51683330D01*
X-151630661Y-51683330D02*
X-151583042Y-51588092D01*
X-151583042Y-51588092D02*
X-151583042Y-50778569D01*
X-151154470Y-50873807D02*
X-151106851Y-50826188D01*
X-151106851Y-50826188D02*
X-151011613Y-50778569D01*
X-151011613Y-50778569D02*
X-150773518Y-50778569D01*
X-150773518Y-50778569D02*
X-150678280Y-50826188D01*
X-150678280Y-50826188D02*
X-150630661Y-50873807D01*
X-150630661Y-50873807D02*
X-150583042Y-50969045D01*
X-150583042Y-50969045D02*
X-150583042Y-51064283D01*
X-150583042Y-51064283D02*
X-150630661Y-51207140D01*
X-150630661Y-51207140D02*
X-151202089Y-51778569D01*
X-151202089Y-51778569D02*
X-150583042Y-51778569D01*
X-148780535Y-21671069D02*
X-149351963Y-21671069D01*
X-149066249Y-21671069D02*
X-149066249Y-20671069D01*
X-149066249Y-20671069D02*
X-149161487Y-20813926D01*
X-149161487Y-20813926D02*
X-149256725Y-20909164D01*
X-149256725Y-20909164D02*
X-149351963Y-20956783D01*
X-144613154Y-17753569D02*
X-144613154Y-18563092D01*
X-144613154Y-18563092D02*
X-144565535Y-18658330D01*
X-144565535Y-18658330D02*
X-144517916Y-18705950D01*
X-144517916Y-18705950D02*
X-144422678Y-18753569D01*
X-144422678Y-18753569D02*
X-144232202Y-18753569D01*
X-144232202Y-18753569D02*
X-144136964Y-18705950D01*
X-144136964Y-18705950D02*
X-144089345Y-18658330D01*
X-144089345Y-18658330D02*
X-144041726Y-18563092D01*
X-144041726Y-18563092D02*
X-144041726Y-17753569D01*
X-143613154Y-18705950D02*
X-143470297Y-18753569D01*
X-143470297Y-18753569D02*
X-143232202Y-18753569D01*
X-143232202Y-18753569D02*
X-143136964Y-18705950D01*
X-143136964Y-18705950D02*
X-143089345Y-18658330D01*
X-143089345Y-18658330D02*
X-143041726Y-18563092D01*
X-143041726Y-18563092D02*
X-143041726Y-18467854D01*
X-143041726Y-18467854D02*
X-143089345Y-18372616D01*
X-143089345Y-18372616D02*
X-143136964Y-18324997D01*
X-143136964Y-18324997D02*
X-143232202Y-18277378D01*
X-143232202Y-18277378D02*
X-143422678Y-18229759D01*
X-143422678Y-18229759D02*
X-143517916Y-18182140D01*
X-143517916Y-18182140D02*
X-143565535Y-18134521D01*
X-143565535Y-18134521D02*
X-143613154Y-18039283D01*
X-143613154Y-18039283D02*
X-143613154Y-17944045D01*
X-143613154Y-17944045D02*
X-143565535Y-17848807D01*
X-143565535Y-17848807D02*
X-143517916Y-17801188D01*
X-143517916Y-17801188D02*
X-143422678Y-17753569D01*
X-143422678Y-17753569D02*
X-143184583Y-17753569D01*
X-143184583Y-17753569D02*
X-143041726Y-17801188D01*
X-142279821Y-18229759D02*
X-142136964Y-18277378D01*
X-142136964Y-18277378D02*
X-142089345Y-18324997D01*
X-142089345Y-18324997D02*
X-142041726Y-18420235D01*
X-142041726Y-18420235D02*
X-142041726Y-18563092D01*
X-142041726Y-18563092D02*
X-142089345Y-18658330D01*
X-142089345Y-18658330D02*
X-142136964Y-18705950D01*
X-142136964Y-18705950D02*
X-142232202Y-18753569D01*
X-142232202Y-18753569D02*
X-142613154Y-18753569D01*
X-142613154Y-18753569D02*
X-142613154Y-17753569D01*
X-142613154Y-17753569D02*
X-142279821Y-17753569D01*
X-142279821Y-17753569D02*
X-142184583Y-17801188D01*
X-142184583Y-17801188D02*
X-142136964Y-17848807D01*
X-142136964Y-17848807D02*
X-142089345Y-17944045D01*
X-142089345Y-17944045D02*
X-142089345Y-18039283D01*
X-142089345Y-18039283D02*
X-142136964Y-18134521D01*
X-142136964Y-18134521D02*
X-142184583Y-18182140D01*
X-142184583Y-18182140D02*
X-142279821Y-18229759D01*
X-142279821Y-18229759D02*
X-142613154Y-18229759D01*
X-145970297Y-19486902D02*
X-145589345Y-19486902D01*
X-145827440Y-19153569D02*
X-145827440Y-20010711D01*
X-145827440Y-20010711D02*
X-145779821Y-20105950D01*
X-145779821Y-20105950D02*
X-145684583Y-20153569D01*
X-145684583Y-20153569D02*
X-145589345Y-20153569D01*
X-145113154Y-20153569D02*
X-145208392Y-20105950D01*
X-145208392Y-20105950D02*
X-145256011Y-20058330D01*
X-145256011Y-20058330D02*
X-145303630Y-19963092D01*
X-145303630Y-19963092D02*
X-145303630Y-19677378D01*
X-145303630Y-19677378D02*
X-145256011Y-19582140D01*
X-145256011Y-19582140D02*
X-145208392Y-19534521D01*
X-145208392Y-19534521D02*
X-145113154Y-19486902D01*
X-145113154Y-19486902D02*
X-144970297Y-19486902D01*
X-144970297Y-19486902D02*
X-144875059Y-19534521D01*
X-144875059Y-19534521D02*
X-144827440Y-19582140D01*
X-144827440Y-19582140D02*
X-144779821Y-19677378D01*
X-144779821Y-19677378D02*
X-144779821Y-19963092D01*
X-144779821Y-19963092D02*
X-144827440Y-20058330D01*
X-144827440Y-20058330D02*
X-144875059Y-20105950D01*
X-144875059Y-20105950D02*
X-144970297Y-20153569D01*
X-144970297Y-20153569D02*
X-145113154Y-20153569D01*
X-144351249Y-19486902D02*
X-144351249Y-20486902D01*
X-144351249Y-19534521D02*
X-144256011Y-19486902D01*
X-144256011Y-19486902D02*
X-144065535Y-19486902D01*
X-144065535Y-19486902D02*
X-143970297Y-19534521D01*
X-143970297Y-19534521D02*
X-143922678Y-19582140D01*
X-143922678Y-19582140D02*
X-143875059Y-19677378D01*
X-143875059Y-19677378D02*
X-143875059Y-19963092D01*
X-143875059Y-19963092D02*
X-143922678Y-20058330D01*
X-143922678Y-20058330D02*
X-143970297Y-20105950D01*
X-143970297Y-20105950D02*
X-144065535Y-20153569D01*
X-144065535Y-20153569D02*
X-144256011Y-20153569D01*
X-144256011Y-20153569D02*
X-144351249Y-20105950D01*
X-143494106Y-20105950D02*
X-143398868Y-20153569D01*
X-143398868Y-20153569D02*
X-143208392Y-20153569D01*
X-143208392Y-20153569D02*
X-143113154Y-20105950D01*
X-143113154Y-20105950D02*
X-143065535Y-20010711D01*
X-143065535Y-20010711D02*
X-143065535Y-19963092D01*
X-143065535Y-19963092D02*
X-143113154Y-19867854D01*
X-143113154Y-19867854D02*
X-143208392Y-19820235D01*
X-143208392Y-19820235D02*
X-143351249Y-19820235D01*
X-143351249Y-19820235D02*
X-143446487Y-19772616D01*
X-143446487Y-19772616D02*
X-143494106Y-19677378D01*
X-143494106Y-19677378D02*
X-143494106Y-19629759D01*
X-143494106Y-19629759D02*
X-143446487Y-19534521D01*
X-143446487Y-19534521D02*
X-143351249Y-19486902D01*
X-143351249Y-19486902D02*
X-143208392Y-19486902D01*
X-143208392Y-19486902D02*
X-143113154Y-19534521D01*
X-142636963Y-20153569D02*
X-142636963Y-19486902D01*
X-142636963Y-19153569D02*
X-142684582Y-19201188D01*
X-142684582Y-19201188D02*
X-142636963Y-19248807D01*
X-142636963Y-19248807D02*
X-142589344Y-19201188D01*
X-142589344Y-19201188D02*
X-142636963Y-19153569D01*
X-142636963Y-19153569D02*
X-142636963Y-19248807D01*
X-141732202Y-20153569D02*
X-141732202Y-19153569D01*
X-141732202Y-20105950D02*
X-141827440Y-20153569D01*
X-141827440Y-20153569D02*
X-142017916Y-20153569D01*
X-142017916Y-20153569D02*
X-142113154Y-20105950D01*
X-142113154Y-20105950D02*
X-142160773Y-20058330D01*
X-142160773Y-20058330D02*
X-142208392Y-19963092D01*
X-142208392Y-19963092D02*
X-142208392Y-19677378D01*
X-142208392Y-19677378D02*
X-142160773Y-19582140D01*
X-142160773Y-19582140D02*
X-142113154Y-19534521D01*
X-142113154Y-19534521D02*
X-142017916Y-19486902D01*
X-142017916Y-19486902D02*
X-141827440Y-19486902D01*
X-141827440Y-19486902D02*
X-141732202Y-19534521D01*
X-140875059Y-20105950D02*
X-140970297Y-20153569D01*
X-140970297Y-20153569D02*
X-141160773Y-20153569D01*
X-141160773Y-20153569D02*
X-141256011Y-20105950D01*
X-141256011Y-20105950D02*
X-141303630Y-20010711D01*
X-141303630Y-20010711D02*
X-141303630Y-19629759D01*
X-141303630Y-19629759D02*
X-141256011Y-19534521D01*
X-141256011Y-19534521D02*
X-141160773Y-19486902D01*
X-141160773Y-19486902D02*
X-140970297Y-19486902D01*
X-140970297Y-19486902D02*
X-140875059Y-19534521D01*
X-140875059Y-19534521D02*
X-140827440Y-19629759D01*
X-140827440Y-19629759D02*
X-140827440Y-19724997D01*
X-140827440Y-19724997D02*
X-141303630Y-19820235D01*
X-211359523Y-54319700D02*
X-211216666Y-54367319D01*
X-211216666Y-54367319D02*
X-210978571Y-54367319D01*
X-210978571Y-54367319D02*
X-210883333Y-54319700D01*
X-210883333Y-54319700D02*
X-210835714Y-54272080D01*
X-210835714Y-54272080D02*
X-210788095Y-54176842D01*
X-210788095Y-54176842D02*
X-210788095Y-54081604D01*
X-210788095Y-54081604D02*
X-210835714Y-53986366D01*
X-210835714Y-53986366D02*
X-210883333Y-53938747D01*
X-210883333Y-53938747D02*
X-210978571Y-53891128D01*
X-210978571Y-53891128D02*
X-211169047Y-53843509D01*
X-211169047Y-53843509D02*
X-211264285Y-53795890D01*
X-211264285Y-53795890D02*
X-211311904Y-53748271D01*
X-211311904Y-53748271D02*
X-211359523Y-53653033D01*
X-211359523Y-53653033D02*
X-211359523Y-53557795D01*
X-211359523Y-53557795D02*
X-211311904Y-53462557D01*
X-211311904Y-53462557D02*
X-211264285Y-53414938D01*
X-211264285Y-53414938D02*
X-211169047Y-53367319D01*
X-211169047Y-53367319D02*
X-210930952Y-53367319D01*
X-210930952Y-53367319D02*
X-210788095Y-53414938D01*
X-210454761Y-53367319D02*
X-210216666Y-54367319D01*
X-210216666Y-54367319D02*
X-210026190Y-53653033D01*
X-210026190Y-53653033D02*
X-209835714Y-54367319D01*
X-209835714Y-54367319D02*
X-209597619Y-53367319D01*
X-208692857Y-54367319D02*
X-209264285Y-54367319D01*
X-208978571Y-54367319D02*
X-208978571Y-53367319D01*
X-208978571Y-53367319D02*
X-209073809Y-53510176D01*
X-209073809Y-53510176D02*
X-209169047Y-53605414D01*
X-209169047Y-53605414D02*
X-209264285Y-53653033D01*
X-208359523Y-53367319D02*
X-207692857Y-53367319D01*
X-207692857Y-53367319D02*
X-208121428Y-54367319D01*
X-148102175Y-57617023D02*
X-148054555Y-57474166D01*
X-148054555Y-57474166D02*
X-148054555Y-57236071D01*
X-148054555Y-57236071D02*
X-148102175Y-57140833D01*
X-148102175Y-57140833D02*
X-148149794Y-57093214D01*
X-148149794Y-57093214D02*
X-148245032Y-57045595D01*
X-148245032Y-57045595D02*
X-148340270Y-57045595D01*
X-148340270Y-57045595D02*
X-148435508Y-57093214D01*
X-148435508Y-57093214D02*
X-148483127Y-57140833D01*
X-148483127Y-57140833D02*
X-148530746Y-57236071D01*
X-148530746Y-57236071D02*
X-148578365Y-57426547D01*
X-148578365Y-57426547D02*
X-148625984Y-57521785D01*
X-148625984Y-57521785D02*
X-148673603Y-57569404D01*
X-148673603Y-57569404D02*
X-148768841Y-57617023D01*
X-148768841Y-57617023D02*
X-148864079Y-57617023D01*
X-148864079Y-57617023D02*
X-148959317Y-57569404D01*
X-148959317Y-57569404D02*
X-149006936Y-57521785D01*
X-149006936Y-57521785D02*
X-149054555Y-57426547D01*
X-149054555Y-57426547D02*
X-149054555Y-57188452D01*
X-149054555Y-57188452D02*
X-149006936Y-57045595D01*
X-149054555Y-56712261D02*
X-148054555Y-56474166D01*
X-148054555Y-56474166D02*
X-148768841Y-56283690D01*
X-148768841Y-56283690D02*
X-148054555Y-56093214D01*
X-148054555Y-56093214D02*
X-149054555Y-55855119D01*
X-148721222Y-55045595D02*
X-148054555Y-55045595D01*
X-149102175Y-55283690D02*
X-148387889Y-55521785D01*
X-148387889Y-55521785D02*
X-148387889Y-54902738D01*
X-149054555Y-54045595D02*
X-149054555Y-54521785D01*
X-149054555Y-54521785D02*
X-148578365Y-54569404D01*
X-148578365Y-54569404D02*
X-148625984Y-54521785D01*
X-148625984Y-54521785D02*
X-148673603Y-54426547D01*
X-148673603Y-54426547D02*
X-148673603Y-54188452D01*
X-148673603Y-54188452D02*
X-148625984Y-54093214D01*
X-148625984Y-54093214D02*
X-148578365Y-54045595D01*
X-148578365Y-54045595D02*
X-148483127Y-53997976D01*
X-148483127Y-53997976D02*
X-148245032Y-53997976D01*
X-148245032Y-53997976D02*
X-148149794Y-54045595D01*
X-148149794Y-54045595D02*
X-148102175Y-54093214D01*
X-148102175Y-54093214D02*
X-148054555Y-54188452D01*
X-148054555Y-54188452D02*
X-148054555Y-54426547D01*
X-148054555Y-54426547D02*
X-148102175Y-54521785D01*
X-148102175Y-54521785D02*
X-148149794Y-54569404D01*
X-162686904Y-73504819D02*
X-162686904Y-72504819D01*
X-162686904Y-72981009D02*
X-162115476Y-72981009D01*
X-162115476Y-73504819D02*
X-162115476Y-72504819D01*
X-161686904Y-72600057D02*
X-161639285Y-72552438D01*
X-161639285Y-72552438D02*
X-161544047Y-72504819D01*
X-161544047Y-72504819D02*
X-161305952Y-72504819D01*
X-161305952Y-72504819D02*
X-161210714Y-72552438D01*
X-161210714Y-72552438D02*
X-161163095Y-72600057D01*
X-161163095Y-72600057D02*
X-161115476Y-72695295D01*
X-161115476Y-72695295D02*
X-161115476Y-72790533D01*
X-161115476Y-72790533D02*
X-161163095Y-72933390D01*
X-161163095Y-72933390D02*
X-161734523Y-73504819D01*
X-161734523Y-73504819D02*
X-161115476Y-73504819D01*
X-44672023Y-20982200D02*
X-44529166Y-21029819D01*
X-44529166Y-21029819D02*
X-44291071Y-21029819D01*
X-44291071Y-21029819D02*
X-44195833Y-20982200D01*
X-44195833Y-20982200D02*
X-44148214Y-20934580D01*
X-44148214Y-20934580D02*
X-44100595Y-20839342D01*
X-44100595Y-20839342D02*
X-44100595Y-20744104D01*
X-44100595Y-20744104D02*
X-44148214Y-20648866D01*
X-44148214Y-20648866D02*
X-44195833Y-20601247D01*
X-44195833Y-20601247D02*
X-44291071Y-20553628D01*
X-44291071Y-20553628D02*
X-44481547Y-20506009D01*
X-44481547Y-20506009D02*
X-44576785Y-20458390D01*
X-44576785Y-20458390D02*
X-44624404Y-20410771D01*
X-44624404Y-20410771D02*
X-44672023Y-20315533D01*
X-44672023Y-20315533D02*
X-44672023Y-20220295D01*
X-44672023Y-20220295D02*
X-44624404Y-20125057D01*
X-44624404Y-20125057D02*
X-44576785Y-20077438D01*
X-44576785Y-20077438D02*
X-44481547Y-20029819D01*
X-44481547Y-20029819D02*
X-44243452Y-20029819D01*
X-44243452Y-20029819D02*
X-44100595Y-20077438D01*
X-43767261Y-20029819D02*
X-43529166Y-21029819D01*
X-43529166Y-21029819D02*
X-43338690Y-20315533D01*
X-43338690Y-20315533D02*
X-43148214Y-21029819D01*
X-43148214Y-21029819D02*
X-42910119Y-20029819D01*
X-42576785Y-20125057D02*
X-42529166Y-20077438D01*
X-42529166Y-20077438D02*
X-42433928Y-20029819D01*
X-42433928Y-20029819D02*
X-42195833Y-20029819D01*
X-42195833Y-20029819D02*
X-42100595Y-20077438D01*
X-42100595Y-20077438D02*
X-42052976Y-20125057D01*
X-42052976Y-20125057D02*
X-42005357Y-20220295D01*
X-42005357Y-20220295D02*
X-42005357Y-20315533D01*
X-42005357Y-20315533D02*
X-42052976Y-20458390D01*
X-42052976Y-20458390D02*
X-42624404Y-21029819D01*
X-42624404Y-21029819D02*
X-42005357Y-21029819D01*
X-41672023Y-20029819D02*
X-41005357Y-20029819D01*
X-41005357Y-20029819D02*
X-41433928Y-21029819D01*
X-248983332Y-16219700D02*
X-248840475Y-16267319D01*
X-248840475Y-16267319D02*
X-248602380Y-16267319D01*
X-248602380Y-16267319D02*
X-248507142Y-16219700D01*
X-248507142Y-16219700D02*
X-248459523Y-16172080D01*
X-248459523Y-16172080D02*
X-248411904Y-16076842D01*
X-248411904Y-16076842D02*
X-248411904Y-15981604D01*
X-248411904Y-15981604D02*
X-248459523Y-15886366D01*
X-248459523Y-15886366D02*
X-248507142Y-15838747D01*
X-248507142Y-15838747D02*
X-248602380Y-15791128D01*
X-248602380Y-15791128D02*
X-248792856Y-15743509D01*
X-248792856Y-15743509D02*
X-248888094Y-15695890D01*
X-248888094Y-15695890D02*
X-248935713Y-15648271D01*
X-248935713Y-15648271D02*
X-248983332Y-15553033D01*
X-248983332Y-15553033D02*
X-248983332Y-15457795D01*
X-248983332Y-15457795D02*
X-248935713Y-15362557D01*
X-248935713Y-15362557D02*
X-248888094Y-15314938D01*
X-248888094Y-15314938D02*
X-248792856Y-15267319D01*
X-248792856Y-15267319D02*
X-248554761Y-15267319D01*
X-248554761Y-15267319D02*
X-248411904Y-15314938D01*
X-248078570Y-15267319D02*
X-247840475Y-16267319D01*
X-247840475Y-16267319D02*
X-247649999Y-15553033D01*
X-247649999Y-15553033D02*
X-247459523Y-16267319D01*
X-247459523Y-16267319D02*
X-247221428Y-15267319D01*
X-246935713Y-15267319D02*
X-246316666Y-15267319D01*
X-246316666Y-15267319D02*
X-246649999Y-15648271D01*
X-246649999Y-15648271D02*
X-246507142Y-15648271D01*
X-246507142Y-15648271D02*
X-246411904Y-15695890D01*
X-246411904Y-15695890D02*
X-246364285Y-15743509D01*
X-246364285Y-15743509D02*
X-246316666Y-15838747D01*
X-246316666Y-15838747D02*
X-246316666Y-16076842D01*
X-246316666Y-16076842D02*
X-246364285Y-16172080D01*
X-246364285Y-16172080D02*
X-246411904Y-16219700D01*
X-246411904Y-16219700D02*
X-246507142Y-16267319D01*
X-246507142Y-16267319D02*
X-246792856Y-16267319D01*
X-246792856Y-16267319D02*
X-246888094Y-16219700D01*
X-246888094Y-16219700D02*
X-246935713Y-16172080D01*
X-210883332Y-16219700D02*
X-210740475Y-16267319D01*
X-210740475Y-16267319D02*
X-210502380Y-16267319D01*
X-210502380Y-16267319D02*
X-210407142Y-16219700D01*
X-210407142Y-16219700D02*
X-210359523Y-16172080D01*
X-210359523Y-16172080D02*
X-210311904Y-16076842D01*
X-210311904Y-16076842D02*
X-210311904Y-15981604D01*
X-210311904Y-15981604D02*
X-210359523Y-15886366D01*
X-210359523Y-15886366D02*
X-210407142Y-15838747D01*
X-210407142Y-15838747D02*
X-210502380Y-15791128D01*
X-210502380Y-15791128D02*
X-210692856Y-15743509D01*
X-210692856Y-15743509D02*
X-210788094Y-15695890D01*
X-210788094Y-15695890D02*
X-210835713Y-15648271D01*
X-210835713Y-15648271D02*
X-210883332Y-15553033D01*
X-210883332Y-15553033D02*
X-210883332Y-15457795D01*
X-210883332Y-15457795D02*
X-210835713Y-15362557D01*
X-210835713Y-15362557D02*
X-210788094Y-15314938D01*
X-210788094Y-15314938D02*
X-210692856Y-15267319D01*
X-210692856Y-15267319D02*
X-210454761Y-15267319D01*
X-210454761Y-15267319D02*
X-210311904Y-15314938D01*
X-209978570Y-15267319D02*
X-209740475Y-16267319D01*
X-209740475Y-16267319D02*
X-209549999Y-15553033D01*
X-209549999Y-15553033D02*
X-209359523Y-16267319D01*
X-209359523Y-16267319D02*
X-209121428Y-15267319D01*
X-208264285Y-15267319D02*
X-208740475Y-15267319D01*
X-208740475Y-15267319D02*
X-208788094Y-15743509D01*
X-208788094Y-15743509D02*
X-208740475Y-15695890D01*
X-208740475Y-15695890D02*
X-208645237Y-15648271D01*
X-208645237Y-15648271D02*
X-208407142Y-15648271D01*
X-208407142Y-15648271D02*
X-208311904Y-15695890D01*
X-208311904Y-15695890D02*
X-208264285Y-15743509D01*
X-208264285Y-15743509D02*
X-208216666Y-15838747D01*
X-208216666Y-15838747D02*
X-208216666Y-16076842D01*
X-208216666Y-16076842D02*
X-208264285Y-16172080D01*
X-208264285Y-16172080D02*
X-208311904Y-16219700D01*
X-208311904Y-16219700D02*
X-208407142Y-16267319D01*
X-208407142Y-16267319D02*
X-208645237Y-16267319D01*
X-208645237Y-16267319D02*
X-208740475Y-16219700D01*
X-208740475Y-16219700D02*
X-208788094Y-16172080D01*
X-211359523Y-35269700D02*
X-211216666Y-35317319D01*
X-211216666Y-35317319D02*
X-210978571Y-35317319D01*
X-210978571Y-35317319D02*
X-210883333Y-35269700D01*
X-210883333Y-35269700D02*
X-210835714Y-35222080D01*
X-210835714Y-35222080D02*
X-210788095Y-35126842D01*
X-210788095Y-35126842D02*
X-210788095Y-35031604D01*
X-210788095Y-35031604D02*
X-210835714Y-34936366D01*
X-210835714Y-34936366D02*
X-210883333Y-34888747D01*
X-210883333Y-34888747D02*
X-210978571Y-34841128D01*
X-210978571Y-34841128D02*
X-211169047Y-34793509D01*
X-211169047Y-34793509D02*
X-211264285Y-34745890D01*
X-211264285Y-34745890D02*
X-211311904Y-34698271D01*
X-211311904Y-34698271D02*
X-211359523Y-34603033D01*
X-211359523Y-34603033D02*
X-211359523Y-34507795D01*
X-211359523Y-34507795D02*
X-211311904Y-34412557D01*
X-211311904Y-34412557D02*
X-211264285Y-34364938D01*
X-211264285Y-34364938D02*
X-211169047Y-34317319D01*
X-211169047Y-34317319D02*
X-210930952Y-34317319D01*
X-210930952Y-34317319D02*
X-210788095Y-34364938D01*
X-210454761Y-34317319D02*
X-210216666Y-35317319D01*
X-210216666Y-35317319D02*
X-210026190Y-34603033D01*
X-210026190Y-34603033D02*
X-209835714Y-35317319D01*
X-209835714Y-35317319D02*
X-209597619Y-34317319D01*
X-208692857Y-35317319D02*
X-209264285Y-35317319D01*
X-208978571Y-35317319D02*
X-208978571Y-34317319D01*
X-208978571Y-34317319D02*
X-209073809Y-34460176D01*
X-209073809Y-34460176D02*
X-209169047Y-34555414D01*
X-209169047Y-34555414D02*
X-209264285Y-34603033D01*
X-207740476Y-35317319D02*
X-208311904Y-35317319D01*
X-208026190Y-35317319D02*
X-208026190Y-34317319D01*
X-208026190Y-34317319D02*
X-208121428Y-34460176D01*
X-208121428Y-34460176D02*
X-208216666Y-34555414D01*
X-208216666Y-34555414D02*
X-208311904Y-34603033D01*
X-115228651Y-81012382D02*
X-115078337Y-81021404D01*
X-115078337Y-81021404D02*
X-114848355Y-80959780D01*
X-114848355Y-80959780D02*
X-114768686Y-80889135D01*
X-114768686Y-80889135D02*
X-114735015Y-80830813D01*
X-114735015Y-80830813D02*
X-114713668Y-80726496D01*
X-114713668Y-80726496D02*
X-114738317Y-80634503D01*
X-114738317Y-80634503D02*
X-114808963Y-80554835D01*
X-114808963Y-80554835D02*
X-114867284Y-80521163D01*
X-114867284Y-80521163D02*
X-114971602Y-80499816D01*
X-114971602Y-80499816D02*
X-115167912Y-80503118D01*
X-115167912Y-80503118D02*
X-115272230Y-80481771D01*
X-115272230Y-80481771D02*
X-115330551Y-80448099D01*
X-115330551Y-80448099D02*
X-115401197Y-80368431D01*
X-115401197Y-80368431D02*
X-115425847Y-80276438D01*
X-115425847Y-80276438D02*
X-115404500Y-80172121D01*
X-115404500Y-80172121D02*
X-115370828Y-80113799D01*
X-115370828Y-80113799D02*
X-115291160Y-80043153D01*
X-115291160Y-80043153D02*
X-115061177Y-79981530D01*
X-115061177Y-79981530D02*
X-114910863Y-79990552D01*
X-114601213Y-79858283D02*
X-114112411Y-80762585D01*
X-114112411Y-80762585D02*
X-114113296Y-80023339D01*
X-114113296Y-80023339D02*
X-113744439Y-80663987D01*
X-113744439Y-80663987D02*
X-113773276Y-79636438D01*
X-112905063Y-79748893D02*
X-112732517Y-80392844D01*
X-113233643Y-79442545D02*
X-113278755Y-80194115D01*
X-113278755Y-80194115D02*
X-112680801Y-80033894D01*
X-112301389Y-79242047D02*
X-112209396Y-79217398D01*
X-112209396Y-79217398D02*
X-112105079Y-79238745D01*
X-112105079Y-79238745D02*
X-112046757Y-79272416D01*
X-112046757Y-79272416D02*
X-111976112Y-79352085D01*
X-111976112Y-79352085D02*
X-111880816Y-79523746D01*
X-111880816Y-79523746D02*
X-111819193Y-79753728D01*
X-111819193Y-79753728D02*
X-111815890Y-79950039D01*
X-111815890Y-79950039D02*
X-111837237Y-80054356D01*
X-111837237Y-80054356D02*
X-111870909Y-80112677D01*
X-111870909Y-80112677D02*
X-111950577Y-80183323D01*
X-111950577Y-80183323D02*
X-112042570Y-80207973D01*
X-112042570Y-80207973D02*
X-112146888Y-80186626D01*
X-112146888Y-80186626D02*
X-112205209Y-80152954D01*
X-112205209Y-80152954D02*
X-112275855Y-80073286D01*
X-112275855Y-80073286D02*
X-112371150Y-79901625D01*
X-112371150Y-79901625D02*
X-112432774Y-79671642D01*
X-112432774Y-79671642D02*
X-112436076Y-79475332D01*
X-112436076Y-79475332D02*
X-112414729Y-79371014D01*
X-112414729Y-79371014D02*
X-112381057Y-79312693D01*
X-112381057Y-79312693D02*
X-112301389Y-79242047D01*
X-171521422Y-23500591D02*
X-170949994Y-23500591D01*
X-171235708Y-24500591D02*
X-171235708Y-23500591D01*
X-170616660Y-24500591D02*
X-170616660Y-23500591D01*
X-170616660Y-23500591D02*
X-170235708Y-23500591D01*
X-170235708Y-23500591D02*
X-170140470Y-23548210D01*
X-170140470Y-23548210D02*
X-170092851Y-23595829D01*
X-170092851Y-23595829D02*
X-170045232Y-23691067D01*
X-170045232Y-23691067D02*
X-170045232Y-23833924D01*
X-170045232Y-23833924D02*
X-170092851Y-23929162D01*
X-170092851Y-23929162D02*
X-170140470Y-23976781D01*
X-170140470Y-23976781D02*
X-170235708Y-24024400D01*
X-170235708Y-24024400D02*
X-170616660Y-24024400D01*
X-169664279Y-23595829D02*
X-169616660Y-23548210D01*
X-169616660Y-23548210D02*
X-169521422Y-23500591D01*
X-169521422Y-23500591D02*
X-169283327Y-23500591D01*
X-169283327Y-23500591D02*
X-169188089Y-23548210D01*
X-169188089Y-23548210D02*
X-169140470Y-23595829D01*
X-169140470Y-23595829D02*
X-169092851Y-23691067D01*
X-169092851Y-23691067D02*
X-169092851Y-23786305D01*
X-169092851Y-23786305D02*
X-169140470Y-23929162D01*
X-169140470Y-23929162D02*
X-169711898Y-24500591D01*
X-169711898Y-24500591D02*
X-169092851Y-24500591D01*
X-25622023Y-59082200D02*
X-25479166Y-59129819D01*
X-25479166Y-59129819D02*
X-25241071Y-59129819D01*
X-25241071Y-59129819D02*
X-25145833Y-59082200D01*
X-25145833Y-59082200D02*
X-25098214Y-59034580D01*
X-25098214Y-59034580D02*
X-25050595Y-58939342D01*
X-25050595Y-58939342D02*
X-25050595Y-58844104D01*
X-25050595Y-58844104D02*
X-25098214Y-58748866D01*
X-25098214Y-58748866D02*
X-25145833Y-58701247D01*
X-25145833Y-58701247D02*
X-25241071Y-58653628D01*
X-25241071Y-58653628D02*
X-25431547Y-58606009D01*
X-25431547Y-58606009D02*
X-25526785Y-58558390D01*
X-25526785Y-58558390D02*
X-25574404Y-58510771D01*
X-25574404Y-58510771D02*
X-25622023Y-58415533D01*
X-25622023Y-58415533D02*
X-25622023Y-58320295D01*
X-25622023Y-58320295D02*
X-25574404Y-58225057D01*
X-25574404Y-58225057D02*
X-25526785Y-58177438D01*
X-25526785Y-58177438D02*
X-25431547Y-58129819D01*
X-25431547Y-58129819D02*
X-25193452Y-58129819D01*
X-25193452Y-58129819D02*
X-25050595Y-58177438D01*
X-24717261Y-58129819D02*
X-24479166Y-59129819D01*
X-24479166Y-59129819D02*
X-24288690Y-58415533D01*
X-24288690Y-58415533D02*
X-24098214Y-59129819D01*
X-24098214Y-59129819D02*
X-23860119Y-58129819D01*
X-23526785Y-58225057D02*
X-23479166Y-58177438D01*
X-23479166Y-58177438D02*
X-23383928Y-58129819D01*
X-23383928Y-58129819D02*
X-23145833Y-58129819D01*
X-23145833Y-58129819D02*
X-23050595Y-58177438D01*
X-23050595Y-58177438D02*
X-23002976Y-58225057D01*
X-23002976Y-58225057D02*
X-22955357Y-58320295D01*
X-22955357Y-58320295D02*
X-22955357Y-58415533D01*
X-22955357Y-58415533D02*
X-23002976Y-58558390D01*
X-23002976Y-58558390D02*
X-23574404Y-59129819D01*
X-23574404Y-59129819D02*
X-22955357Y-59129819D01*
X-22050595Y-58129819D02*
X-22526785Y-58129819D01*
X-22526785Y-58129819D02*
X-22574404Y-58606009D01*
X-22574404Y-58606009D02*
X-22526785Y-58558390D01*
X-22526785Y-58558390D02*
X-22431547Y-58510771D01*
X-22431547Y-58510771D02*
X-22193452Y-58510771D01*
X-22193452Y-58510771D02*
X-22098214Y-58558390D01*
X-22098214Y-58558390D02*
X-22050595Y-58606009D01*
X-22050595Y-58606009D02*
X-22002976Y-58701247D01*
X-22002976Y-58701247D02*
X-22002976Y-58939342D01*
X-22002976Y-58939342D02*
X-22050595Y-59034580D01*
X-22050595Y-59034580D02*
X-22098214Y-59082200D01*
X-22098214Y-59082200D02*
X-22193452Y-59129819D01*
X-22193452Y-59129819D02*
X-22431547Y-59129819D01*
X-22431547Y-59129819D02*
X-22526785Y-59082200D01*
X-22526785Y-59082200D02*
X-22574404Y-59034580D01*
X-230409523Y-30507200D02*
X-230266666Y-30554819D01*
X-230266666Y-30554819D02*
X-230028571Y-30554819D01*
X-230028571Y-30554819D02*
X-229933333Y-30507200D01*
X-229933333Y-30507200D02*
X-229885714Y-30459580D01*
X-229885714Y-30459580D02*
X-229838095Y-30364342D01*
X-229838095Y-30364342D02*
X-229838095Y-30269104D01*
X-229838095Y-30269104D02*
X-229885714Y-30173866D01*
X-229885714Y-30173866D02*
X-229933333Y-30126247D01*
X-229933333Y-30126247D02*
X-230028571Y-30078628D01*
X-230028571Y-30078628D02*
X-230219047Y-30031009D01*
X-230219047Y-30031009D02*
X-230314285Y-29983390D01*
X-230314285Y-29983390D02*
X-230361904Y-29935771D01*
X-230361904Y-29935771D02*
X-230409523Y-29840533D01*
X-230409523Y-29840533D02*
X-230409523Y-29745295D01*
X-230409523Y-29745295D02*
X-230361904Y-29650057D01*
X-230361904Y-29650057D02*
X-230314285Y-29602438D01*
X-230314285Y-29602438D02*
X-230219047Y-29554819D01*
X-230219047Y-29554819D02*
X-229980952Y-29554819D01*
X-229980952Y-29554819D02*
X-229838095Y-29602438D01*
X-229504761Y-29554819D02*
X-229266666Y-30554819D01*
X-229266666Y-30554819D02*
X-229076190Y-29840533D01*
X-229076190Y-29840533D02*
X-228885714Y-30554819D01*
X-228885714Y-30554819D02*
X-228647619Y-29554819D01*
X-227742857Y-30554819D02*
X-228314285Y-30554819D01*
X-228028571Y-30554819D02*
X-228028571Y-29554819D01*
X-228028571Y-29554819D02*
X-228123809Y-29697676D01*
X-228123809Y-29697676D02*
X-228219047Y-29792914D01*
X-228219047Y-29792914D02*
X-228314285Y-29840533D01*
X-227123809Y-29554819D02*
X-227028571Y-29554819D01*
X-227028571Y-29554819D02*
X-226933333Y-29602438D01*
X-226933333Y-29602438D02*
X-226885714Y-29650057D01*
X-226885714Y-29650057D02*
X-226838095Y-29745295D01*
X-226838095Y-29745295D02*
X-226790476Y-29935771D01*
X-226790476Y-29935771D02*
X-226790476Y-30173866D01*
X-226790476Y-30173866D02*
X-226838095Y-30364342D01*
X-226838095Y-30364342D02*
X-226885714Y-30459580D01*
X-226885714Y-30459580D02*
X-226933333Y-30507200D01*
X-226933333Y-30507200D02*
X-227028571Y-30554819D01*
X-227028571Y-30554819D02*
X-227123809Y-30554819D01*
X-227123809Y-30554819D02*
X-227219047Y-30507200D01*
X-227219047Y-30507200D02*
X-227266666Y-30459580D01*
X-227266666Y-30459580D02*
X-227314285Y-30364342D01*
X-227314285Y-30364342D02*
X-227361904Y-30173866D01*
X-227361904Y-30173866D02*
X-227361904Y-29935771D01*
X-227361904Y-29935771D02*
X-227314285Y-29745295D01*
X-227314285Y-29745295D02*
X-227266666Y-29650057D01*
X-227266666Y-29650057D02*
X-227219047Y-29602438D01*
X-227219047Y-29602438D02*
X-227123809Y-29554819D01*
X-120872023Y-56700950D02*
X-120729166Y-56748569D01*
X-120729166Y-56748569D02*
X-120491071Y-56748569D01*
X-120491071Y-56748569D02*
X-120395833Y-56700950D01*
X-120395833Y-56700950D02*
X-120348214Y-56653330D01*
X-120348214Y-56653330D02*
X-120300595Y-56558092D01*
X-120300595Y-56558092D02*
X-120300595Y-56462854D01*
X-120300595Y-56462854D02*
X-120348214Y-56367616D01*
X-120348214Y-56367616D02*
X-120395833Y-56319997D01*
X-120395833Y-56319997D02*
X-120491071Y-56272378D01*
X-120491071Y-56272378D02*
X-120681547Y-56224759D01*
X-120681547Y-56224759D02*
X-120776785Y-56177140D01*
X-120776785Y-56177140D02*
X-120824404Y-56129521D01*
X-120824404Y-56129521D02*
X-120872023Y-56034283D01*
X-120872023Y-56034283D02*
X-120872023Y-55939045D01*
X-120872023Y-55939045D02*
X-120824404Y-55843807D01*
X-120824404Y-55843807D02*
X-120776785Y-55796188D01*
X-120776785Y-55796188D02*
X-120681547Y-55748569D01*
X-120681547Y-55748569D02*
X-120443452Y-55748569D01*
X-120443452Y-55748569D02*
X-120300595Y-55796188D01*
X-119967261Y-55748569D02*
X-119729166Y-56748569D01*
X-119729166Y-56748569D02*
X-119538690Y-56034283D01*
X-119538690Y-56034283D02*
X-119348214Y-56748569D01*
X-119348214Y-56748569D02*
X-119110119Y-55748569D01*
X-118300595Y-56081902D02*
X-118300595Y-56748569D01*
X-118538690Y-55700950D02*
X-118776785Y-56415235D01*
X-118776785Y-56415235D02*
X-118157738Y-56415235D01*
X-117872023Y-55748569D02*
X-117252976Y-55748569D01*
X-117252976Y-55748569D02*
X-117586309Y-56129521D01*
X-117586309Y-56129521D02*
X-117443452Y-56129521D01*
X-117443452Y-56129521D02*
X-117348214Y-56177140D01*
X-117348214Y-56177140D02*
X-117300595Y-56224759D01*
X-117300595Y-56224759D02*
X-117252976Y-56319997D01*
X-117252976Y-56319997D02*
X-117252976Y-56558092D01*
X-117252976Y-56558092D02*
X-117300595Y-56653330D01*
X-117300595Y-56653330D02*
X-117348214Y-56700950D01*
X-117348214Y-56700950D02*
X-117443452Y-56748569D01*
X-117443452Y-56748569D02*
X-117729166Y-56748569D01*
X-117729166Y-56748569D02*
X-117824404Y-56700950D01*
X-117824404Y-56700950D02*
X-117872023Y-56653330D01*
X-249459523Y-54319700D02*
X-249316666Y-54367319D01*
X-249316666Y-54367319D02*
X-249078571Y-54367319D01*
X-249078571Y-54367319D02*
X-248983333Y-54319700D01*
X-248983333Y-54319700D02*
X-248935714Y-54272080D01*
X-248935714Y-54272080D02*
X-248888095Y-54176842D01*
X-248888095Y-54176842D02*
X-248888095Y-54081604D01*
X-248888095Y-54081604D02*
X-248935714Y-53986366D01*
X-248935714Y-53986366D02*
X-248983333Y-53938747D01*
X-248983333Y-53938747D02*
X-249078571Y-53891128D01*
X-249078571Y-53891128D02*
X-249269047Y-53843509D01*
X-249269047Y-53843509D02*
X-249364285Y-53795890D01*
X-249364285Y-53795890D02*
X-249411904Y-53748271D01*
X-249411904Y-53748271D02*
X-249459523Y-53653033D01*
X-249459523Y-53653033D02*
X-249459523Y-53557795D01*
X-249459523Y-53557795D02*
X-249411904Y-53462557D01*
X-249411904Y-53462557D02*
X-249364285Y-53414938D01*
X-249364285Y-53414938D02*
X-249269047Y-53367319D01*
X-249269047Y-53367319D02*
X-249030952Y-53367319D01*
X-249030952Y-53367319D02*
X-248888095Y-53414938D01*
X-248554761Y-53367319D02*
X-248316666Y-54367319D01*
X-248316666Y-54367319D02*
X-248126190Y-53653033D01*
X-248126190Y-53653033D02*
X-247935714Y-54367319D01*
X-247935714Y-54367319D02*
X-247697619Y-53367319D01*
X-246792857Y-54367319D02*
X-247364285Y-54367319D01*
X-247078571Y-54367319D02*
X-247078571Y-53367319D01*
X-247078571Y-53367319D02*
X-247173809Y-53510176D01*
X-247173809Y-53510176D02*
X-247269047Y-53605414D01*
X-247269047Y-53605414D02*
X-247364285Y-53653033D01*
X-245888095Y-53367319D02*
X-246364285Y-53367319D01*
X-246364285Y-53367319D02*
X-246411904Y-53843509D01*
X-246411904Y-53843509D02*
X-246364285Y-53795890D01*
X-246364285Y-53795890D02*
X-246269047Y-53748271D01*
X-246269047Y-53748271D02*
X-246030952Y-53748271D01*
X-246030952Y-53748271D02*
X-245935714Y-53795890D01*
X-245935714Y-53795890D02*
X-245888095Y-53843509D01*
X-245888095Y-53843509D02*
X-245840476Y-53938747D01*
X-245840476Y-53938747D02*
X-245840476Y-54176842D01*
X-245840476Y-54176842D02*
X-245888095Y-54272080D01*
X-245888095Y-54272080D02*
X-245935714Y-54319700D01*
X-245935714Y-54319700D02*
X-246030952Y-54367319D01*
X-246030952Y-54367319D02*
X-246269047Y-54367319D01*
X-246269047Y-54367319D02*
X-246364285Y-54319700D01*
X-246364285Y-54319700D02*
X-246411904Y-54272080D01*
X-248983332Y-35269700D02*
X-248840475Y-35317319D01*
X-248840475Y-35317319D02*
X-248602380Y-35317319D01*
X-248602380Y-35317319D02*
X-248507142Y-35269700D01*
X-248507142Y-35269700D02*
X-248459523Y-35222080D01*
X-248459523Y-35222080D02*
X-248411904Y-35126842D01*
X-248411904Y-35126842D02*
X-248411904Y-35031604D01*
X-248411904Y-35031604D02*
X-248459523Y-34936366D01*
X-248459523Y-34936366D02*
X-248507142Y-34888747D01*
X-248507142Y-34888747D02*
X-248602380Y-34841128D01*
X-248602380Y-34841128D02*
X-248792856Y-34793509D01*
X-248792856Y-34793509D02*
X-248888094Y-34745890D01*
X-248888094Y-34745890D02*
X-248935713Y-34698271D01*
X-248935713Y-34698271D02*
X-248983332Y-34603033D01*
X-248983332Y-34603033D02*
X-248983332Y-34507795D01*
X-248983332Y-34507795D02*
X-248935713Y-34412557D01*
X-248935713Y-34412557D02*
X-248888094Y-34364938D01*
X-248888094Y-34364938D02*
X-248792856Y-34317319D01*
X-248792856Y-34317319D02*
X-248554761Y-34317319D01*
X-248554761Y-34317319D02*
X-248411904Y-34364938D01*
X-248078570Y-34317319D02*
X-247840475Y-35317319D01*
X-247840475Y-35317319D02*
X-247649999Y-34603033D01*
X-247649999Y-34603033D02*
X-247459523Y-35317319D01*
X-247459523Y-35317319D02*
X-247221428Y-34317319D01*
X-246792856Y-35317319D02*
X-246602380Y-35317319D01*
X-246602380Y-35317319D02*
X-246507142Y-35269700D01*
X-246507142Y-35269700D02*
X-246459523Y-35222080D01*
X-246459523Y-35222080D02*
X-246364285Y-35079223D01*
X-246364285Y-35079223D02*
X-246316666Y-34888747D01*
X-246316666Y-34888747D02*
X-246316666Y-34507795D01*
X-246316666Y-34507795D02*
X-246364285Y-34412557D01*
X-246364285Y-34412557D02*
X-246411904Y-34364938D01*
X-246411904Y-34364938D02*
X-246507142Y-34317319D01*
X-246507142Y-34317319D02*
X-246697618Y-34317319D01*
X-246697618Y-34317319D02*
X-246792856Y-34364938D01*
X-246792856Y-34364938D02*
X-246840475Y-34412557D01*
X-246840475Y-34412557D02*
X-246888094Y-34507795D01*
X-246888094Y-34507795D02*
X-246888094Y-34745890D01*
X-246888094Y-34745890D02*
X-246840475Y-34841128D01*
X-246840475Y-34841128D02*
X-246792856Y-34888747D01*
X-246792856Y-34888747D02*
X-246697618Y-34936366D01*
X-246697618Y-34936366D02*
X-246507142Y-34936366D01*
X-246507142Y-34936366D02*
X-246411904Y-34888747D01*
X-246411904Y-34888747D02*
X-246364285Y-34841128D01*
X-246364285Y-34841128D02*
X-246316666Y-34745890D01*
X-92297023Y-78132200D02*
X-92154166Y-78179819D01*
X-92154166Y-78179819D02*
X-91916071Y-78179819D01*
X-91916071Y-78179819D02*
X-91820833Y-78132200D01*
X-91820833Y-78132200D02*
X-91773214Y-78084580D01*
X-91773214Y-78084580D02*
X-91725595Y-77989342D01*
X-91725595Y-77989342D02*
X-91725595Y-77894104D01*
X-91725595Y-77894104D02*
X-91773214Y-77798866D01*
X-91773214Y-77798866D02*
X-91820833Y-77751247D01*
X-91820833Y-77751247D02*
X-91916071Y-77703628D01*
X-91916071Y-77703628D02*
X-92106547Y-77656009D01*
X-92106547Y-77656009D02*
X-92201785Y-77608390D01*
X-92201785Y-77608390D02*
X-92249404Y-77560771D01*
X-92249404Y-77560771D02*
X-92297023Y-77465533D01*
X-92297023Y-77465533D02*
X-92297023Y-77370295D01*
X-92297023Y-77370295D02*
X-92249404Y-77275057D01*
X-92249404Y-77275057D02*
X-92201785Y-77227438D01*
X-92201785Y-77227438D02*
X-92106547Y-77179819D01*
X-92106547Y-77179819D02*
X-91868452Y-77179819D01*
X-91868452Y-77179819D02*
X-91725595Y-77227438D01*
X-91392261Y-77179819D02*
X-91154166Y-78179819D01*
X-91154166Y-78179819D02*
X-90963690Y-77465533D01*
X-90963690Y-77465533D02*
X-90773214Y-78179819D01*
X-90773214Y-78179819D02*
X-90535119Y-77179819D01*
X-90249404Y-77179819D02*
X-89630357Y-77179819D01*
X-89630357Y-77179819D02*
X-89963690Y-77560771D01*
X-89963690Y-77560771D02*
X-89820833Y-77560771D01*
X-89820833Y-77560771D02*
X-89725595Y-77608390D01*
X-89725595Y-77608390D02*
X-89677976Y-77656009D01*
X-89677976Y-77656009D02*
X-89630357Y-77751247D01*
X-89630357Y-77751247D02*
X-89630357Y-77989342D01*
X-89630357Y-77989342D02*
X-89677976Y-78084580D01*
X-89677976Y-78084580D02*
X-89725595Y-78132200D01*
X-89725595Y-78132200D02*
X-89820833Y-78179819D01*
X-89820833Y-78179819D02*
X-90106547Y-78179819D01*
X-90106547Y-78179819D02*
X-90201785Y-78132200D01*
X-90201785Y-78132200D02*
X-90249404Y-78084580D01*
X-88773214Y-77179819D02*
X-88963690Y-77179819D01*
X-88963690Y-77179819D02*
X-89058928Y-77227438D01*
X-89058928Y-77227438D02*
X-89106547Y-77275057D01*
X-89106547Y-77275057D02*
X-89201785Y-77417914D01*
X-89201785Y-77417914D02*
X-89249404Y-77608390D01*
X-89249404Y-77608390D02*
X-89249404Y-77989342D01*
X-89249404Y-77989342D02*
X-89201785Y-78084580D01*
X-89201785Y-78084580D02*
X-89154166Y-78132200D01*
X-89154166Y-78132200D02*
X-89058928Y-78179819D01*
X-89058928Y-78179819D02*
X-88868452Y-78179819D01*
X-88868452Y-78179819D02*
X-88773214Y-78132200D01*
X-88773214Y-78132200D02*
X-88725595Y-78084580D01*
X-88725595Y-78084580D02*
X-88677976Y-77989342D01*
X-88677976Y-77989342D02*
X-88677976Y-77751247D01*
X-88677976Y-77751247D02*
X-88725595Y-77656009D01*
X-88725595Y-77656009D02*
X-88773214Y-77608390D01*
X-88773214Y-77608390D02*
X-88868452Y-77560771D01*
X-88868452Y-77560771D02*
X-89058928Y-77560771D01*
X-89058928Y-77560771D02*
X-89154166Y-77608390D01*
X-89154166Y-77608390D02*
X-89201785Y-77656009D01*
X-89201785Y-77656009D02*
X-89249404Y-77751247D01*
X-175014470Y-50778569D02*
X-175014470Y-51588092D01*
X-175014470Y-51588092D02*
X-174966851Y-51683330D01*
X-174966851Y-51683330D02*
X-174919232Y-51730950D01*
X-174919232Y-51730950D02*
X-174823994Y-51778569D01*
X-174823994Y-51778569D02*
X-174633518Y-51778569D01*
X-174633518Y-51778569D02*
X-174538280Y-51730950D01*
X-174538280Y-51730950D02*
X-174490661Y-51683330D01*
X-174490661Y-51683330D02*
X-174443042Y-51588092D01*
X-174443042Y-51588092D02*
X-174443042Y-50778569D01*
X-173443042Y-51778569D02*
X-174014470Y-51778569D01*
X-173728756Y-51778569D02*
X-173728756Y-50778569D01*
X-173728756Y-50778569D02*
X-173823994Y-50921426D01*
X-173823994Y-50921426D02*
X-173919232Y-51016664D01*
X-173919232Y-51016664D02*
X-174014470Y-51064283D01*
X-171640535Y-21671069D02*
X-172211963Y-21671069D01*
X-171926249Y-21671069D02*
X-171926249Y-20671069D01*
X-171926249Y-20671069D02*
X-172021487Y-20813926D01*
X-172021487Y-20813926D02*
X-172116725Y-20909164D01*
X-172116725Y-20909164D02*
X-172211963Y-20956783D01*
X-167473154Y-17753569D02*
X-167473154Y-18563092D01*
X-167473154Y-18563092D02*
X-167425535Y-18658330D01*
X-167425535Y-18658330D02*
X-167377916Y-18705950D01*
X-167377916Y-18705950D02*
X-167282678Y-18753569D01*
X-167282678Y-18753569D02*
X-167092202Y-18753569D01*
X-167092202Y-18753569D02*
X-166996964Y-18705950D01*
X-166996964Y-18705950D02*
X-166949345Y-18658330D01*
X-166949345Y-18658330D02*
X-166901726Y-18563092D01*
X-166901726Y-18563092D02*
X-166901726Y-17753569D01*
X-166473154Y-18705950D02*
X-166330297Y-18753569D01*
X-166330297Y-18753569D02*
X-166092202Y-18753569D01*
X-166092202Y-18753569D02*
X-165996964Y-18705950D01*
X-165996964Y-18705950D02*
X-165949345Y-18658330D01*
X-165949345Y-18658330D02*
X-165901726Y-18563092D01*
X-165901726Y-18563092D02*
X-165901726Y-18467854D01*
X-165901726Y-18467854D02*
X-165949345Y-18372616D01*
X-165949345Y-18372616D02*
X-165996964Y-18324997D01*
X-165996964Y-18324997D02*
X-166092202Y-18277378D01*
X-166092202Y-18277378D02*
X-166282678Y-18229759D01*
X-166282678Y-18229759D02*
X-166377916Y-18182140D01*
X-166377916Y-18182140D02*
X-166425535Y-18134521D01*
X-166425535Y-18134521D02*
X-166473154Y-18039283D01*
X-166473154Y-18039283D02*
X-166473154Y-17944045D01*
X-166473154Y-17944045D02*
X-166425535Y-17848807D01*
X-166425535Y-17848807D02*
X-166377916Y-17801188D01*
X-166377916Y-17801188D02*
X-166282678Y-17753569D01*
X-166282678Y-17753569D02*
X-166044583Y-17753569D01*
X-166044583Y-17753569D02*
X-165901726Y-17801188D01*
X-165139821Y-18229759D02*
X-164996964Y-18277378D01*
X-164996964Y-18277378D02*
X-164949345Y-18324997D01*
X-164949345Y-18324997D02*
X-164901726Y-18420235D01*
X-164901726Y-18420235D02*
X-164901726Y-18563092D01*
X-164901726Y-18563092D02*
X-164949345Y-18658330D01*
X-164949345Y-18658330D02*
X-164996964Y-18705950D01*
X-164996964Y-18705950D02*
X-165092202Y-18753569D01*
X-165092202Y-18753569D02*
X-165473154Y-18753569D01*
X-165473154Y-18753569D02*
X-165473154Y-17753569D01*
X-165473154Y-17753569D02*
X-165139821Y-17753569D01*
X-165139821Y-17753569D02*
X-165044583Y-17801188D01*
X-165044583Y-17801188D02*
X-164996964Y-17848807D01*
X-164996964Y-17848807D02*
X-164949345Y-17944045D01*
X-164949345Y-17944045D02*
X-164949345Y-18039283D01*
X-164949345Y-18039283D02*
X-164996964Y-18134521D01*
X-164996964Y-18134521D02*
X-165044583Y-18182140D01*
X-165044583Y-18182140D02*
X-165139821Y-18229759D01*
X-165139821Y-18229759D02*
X-165473154Y-18229759D01*
X-168830297Y-19486902D02*
X-168449345Y-19486902D01*
X-168687440Y-19153569D02*
X-168687440Y-20010711D01*
X-168687440Y-20010711D02*
X-168639821Y-20105950D01*
X-168639821Y-20105950D02*
X-168544583Y-20153569D01*
X-168544583Y-20153569D02*
X-168449345Y-20153569D01*
X-167973154Y-20153569D02*
X-168068392Y-20105950D01*
X-168068392Y-20105950D02*
X-168116011Y-20058330D01*
X-168116011Y-20058330D02*
X-168163630Y-19963092D01*
X-168163630Y-19963092D02*
X-168163630Y-19677378D01*
X-168163630Y-19677378D02*
X-168116011Y-19582140D01*
X-168116011Y-19582140D02*
X-168068392Y-19534521D01*
X-168068392Y-19534521D02*
X-167973154Y-19486902D01*
X-167973154Y-19486902D02*
X-167830297Y-19486902D01*
X-167830297Y-19486902D02*
X-167735059Y-19534521D01*
X-167735059Y-19534521D02*
X-167687440Y-19582140D01*
X-167687440Y-19582140D02*
X-167639821Y-19677378D01*
X-167639821Y-19677378D02*
X-167639821Y-19963092D01*
X-167639821Y-19963092D02*
X-167687440Y-20058330D01*
X-167687440Y-20058330D02*
X-167735059Y-20105950D01*
X-167735059Y-20105950D02*
X-167830297Y-20153569D01*
X-167830297Y-20153569D02*
X-167973154Y-20153569D01*
X-167211249Y-19486902D02*
X-167211249Y-20486902D01*
X-167211249Y-19534521D02*
X-167116011Y-19486902D01*
X-167116011Y-19486902D02*
X-166925535Y-19486902D01*
X-166925535Y-19486902D02*
X-166830297Y-19534521D01*
X-166830297Y-19534521D02*
X-166782678Y-19582140D01*
X-166782678Y-19582140D02*
X-166735059Y-19677378D01*
X-166735059Y-19677378D02*
X-166735059Y-19963092D01*
X-166735059Y-19963092D02*
X-166782678Y-20058330D01*
X-166782678Y-20058330D02*
X-166830297Y-20105950D01*
X-166830297Y-20105950D02*
X-166925535Y-20153569D01*
X-166925535Y-20153569D02*
X-167116011Y-20153569D01*
X-167116011Y-20153569D02*
X-167211249Y-20105950D01*
X-166354106Y-20105950D02*
X-166258868Y-20153569D01*
X-166258868Y-20153569D02*
X-166068392Y-20153569D01*
X-166068392Y-20153569D02*
X-165973154Y-20105950D01*
X-165973154Y-20105950D02*
X-165925535Y-20010711D01*
X-165925535Y-20010711D02*
X-165925535Y-19963092D01*
X-165925535Y-19963092D02*
X-165973154Y-19867854D01*
X-165973154Y-19867854D02*
X-166068392Y-19820235D01*
X-166068392Y-19820235D02*
X-166211249Y-19820235D01*
X-166211249Y-19820235D02*
X-166306487Y-19772616D01*
X-166306487Y-19772616D02*
X-166354106Y-19677378D01*
X-166354106Y-19677378D02*
X-166354106Y-19629759D01*
X-166354106Y-19629759D02*
X-166306487Y-19534521D01*
X-166306487Y-19534521D02*
X-166211249Y-19486902D01*
X-166211249Y-19486902D02*
X-166068392Y-19486902D01*
X-166068392Y-19486902D02*
X-165973154Y-19534521D01*
X-165496963Y-20153569D02*
X-165496963Y-19486902D01*
X-165496963Y-19153569D02*
X-165544582Y-19201188D01*
X-165544582Y-19201188D02*
X-165496963Y-19248807D01*
X-165496963Y-19248807D02*
X-165449344Y-19201188D01*
X-165449344Y-19201188D02*
X-165496963Y-19153569D01*
X-165496963Y-19153569D02*
X-165496963Y-19248807D01*
X-164592202Y-20153569D02*
X-164592202Y-19153569D01*
X-164592202Y-20105950D02*
X-164687440Y-20153569D01*
X-164687440Y-20153569D02*
X-164877916Y-20153569D01*
X-164877916Y-20153569D02*
X-164973154Y-20105950D01*
X-164973154Y-20105950D02*
X-165020773Y-20058330D01*
X-165020773Y-20058330D02*
X-165068392Y-19963092D01*
X-165068392Y-19963092D02*
X-165068392Y-19677378D01*
X-165068392Y-19677378D02*
X-165020773Y-19582140D01*
X-165020773Y-19582140D02*
X-164973154Y-19534521D01*
X-164973154Y-19534521D02*
X-164877916Y-19486902D01*
X-164877916Y-19486902D02*
X-164687440Y-19486902D01*
X-164687440Y-19486902D02*
X-164592202Y-19534521D01*
X-163735059Y-20105950D02*
X-163830297Y-20153569D01*
X-163830297Y-20153569D02*
X-164020773Y-20153569D01*
X-164020773Y-20153569D02*
X-164116011Y-20105950D01*
X-164116011Y-20105950D02*
X-164163630Y-20010711D01*
X-164163630Y-20010711D02*
X-164163630Y-19629759D01*
X-164163630Y-19629759D02*
X-164116011Y-19534521D01*
X-164116011Y-19534521D02*
X-164020773Y-19486902D01*
X-164020773Y-19486902D02*
X-163830297Y-19486902D01*
X-163830297Y-19486902D02*
X-163735059Y-19534521D01*
X-163735059Y-19534521D02*
X-163687440Y-19629759D01*
X-163687440Y-19629759D02*
X-163687440Y-19724997D01*
X-163687440Y-19724997D02*
X-164163630Y-19820235D01*
X-63722023Y-16219700D02*
X-63579166Y-16267319D01*
X-63579166Y-16267319D02*
X-63341071Y-16267319D01*
X-63341071Y-16267319D02*
X-63245833Y-16219700D01*
X-63245833Y-16219700D02*
X-63198214Y-16172080D01*
X-63198214Y-16172080D02*
X-63150595Y-16076842D01*
X-63150595Y-16076842D02*
X-63150595Y-15981604D01*
X-63150595Y-15981604D02*
X-63198214Y-15886366D01*
X-63198214Y-15886366D02*
X-63245833Y-15838747D01*
X-63245833Y-15838747D02*
X-63341071Y-15791128D01*
X-63341071Y-15791128D02*
X-63531547Y-15743509D01*
X-63531547Y-15743509D02*
X-63626785Y-15695890D01*
X-63626785Y-15695890D02*
X-63674404Y-15648271D01*
X-63674404Y-15648271D02*
X-63722023Y-15553033D01*
X-63722023Y-15553033D02*
X-63722023Y-15457795D01*
X-63722023Y-15457795D02*
X-63674404Y-15362557D01*
X-63674404Y-15362557D02*
X-63626785Y-15314938D01*
X-63626785Y-15314938D02*
X-63531547Y-15267319D01*
X-63531547Y-15267319D02*
X-63293452Y-15267319D01*
X-63293452Y-15267319D02*
X-63150595Y-15314938D01*
X-62817261Y-15267319D02*
X-62579166Y-16267319D01*
X-62579166Y-16267319D02*
X-62388690Y-15553033D01*
X-62388690Y-15553033D02*
X-62198214Y-16267319D01*
X-62198214Y-16267319D02*
X-61960119Y-15267319D01*
X-61674404Y-15267319D02*
X-61055357Y-15267319D01*
X-61055357Y-15267319D02*
X-61388690Y-15648271D01*
X-61388690Y-15648271D02*
X-61245833Y-15648271D01*
X-61245833Y-15648271D02*
X-61150595Y-15695890D01*
X-61150595Y-15695890D02*
X-61102976Y-15743509D01*
X-61102976Y-15743509D02*
X-61055357Y-15838747D01*
X-61055357Y-15838747D02*
X-61055357Y-16076842D01*
X-61055357Y-16076842D02*
X-61102976Y-16172080D01*
X-61102976Y-16172080D02*
X-61150595Y-16219700D01*
X-61150595Y-16219700D02*
X-61245833Y-16267319D01*
X-61245833Y-16267319D02*
X-61531547Y-16267319D01*
X-61531547Y-16267319D02*
X-61626785Y-16219700D01*
X-61626785Y-16219700D02*
X-61674404Y-16172080D01*
X-60436309Y-15267319D02*
X-60341071Y-15267319D01*
X-60341071Y-15267319D02*
X-60245833Y-15314938D01*
X-60245833Y-15314938D02*
X-60198214Y-15362557D01*
X-60198214Y-15362557D02*
X-60150595Y-15457795D01*
X-60150595Y-15457795D02*
X-60102976Y-15648271D01*
X-60102976Y-15648271D02*
X-60102976Y-15886366D01*
X-60102976Y-15886366D02*
X-60150595Y-16076842D01*
X-60150595Y-16076842D02*
X-60198214Y-16172080D01*
X-60198214Y-16172080D02*
X-60245833Y-16219700D01*
X-60245833Y-16219700D02*
X-60341071Y-16267319D01*
X-60341071Y-16267319D02*
X-60436309Y-16267319D01*
X-60436309Y-16267319D02*
X-60531547Y-16219700D01*
X-60531547Y-16219700D02*
X-60579166Y-16172080D01*
X-60579166Y-16172080D02*
X-60626785Y-16076842D01*
X-60626785Y-16076842D02*
X-60674404Y-15886366D01*
X-60674404Y-15886366D02*
X-60674404Y-15648271D01*
X-60674404Y-15648271D02*
X-60626785Y-15457795D01*
X-60626785Y-15457795D02*
X-60579166Y-15362557D01*
X-60579166Y-15362557D02*
X-60531547Y-15314938D01*
X-60531547Y-15314938D02*
X-60436309Y-15267319D01*
X-197832704Y-80075703D02*
X-197707040Y-80158674D01*
X-197707040Y-80158674D02*
X-197477057Y-80220297D01*
X-197477057Y-80220297D02*
X-197372740Y-80198950D01*
X-197372740Y-80198950D02*
X-197314419Y-80165279D01*
X-197314419Y-80165279D02*
X-197243773Y-80085610D01*
X-197243773Y-80085610D02*
X-197219123Y-79993618D01*
X-197219123Y-79993618D02*
X-197240470Y-79889300D01*
X-197240470Y-79889300D02*
X-197274142Y-79830979D01*
X-197274142Y-79830979D02*
X-197353810Y-79760333D01*
X-197353810Y-79760333D02*
X-197525471Y-79665037D01*
X-197525471Y-79665037D02*
X-197605140Y-79594392D01*
X-197605140Y-79594392D02*
X-197638811Y-79536070D01*
X-197638811Y-79536070D02*
X-197660158Y-79431753D01*
X-197660158Y-79431753D02*
X-197635509Y-79339760D01*
X-197635509Y-79339760D02*
X-197564863Y-79260092D01*
X-197564863Y-79260092D02*
X-197506542Y-79226420D01*
X-197506542Y-79226420D02*
X-197402224Y-79205073D01*
X-197402224Y-79205073D02*
X-197172242Y-79266696D01*
X-197172242Y-79266696D02*
X-197046577Y-79349667D01*
X-196712277Y-79389944D02*
X-196741114Y-80417493D01*
X-196741114Y-80417493D02*
X-196372257Y-79776845D01*
X-196372257Y-79776845D02*
X-196373142Y-80516091D01*
X-196373142Y-80516091D02*
X-195884341Y-79611788D01*
X-195587015Y-79790054D02*
X-195528694Y-79756383D01*
X-195528694Y-79756383D02*
X-195424376Y-79735036D01*
X-195424376Y-79735036D02*
X-195194394Y-79796659D01*
X-195194394Y-79796659D02*
X-195114726Y-79867305D01*
X-195114726Y-79867305D02*
X-195081054Y-79925626D01*
X-195081054Y-79925626D02*
X-195059707Y-80029944D01*
X-195059707Y-80029944D02*
X-195084356Y-80121937D01*
X-195084356Y-80121937D02*
X-195167327Y-80247602D01*
X-195167327Y-80247602D02*
X-195867181Y-80651663D01*
X-195867181Y-80651663D02*
X-195269227Y-80811884D01*
X-194349298Y-81058378D02*
X-194901255Y-80910482D01*
X-194625276Y-80984430D02*
X-194366457Y-80018504D01*
X-194366457Y-80018504D02*
X-194495424Y-80131844D01*
X-194495424Y-80131844D02*
X-194612067Y-80199188D01*
X-194612067Y-80199188D02*
X-194716384Y-80220535D01*
X-191833332Y-18600950D02*
X-191690475Y-18648569D01*
X-191690475Y-18648569D02*
X-191452380Y-18648569D01*
X-191452380Y-18648569D02*
X-191357142Y-18600950D01*
X-191357142Y-18600950D02*
X-191309523Y-18553330D01*
X-191309523Y-18553330D02*
X-191261904Y-18458092D01*
X-191261904Y-18458092D02*
X-191261904Y-18362854D01*
X-191261904Y-18362854D02*
X-191309523Y-18267616D01*
X-191309523Y-18267616D02*
X-191357142Y-18219997D01*
X-191357142Y-18219997D02*
X-191452380Y-18172378D01*
X-191452380Y-18172378D02*
X-191642856Y-18124759D01*
X-191642856Y-18124759D02*
X-191738094Y-18077140D01*
X-191738094Y-18077140D02*
X-191785713Y-18029521D01*
X-191785713Y-18029521D02*
X-191833332Y-17934283D01*
X-191833332Y-17934283D02*
X-191833332Y-17839045D01*
X-191833332Y-17839045D02*
X-191785713Y-17743807D01*
X-191785713Y-17743807D02*
X-191738094Y-17696188D01*
X-191738094Y-17696188D02*
X-191642856Y-17648569D01*
X-191642856Y-17648569D02*
X-191404761Y-17648569D01*
X-191404761Y-17648569D02*
X-191261904Y-17696188D01*
X-190928570Y-17648569D02*
X-190690475Y-18648569D01*
X-190690475Y-18648569D02*
X-190499999Y-17934283D01*
X-190499999Y-17934283D02*
X-190309523Y-18648569D01*
X-190309523Y-18648569D02*
X-190071428Y-17648569D01*
X-189261904Y-17648569D02*
X-189452380Y-17648569D01*
X-189452380Y-17648569D02*
X-189547618Y-17696188D01*
X-189547618Y-17696188D02*
X-189595237Y-17743807D01*
X-189595237Y-17743807D02*
X-189690475Y-17886664D01*
X-189690475Y-17886664D02*
X-189738094Y-18077140D01*
X-189738094Y-18077140D02*
X-189738094Y-18458092D01*
X-189738094Y-18458092D02*
X-189690475Y-18553330D01*
X-189690475Y-18553330D02*
X-189642856Y-18600950D01*
X-189642856Y-18600950D02*
X-189547618Y-18648569D01*
X-189547618Y-18648569D02*
X-189357142Y-18648569D01*
X-189357142Y-18648569D02*
X-189261904Y-18600950D01*
X-189261904Y-18600950D02*
X-189214285Y-18553330D01*
X-189214285Y-18553330D02*
X-189166666Y-18458092D01*
X-189166666Y-18458092D02*
X-189166666Y-18219997D01*
X-189166666Y-18219997D02*
X-189214285Y-18124759D01*
X-189214285Y-18124759D02*
X-189261904Y-18077140D01*
X-189261904Y-18077140D02*
X-189357142Y-18029521D01*
X-189357142Y-18029521D02*
X-189547618Y-18029521D01*
X-189547618Y-18029521D02*
X-189642856Y-18077140D01*
X-189642856Y-18077140D02*
X-189690475Y-18124759D01*
X-189690475Y-18124759D02*
X-189738094Y-18219997D01*
X-82772023Y-11457200D02*
X-82629166Y-11504819D01*
X-82629166Y-11504819D02*
X-82391071Y-11504819D01*
X-82391071Y-11504819D02*
X-82295833Y-11457200D01*
X-82295833Y-11457200D02*
X-82248214Y-11409580D01*
X-82248214Y-11409580D02*
X-82200595Y-11314342D01*
X-82200595Y-11314342D02*
X-82200595Y-11219104D01*
X-82200595Y-11219104D02*
X-82248214Y-11123866D01*
X-82248214Y-11123866D02*
X-82295833Y-11076247D01*
X-82295833Y-11076247D02*
X-82391071Y-11028628D01*
X-82391071Y-11028628D02*
X-82581547Y-10981009D01*
X-82581547Y-10981009D02*
X-82676785Y-10933390D01*
X-82676785Y-10933390D02*
X-82724404Y-10885771D01*
X-82724404Y-10885771D02*
X-82772023Y-10790533D01*
X-82772023Y-10790533D02*
X-82772023Y-10695295D01*
X-82772023Y-10695295D02*
X-82724404Y-10600057D01*
X-82724404Y-10600057D02*
X-82676785Y-10552438D01*
X-82676785Y-10552438D02*
X-82581547Y-10504819D01*
X-82581547Y-10504819D02*
X-82343452Y-10504819D01*
X-82343452Y-10504819D02*
X-82200595Y-10552438D01*
X-81867261Y-10504819D02*
X-81629166Y-11504819D01*
X-81629166Y-11504819D02*
X-81438690Y-10790533D01*
X-81438690Y-10790533D02*
X-81248214Y-11504819D01*
X-81248214Y-11504819D02*
X-81010119Y-10504819D01*
X-80724404Y-10504819D02*
X-80105357Y-10504819D01*
X-80105357Y-10504819D02*
X-80438690Y-10885771D01*
X-80438690Y-10885771D02*
X-80295833Y-10885771D01*
X-80295833Y-10885771D02*
X-80200595Y-10933390D01*
X-80200595Y-10933390D02*
X-80152976Y-10981009D01*
X-80152976Y-10981009D02*
X-80105357Y-11076247D01*
X-80105357Y-11076247D02*
X-80105357Y-11314342D01*
X-80105357Y-11314342D02*
X-80152976Y-11409580D01*
X-80152976Y-11409580D02*
X-80200595Y-11457200D01*
X-80200595Y-11457200D02*
X-80295833Y-11504819D01*
X-80295833Y-11504819D02*
X-80581547Y-11504819D01*
X-80581547Y-11504819D02*
X-80676785Y-11457200D01*
X-80676785Y-11457200D02*
X-80724404Y-11409580D01*
X-79772023Y-10504819D02*
X-79152976Y-10504819D01*
X-79152976Y-10504819D02*
X-79486309Y-10885771D01*
X-79486309Y-10885771D02*
X-79343452Y-10885771D01*
X-79343452Y-10885771D02*
X-79248214Y-10933390D01*
X-79248214Y-10933390D02*
X-79200595Y-10981009D01*
X-79200595Y-10981009D02*
X-79152976Y-11076247D01*
X-79152976Y-11076247D02*
X-79152976Y-11314342D01*
X-79152976Y-11314342D02*
X-79200595Y-11409580D01*
X-79200595Y-11409580D02*
X-79248214Y-11457200D01*
X-79248214Y-11457200D02*
X-79343452Y-11504819D01*
X-79343452Y-11504819D02*
X-79629166Y-11504819D01*
X-79629166Y-11504819D02*
X-79724404Y-11457200D01*
X-79724404Y-11457200D02*
X-79772023Y-11409580D01*
X-101822023Y-16219700D02*
X-101679166Y-16267319D01*
X-101679166Y-16267319D02*
X-101441071Y-16267319D01*
X-101441071Y-16267319D02*
X-101345833Y-16219700D01*
X-101345833Y-16219700D02*
X-101298214Y-16172080D01*
X-101298214Y-16172080D02*
X-101250595Y-16076842D01*
X-101250595Y-16076842D02*
X-101250595Y-15981604D01*
X-101250595Y-15981604D02*
X-101298214Y-15886366D01*
X-101298214Y-15886366D02*
X-101345833Y-15838747D01*
X-101345833Y-15838747D02*
X-101441071Y-15791128D01*
X-101441071Y-15791128D02*
X-101631547Y-15743509D01*
X-101631547Y-15743509D02*
X-101726785Y-15695890D01*
X-101726785Y-15695890D02*
X-101774404Y-15648271D01*
X-101774404Y-15648271D02*
X-101822023Y-15553033D01*
X-101822023Y-15553033D02*
X-101822023Y-15457795D01*
X-101822023Y-15457795D02*
X-101774404Y-15362557D01*
X-101774404Y-15362557D02*
X-101726785Y-15314938D01*
X-101726785Y-15314938D02*
X-101631547Y-15267319D01*
X-101631547Y-15267319D02*
X-101393452Y-15267319D01*
X-101393452Y-15267319D02*
X-101250595Y-15314938D01*
X-100917261Y-15267319D02*
X-100679166Y-16267319D01*
X-100679166Y-16267319D02*
X-100488690Y-15553033D01*
X-100488690Y-15553033D02*
X-100298214Y-16267319D01*
X-100298214Y-16267319D02*
X-100060119Y-15267319D01*
X-99774404Y-15267319D02*
X-99155357Y-15267319D01*
X-99155357Y-15267319D02*
X-99488690Y-15648271D01*
X-99488690Y-15648271D02*
X-99345833Y-15648271D01*
X-99345833Y-15648271D02*
X-99250595Y-15695890D01*
X-99250595Y-15695890D02*
X-99202976Y-15743509D01*
X-99202976Y-15743509D02*
X-99155357Y-15838747D01*
X-99155357Y-15838747D02*
X-99155357Y-16076842D01*
X-99155357Y-16076842D02*
X-99202976Y-16172080D01*
X-99202976Y-16172080D02*
X-99250595Y-16219700D01*
X-99250595Y-16219700D02*
X-99345833Y-16267319D01*
X-99345833Y-16267319D02*
X-99631547Y-16267319D01*
X-99631547Y-16267319D02*
X-99726785Y-16219700D01*
X-99726785Y-16219700D02*
X-99774404Y-16172080D01*
X-98822023Y-15267319D02*
X-98155357Y-15267319D01*
X-98155357Y-15267319D02*
X-98583928Y-16267319D01*
X-176681942Y-90119679D02*
X-176582034Y-90232347D01*
X-176582034Y-90232347D02*
X-176375837Y-90351395D01*
X-176375837Y-90351395D02*
X-176269549Y-90357774D01*
X-176269549Y-90357774D02*
X-176204500Y-90340345D01*
X-176204500Y-90340345D02*
X-176115642Y-90281676D01*
X-176115642Y-90281676D02*
X-176068023Y-90199197D01*
X-176068023Y-90199197D02*
X-176061643Y-90092909D01*
X-176061643Y-90092909D02*
X-176079073Y-90027860D01*
X-176079073Y-90027860D02*
X-176137742Y-89939002D01*
X-176137742Y-89939002D02*
X-176278890Y-89802524D01*
X-176278890Y-89802524D02*
X-176337559Y-89713666D01*
X-176337559Y-89713666D02*
X-176354988Y-89648617D01*
X-176354988Y-89648617D02*
X-176348609Y-89542329D01*
X-176348609Y-89542329D02*
X-176300990Y-89459850D01*
X-176300990Y-89459850D02*
X-176212131Y-89401181D01*
X-176212131Y-89401181D02*
X-176147083Y-89383751D01*
X-176147083Y-89383751D02*
X-176040794Y-89390131D01*
X-176040794Y-89390131D02*
X-175834598Y-89509179D01*
X-175834598Y-89509179D02*
X-175734689Y-89621847D01*
X-175422205Y-89747274D02*
X-175716008Y-90732347D01*
X-175716008Y-90732347D02*
X-175193908Y-90208996D01*
X-175193908Y-90208996D02*
X-175386094Y-90922823D01*
X-175386094Y-90922823D02*
X-174679897Y-90175845D01*
X-174438841Y-90424991D02*
X-174373792Y-90407561D01*
X-174373792Y-90407561D02*
X-174267504Y-90413941D01*
X-174267504Y-90413941D02*
X-174061308Y-90532988D01*
X-174061308Y-90532988D02*
X-174002639Y-90621847D01*
X-174002639Y-90621847D02*
X-173985209Y-90686895D01*
X-173985209Y-90686895D02*
X-173991589Y-90793184D01*
X-173991589Y-90793184D02*
X-174039208Y-90875662D01*
X-174039208Y-90875662D02*
X-174151876Y-90975571D01*
X-174151876Y-90975571D02*
X-174932462Y-91184728D01*
X-174932462Y-91184728D02*
X-174396351Y-91494252D01*
X-173614055Y-90901181D02*
X-173549006Y-90883751D01*
X-173549006Y-90883751D02*
X-173442718Y-90890131D01*
X-173442718Y-90890131D02*
X-173236522Y-91009179D01*
X-173236522Y-91009179D02*
X-173177853Y-91098037D01*
X-173177853Y-91098037D02*
X-173160423Y-91163086D01*
X-173160423Y-91163086D02*
X-173166803Y-91269374D01*
X-173166803Y-91269374D02*
X-173214422Y-91351853D01*
X-173214422Y-91351853D02*
X-173327089Y-91451761D01*
X-173327089Y-91451761D02*
X-174107675Y-91660918D01*
X-174107675Y-91660918D02*
X-173571564Y-91970442D01*
X-287083332Y-40032200D02*
X-286940475Y-40079819D01*
X-286940475Y-40079819D02*
X-286702380Y-40079819D01*
X-286702380Y-40079819D02*
X-286607142Y-40032200D01*
X-286607142Y-40032200D02*
X-286559523Y-39984580D01*
X-286559523Y-39984580D02*
X-286511904Y-39889342D01*
X-286511904Y-39889342D02*
X-286511904Y-39794104D01*
X-286511904Y-39794104D02*
X-286559523Y-39698866D01*
X-286559523Y-39698866D02*
X-286607142Y-39651247D01*
X-286607142Y-39651247D02*
X-286702380Y-39603628D01*
X-286702380Y-39603628D02*
X-286892856Y-39556009D01*
X-286892856Y-39556009D02*
X-286988094Y-39508390D01*
X-286988094Y-39508390D02*
X-287035713Y-39460771D01*
X-287035713Y-39460771D02*
X-287083332Y-39365533D01*
X-287083332Y-39365533D02*
X-287083332Y-39270295D01*
X-287083332Y-39270295D02*
X-287035713Y-39175057D01*
X-287035713Y-39175057D02*
X-286988094Y-39127438D01*
X-286988094Y-39127438D02*
X-286892856Y-39079819D01*
X-286892856Y-39079819D02*
X-286654761Y-39079819D01*
X-286654761Y-39079819D02*
X-286511904Y-39127438D01*
X-286178570Y-39079819D02*
X-285940475Y-40079819D01*
X-285940475Y-40079819D02*
X-285749999Y-39365533D01*
X-285749999Y-39365533D02*
X-285559523Y-40079819D01*
X-285559523Y-40079819D02*
X-285321428Y-39079819D01*
X-285035713Y-39079819D02*
X-284369047Y-39079819D01*
X-284369047Y-39079819D02*
X-284797618Y-40079819D01*
X-167354231Y-23500591D02*
X-166782803Y-23500591D01*
X-167068517Y-24500591D02*
X-167068517Y-23500591D01*
X-166449469Y-24500591D02*
X-166449469Y-23500591D01*
X-166449469Y-23500591D02*
X-166068517Y-23500591D01*
X-166068517Y-23500591D02*
X-165973279Y-23548210D01*
X-165973279Y-23548210D02*
X-165925660Y-23595829D01*
X-165925660Y-23595829D02*
X-165878041Y-23691067D01*
X-165878041Y-23691067D02*
X-165878041Y-23833924D01*
X-165878041Y-23833924D02*
X-165925660Y-23929162D01*
X-165925660Y-23929162D02*
X-165973279Y-23976781D01*
X-165973279Y-23976781D02*
X-166068517Y-24024400D01*
X-166068517Y-24024400D02*
X-166449469Y-24024400D01*
X-164925660Y-24500591D02*
X-165497088Y-24500591D01*
X-165211374Y-24500591D02*
X-165211374Y-23500591D01*
X-165211374Y-23500591D02*
X-165306612Y-23643448D01*
X-165306612Y-23643448D02*
X-165401850Y-23738686D01*
X-165401850Y-23738686D02*
X-165497088Y-23786305D01*
X-120872023Y-18600950D02*
X-120729166Y-18648569D01*
X-120729166Y-18648569D02*
X-120491071Y-18648569D01*
X-120491071Y-18648569D02*
X-120395833Y-18600950D01*
X-120395833Y-18600950D02*
X-120348214Y-18553330D01*
X-120348214Y-18553330D02*
X-120300595Y-18458092D01*
X-120300595Y-18458092D02*
X-120300595Y-18362854D01*
X-120300595Y-18362854D02*
X-120348214Y-18267616D01*
X-120348214Y-18267616D02*
X-120395833Y-18219997D01*
X-120395833Y-18219997D02*
X-120491071Y-18172378D01*
X-120491071Y-18172378D02*
X-120681547Y-18124759D01*
X-120681547Y-18124759D02*
X-120776785Y-18077140D01*
X-120776785Y-18077140D02*
X-120824404Y-18029521D01*
X-120824404Y-18029521D02*
X-120872023Y-17934283D01*
X-120872023Y-17934283D02*
X-120872023Y-17839045D01*
X-120872023Y-17839045D02*
X-120824404Y-17743807D01*
X-120824404Y-17743807D02*
X-120776785Y-17696188D01*
X-120776785Y-17696188D02*
X-120681547Y-17648569D01*
X-120681547Y-17648569D02*
X-120443452Y-17648569D01*
X-120443452Y-17648569D02*
X-120300595Y-17696188D01*
X-119967261Y-17648569D02*
X-119729166Y-18648569D01*
X-119729166Y-18648569D02*
X-119538690Y-17934283D01*
X-119538690Y-17934283D02*
X-119348214Y-18648569D01*
X-119348214Y-18648569D02*
X-119110119Y-17648569D01*
X-118300595Y-17981902D02*
X-118300595Y-18648569D01*
X-118538690Y-17600950D02*
X-118776785Y-18315235D01*
X-118776785Y-18315235D02*
X-118157738Y-18315235D01*
X-117252976Y-18648569D02*
X-117824404Y-18648569D01*
X-117538690Y-18648569D02*
X-117538690Y-17648569D01*
X-117538690Y-17648569D02*
X-117633928Y-17791426D01*
X-117633928Y-17791426D02*
X-117729166Y-17886664D01*
X-117729166Y-17886664D02*
X-117824404Y-17934283D01*
X-220884523Y-78132200D02*
X-220741666Y-78179819D01*
X-220741666Y-78179819D02*
X-220503571Y-78179819D01*
X-220503571Y-78179819D02*
X-220408333Y-78132200D01*
X-220408333Y-78132200D02*
X-220360714Y-78084580D01*
X-220360714Y-78084580D02*
X-220313095Y-77989342D01*
X-220313095Y-77989342D02*
X-220313095Y-77894104D01*
X-220313095Y-77894104D02*
X-220360714Y-77798866D01*
X-220360714Y-77798866D02*
X-220408333Y-77751247D01*
X-220408333Y-77751247D02*
X-220503571Y-77703628D01*
X-220503571Y-77703628D02*
X-220694047Y-77656009D01*
X-220694047Y-77656009D02*
X-220789285Y-77608390D01*
X-220789285Y-77608390D02*
X-220836904Y-77560771D01*
X-220836904Y-77560771D02*
X-220884523Y-77465533D01*
X-220884523Y-77465533D02*
X-220884523Y-77370295D01*
X-220884523Y-77370295D02*
X-220836904Y-77275057D01*
X-220836904Y-77275057D02*
X-220789285Y-77227438D01*
X-220789285Y-77227438D02*
X-220694047Y-77179819D01*
X-220694047Y-77179819D02*
X-220455952Y-77179819D01*
X-220455952Y-77179819D02*
X-220313095Y-77227438D01*
X-219979761Y-77179819D02*
X-219741666Y-78179819D01*
X-219741666Y-78179819D02*
X-219551190Y-77465533D01*
X-219551190Y-77465533D02*
X-219360714Y-78179819D01*
X-219360714Y-78179819D02*
X-219122619Y-77179819D01*
X-218789285Y-77275057D02*
X-218741666Y-77227438D01*
X-218741666Y-77227438D02*
X-218646428Y-77179819D01*
X-218646428Y-77179819D02*
X-218408333Y-77179819D01*
X-218408333Y-77179819D02*
X-218313095Y-77227438D01*
X-218313095Y-77227438D02*
X-218265476Y-77275057D01*
X-218265476Y-77275057D02*
X-218217857Y-77370295D01*
X-218217857Y-77370295D02*
X-218217857Y-77465533D01*
X-218217857Y-77465533D02*
X-218265476Y-77608390D01*
X-218265476Y-77608390D02*
X-218836904Y-78179819D01*
X-218836904Y-78179819D02*
X-218217857Y-78179819D01*
X-217598809Y-77179819D02*
X-217503571Y-77179819D01*
X-217503571Y-77179819D02*
X-217408333Y-77227438D01*
X-217408333Y-77227438D02*
X-217360714Y-77275057D01*
X-217360714Y-77275057D02*
X-217313095Y-77370295D01*
X-217313095Y-77370295D02*
X-217265476Y-77560771D01*
X-217265476Y-77560771D02*
X-217265476Y-77798866D01*
X-217265476Y-77798866D02*
X-217313095Y-77989342D01*
X-217313095Y-77989342D02*
X-217360714Y-78084580D01*
X-217360714Y-78084580D02*
X-217408333Y-78132200D01*
X-217408333Y-78132200D02*
X-217503571Y-78179819D01*
X-217503571Y-78179819D02*
X-217598809Y-78179819D01*
X-217598809Y-78179819D02*
X-217694047Y-78132200D01*
X-217694047Y-78132200D02*
X-217741666Y-78084580D01*
X-217741666Y-78084580D02*
X-217789285Y-77989342D01*
X-217789285Y-77989342D02*
X-217836904Y-77798866D01*
X-217836904Y-77798866D02*
X-217836904Y-77560771D01*
X-217836904Y-77560771D02*
X-217789285Y-77370295D01*
X-217789285Y-77370295D02*
X-217741666Y-77275057D01*
X-217741666Y-77275057D02*
X-217694047Y-77227438D01*
X-217694047Y-77227438D02*
X-217598809Y-77179819D01*
X-268509523Y-59082200D02*
X-268366666Y-59129819D01*
X-268366666Y-59129819D02*
X-268128571Y-59129819D01*
X-268128571Y-59129819D02*
X-268033333Y-59082200D01*
X-268033333Y-59082200D02*
X-267985714Y-59034580D01*
X-267985714Y-59034580D02*
X-267938095Y-58939342D01*
X-267938095Y-58939342D02*
X-267938095Y-58844104D01*
X-267938095Y-58844104D02*
X-267985714Y-58748866D01*
X-267985714Y-58748866D02*
X-268033333Y-58701247D01*
X-268033333Y-58701247D02*
X-268128571Y-58653628D01*
X-268128571Y-58653628D02*
X-268319047Y-58606009D01*
X-268319047Y-58606009D02*
X-268414285Y-58558390D01*
X-268414285Y-58558390D02*
X-268461904Y-58510771D01*
X-268461904Y-58510771D02*
X-268509523Y-58415533D01*
X-268509523Y-58415533D02*
X-268509523Y-58320295D01*
X-268509523Y-58320295D02*
X-268461904Y-58225057D01*
X-268461904Y-58225057D02*
X-268414285Y-58177438D01*
X-268414285Y-58177438D02*
X-268319047Y-58129819D01*
X-268319047Y-58129819D02*
X-268080952Y-58129819D01*
X-268080952Y-58129819D02*
X-267938095Y-58177438D01*
X-267604761Y-58129819D02*
X-267366666Y-59129819D01*
X-267366666Y-59129819D02*
X-267176190Y-58415533D01*
X-267176190Y-58415533D02*
X-266985714Y-59129819D01*
X-266985714Y-59129819D02*
X-266747619Y-58129819D01*
X-265842857Y-59129819D02*
X-266414285Y-59129819D01*
X-266128571Y-59129819D02*
X-266128571Y-58129819D01*
X-266128571Y-58129819D02*
X-266223809Y-58272676D01*
X-266223809Y-58272676D02*
X-266319047Y-58367914D01*
X-266319047Y-58367914D02*
X-266414285Y-58415533D01*
X-264985714Y-58463152D02*
X-264985714Y-59129819D01*
X-265223809Y-58082200D02*
X-265461904Y-58796485D01*
X-265461904Y-58796485D02*
X-264842857Y-58796485D01*
X-25622023Y-78132200D02*
X-25479166Y-78179819D01*
X-25479166Y-78179819D02*
X-25241071Y-78179819D01*
X-25241071Y-78179819D02*
X-25145833Y-78132200D01*
X-25145833Y-78132200D02*
X-25098214Y-78084580D01*
X-25098214Y-78084580D02*
X-25050595Y-77989342D01*
X-25050595Y-77989342D02*
X-25050595Y-77894104D01*
X-25050595Y-77894104D02*
X-25098214Y-77798866D01*
X-25098214Y-77798866D02*
X-25145833Y-77751247D01*
X-25145833Y-77751247D02*
X-25241071Y-77703628D01*
X-25241071Y-77703628D02*
X-25431547Y-77656009D01*
X-25431547Y-77656009D02*
X-25526785Y-77608390D01*
X-25526785Y-77608390D02*
X-25574404Y-77560771D01*
X-25574404Y-77560771D02*
X-25622023Y-77465533D01*
X-25622023Y-77465533D02*
X-25622023Y-77370295D01*
X-25622023Y-77370295D02*
X-25574404Y-77275057D01*
X-25574404Y-77275057D02*
X-25526785Y-77227438D01*
X-25526785Y-77227438D02*
X-25431547Y-77179819D01*
X-25431547Y-77179819D02*
X-25193452Y-77179819D01*
X-25193452Y-77179819D02*
X-25050595Y-77227438D01*
X-24717261Y-77179819D02*
X-24479166Y-78179819D01*
X-24479166Y-78179819D02*
X-24288690Y-77465533D01*
X-24288690Y-77465533D02*
X-24098214Y-78179819D01*
X-24098214Y-78179819D02*
X-23860119Y-77179819D01*
X-23526785Y-77275057D02*
X-23479166Y-77227438D01*
X-23479166Y-77227438D02*
X-23383928Y-77179819D01*
X-23383928Y-77179819D02*
X-23145833Y-77179819D01*
X-23145833Y-77179819D02*
X-23050595Y-77227438D01*
X-23050595Y-77227438D02*
X-23002976Y-77275057D01*
X-23002976Y-77275057D02*
X-22955357Y-77370295D01*
X-22955357Y-77370295D02*
X-22955357Y-77465533D01*
X-22955357Y-77465533D02*
X-23002976Y-77608390D01*
X-23002976Y-77608390D02*
X-23574404Y-78179819D01*
X-23574404Y-78179819D02*
X-22955357Y-78179819D01*
X-22098214Y-77179819D02*
X-22288690Y-77179819D01*
X-22288690Y-77179819D02*
X-22383928Y-77227438D01*
X-22383928Y-77227438D02*
X-22431547Y-77275057D01*
X-22431547Y-77275057D02*
X-22526785Y-77417914D01*
X-22526785Y-77417914D02*
X-22574404Y-77608390D01*
X-22574404Y-77608390D02*
X-22574404Y-77989342D01*
X-22574404Y-77989342D02*
X-22526785Y-78084580D01*
X-22526785Y-78084580D02*
X-22479166Y-78132200D01*
X-22479166Y-78132200D02*
X-22383928Y-78179819D01*
X-22383928Y-78179819D02*
X-22193452Y-78179819D01*
X-22193452Y-78179819D02*
X-22098214Y-78132200D01*
X-22098214Y-78132200D02*
X-22050595Y-78084580D01*
X-22050595Y-78084580D02*
X-22002976Y-77989342D01*
X-22002976Y-77989342D02*
X-22002976Y-77751247D01*
X-22002976Y-77751247D02*
X-22050595Y-77656009D01*
X-22050595Y-77656009D02*
X-22098214Y-77608390D01*
X-22098214Y-77608390D02*
X-22193452Y-77560771D01*
X-22193452Y-77560771D02*
X-22383928Y-77560771D01*
X-22383928Y-77560771D02*
X-22479166Y-77608390D01*
X-22479166Y-77608390D02*
X-22526785Y-77656009D01*
X-22526785Y-77656009D02*
X-22574404Y-77751247D01*
X-192309523Y-56700950D02*
X-192166666Y-56748569D01*
X-192166666Y-56748569D02*
X-191928571Y-56748569D01*
X-191928571Y-56748569D02*
X-191833333Y-56700950D01*
X-191833333Y-56700950D02*
X-191785714Y-56653330D01*
X-191785714Y-56653330D02*
X-191738095Y-56558092D01*
X-191738095Y-56558092D02*
X-191738095Y-56462854D01*
X-191738095Y-56462854D02*
X-191785714Y-56367616D01*
X-191785714Y-56367616D02*
X-191833333Y-56319997D01*
X-191833333Y-56319997D02*
X-191928571Y-56272378D01*
X-191928571Y-56272378D02*
X-192119047Y-56224759D01*
X-192119047Y-56224759D02*
X-192214285Y-56177140D01*
X-192214285Y-56177140D02*
X-192261904Y-56129521D01*
X-192261904Y-56129521D02*
X-192309523Y-56034283D01*
X-192309523Y-56034283D02*
X-192309523Y-55939045D01*
X-192309523Y-55939045D02*
X-192261904Y-55843807D01*
X-192261904Y-55843807D02*
X-192214285Y-55796188D01*
X-192214285Y-55796188D02*
X-192119047Y-55748569D01*
X-192119047Y-55748569D02*
X-191880952Y-55748569D01*
X-191880952Y-55748569D02*
X-191738095Y-55796188D01*
X-191404761Y-55748569D02*
X-191166666Y-56748569D01*
X-191166666Y-56748569D02*
X-190976190Y-56034283D01*
X-190976190Y-56034283D02*
X-190785714Y-56748569D01*
X-190785714Y-56748569D02*
X-190547619Y-55748569D01*
X-189642857Y-56748569D02*
X-190214285Y-56748569D01*
X-189928571Y-56748569D02*
X-189928571Y-55748569D01*
X-189928571Y-55748569D02*
X-190023809Y-55891426D01*
X-190023809Y-55891426D02*
X-190119047Y-55986664D01*
X-190119047Y-55986664D02*
X-190214285Y-56034283D01*
X-189071428Y-56177140D02*
X-189166666Y-56129521D01*
X-189166666Y-56129521D02*
X-189214285Y-56081902D01*
X-189214285Y-56081902D02*
X-189261904Y-55986664D01*
X-189261904Y-55986664D02*
X-189261904Y-55939045D01*
X-189261904Y-55939045D02*
X-189214285Y-55843807D01*
X-189214285Y-55843807D02*
X-189166666Y-55796188D01*
X-189166666Y-55796188D02*
X-189071428Y-55748569D01*
X-189071428Y-55748569D02*
X-188880952Y-55748569D01*
X-188880952Y-55748569D02*
X-188785714Y-55796188D01*
X-188785714Y-55796188D02*
X-188738095Y-55843807D01*
X-188738095Y-55843807D02*
X-188690476Y-55939045D01*
X-188690476Y-55939045D02*
X-188690476Y-55986664D01*
X-188690476Y-55986664D02*
X-188738095Y-56081902D01*
X-188738095Y-56081902D02*
X-188785714Y-56129521D01*
X-188785714Y-56129521D02*
X-188880952Y-56177140D01*
X-188880952Y-56177140D02*
X-189071428Y-56177140D01*
X-189071428Y-56177140D02*
X-189166666Y-56224759D01*
X-189166666Y-56224759D02*
X-189214285Y-56272378D01*
X-189214285Y-56272378D02*
X-189261904Y-56367616D01*
X-189261904Y-56367616D02*
X-189261904Y-56558092D01*
X-189261904Y-56558092D02*
X-189214285Y-56653330D01*
X-189214285Y-56653330D02*
X-189166666Y-56700950D01*
X-189166666Y-56700950D02*
X-189071428Y-56748569D01*
X-189071428Y-56748569D02*
X-188880952Y-56748569D01*
X-188880952Y-56748569D02*
X-188785714Y-56700950D01*
X-188785714Y-56700950D02*
X-188738095Y-56653330D01*
X-188738095Y-56653330D02*
X-188690476Y-56558092D01*
X-188690476Y-56558092D02*
X-188690476Y-56367616D01*
X-188690476Y-56367616D02*
X-188738095Y-56272378D01*
X-188738095Y-56272378D02*
X-188785714Y-56224759D01*
X-188785714Y-56224759D02*
X-188880952Y-56177140D01*
X-44672023Y-59082200D02*
X-44529166Y-59129819D01*
X-44529166Y-59129819D02*
X-44291071Y-59129819D01*
X-44291071Y-59129819D02*
X-44195833Y-59082200D01*
X-44195833Y-59082200D02*
X-44148214Y-59034580D01*
X-44148214Y-59034580D02*
X-44100595Y-58939342D01*
X-44100595Y-58939342D02*
X-44100595Y-58844104D01*
X-44100595Y-58844104D02*
X-44148214Y-58748866D01*
X-44148214Y-58748866D02*
X-44195833Y-58701247D01*
X-44195833Y-58701247D02*
X-44291071Y-58653628D01*
X-44291071Y-58653628D02*
X-44481547Y-58606009D01*
X-44481547Y-58606009D02*
X-44576785Y-58558390D01*
X-44576785Y-58558390D02*
X-44624404Y-58510771D01*
X-44624404Y-58510771D02*
X-44672023Y-58415533D01*
X-44672023Y-58415533D02*
X-44672023Y-58320295D01*
X-44672023Y-58320295D02*
X-44624404Y-58225057D01*
X-44624404Y-58225057D02*
X-44576785Y-58177438D01*
X-44576785Y-58177438D02*
X-44481547Y-58129819D01*
X-44481547Y-58129819D02*
X-44243452Y-58129819D01*
X-44243452Y-58129819D02*
X-44100595Y-58177438D01*
X-43767261Y-58129819D02*
X-43529166Y-59129819D01*
X-43529166Y-59129819D02*
X-43338690Y-58415533D01*
X-43338690Y-58415533D02*
X-43148214Y-59129819D01*
X-43148214Y-59129819D02*
X-42910119Y-58129819D01*
X-42576785Y-58225057D02*
X-42529166Y-58177438D01*
X-42529166Y-58177438D02*
X-42433928Y-58129819D01*
X-42433928Y-58129819D02*
X-42195833Y-58129819D01*
X-42195833Y-58129819D02*
X-42100595Y-58177438D01*
X-42100595Y-58177438D02*
X-42052976Y-58225057D01*
X-42052976Y-58225057D02*
X-42005357Y-58320295D01*
X-42005357Y-58320295D02*
X-42005357Y-58415533D01*
X-42005357Y-58415533D02*
X-42052976Y-58558390D01*
X-42052976Y-58558390D02*
X-42624404Y-59129819D01*
X-42624404Y-59129819D02*
X-42005357Y-59129819D01*
X-41529166Y-59129819D02*
X-41338690Y-59129819D01*
X-41338690Y-59129819D02*
X-41243452Y-59082200D01*
X-41243452Y-59082200D02*
X-41195833Y-59034580D01*
X-41195833Y-59034580D02*
X-41100595Y-58891723D01*
X-41100595Y-58891723D02*
X-41052976Y-58701247D01*
X-41052976Y-58701247D02*
X-41052976Y-58320295D01*
X-41052976Y-58320295D02*
X-41100595Y-58225057D01*
X-41100595Y-58225057D02*
X-41148214Y-58177438D01*
X-41148214Y-58177438D02*
X-41243452Y-58129819D01*
X-41243452Y-58129819D02*
X-41433928Y-58129819D01*
X-41433928Y-58129819D02*
X-41529166Y-58177438D01*
X-41529166Y-58177438D02*
X-41576785Y-58225057D01*
X-41576785Y-58225057D02*
X-41624404Y-58320295D01*
X-41624404Y-58320295D02*
X-41624404Y-58558390D01*
X-41624404Y-58558390D02*
X-41576785Y-58653628D01*
X-41576785Y-58653628D02*
X-41529166Y-58701247D01*
X-41529166Y-58701247D02*
X-41433928Y-58748866D01*
X-41433928Y-58748866D02*
X-41243452Y-58748866D01*
X-41243452Y-58748866D02*
X-41148214Y-58701247D01*
X-41148214Y-58701247D02*
X-41100595Y-58653628D01*
X-41100595Y-58653628D02*
X-41052976Y-58558390D01*
X-192309523Y-37650950D02*
X-192166666Y-37698569D01*
X-192166666Y-37698569D02*
X-191928571Y-37698569D01*
X-191928571Y-37698569D02*
X-191833333Y-37650950D01*
X-191833333Y-37650950D02*
X-191785714Y-37603330D01*
X-191785714Y-37603330D02*
X-191738095Y-37508092D01*
X-191738095Y-37508092D02*
X-191738095Y-37412854D01*
X-191738095Y-37412854D02*
X-191785714Y-37317616D01*
X-191785714Y-37317616D02*
X-191833333Y-37269997D01*
X-191833333Y-37269997D02*
X-191928571Y-37222378D01*
X-191928571Y-37222378D02*
X-192119047Y-37174759D01*
X-192119047Y-37174759D02*
X-192214285Y-37127140D01*
X-192214285Y-37127140D02*
X-192261904Y-37079521D01*
X-192261904Y-37079521D02*
X-192309523Y-36984283D01*
X-192309523Y-36984283D02*
X-192309523Y-36889045D01*
X-192309523Y-36889045D02*
X-192261904Y-36793807D01*
X-192261904Y-36793807D02*
X-192214285Y-36746188D01*
X-192214285Y-36746188D02*
X-192119047Y-36698569D01*
X-192119047Y-36698569D02*
X-191880952Y-36698569D01*
X-191880952Y-36698569D02*
X-191738095Y-36746188D01*
X-191404761Y-36698569D02*
X-191166666Y-37698569D01*
X-191166666Y-37698569D02*
X-190976190Y-36984283D01*
X-190976190Y-36984283D02*
X-190785714Y-37698569D01*
X-190785714Y-37698569D02*
X-190547619Y-36698569D01*
X-189642857Y-37698569D02*
X-190214285Y-37698569D01*
X-189928571Y-37698569D02*
X-189928571Y-36698569D01*
X-189928571Y-36698569D02*
X-190023809Y-36841426D01*
X-190023809Y-36841426D02*
X-190119047Y-36936664D01*
X-190119047Y-36936664D02*
X-190214285Y-36984283D01*
X-189261904Y-36793807D02*
X-189214285Y-36746188D01*
X-189214285Y-36746188D02*
X-189119047Y-36698569D01*
X-189119047Y-36698569D02*
X-188880952Y-36698569D01*
X-188880952Y-36698569D02*
X-188785714Y-36746188D01*
X-188785714Y-36746188D02*
X-188738095Y-36793807D01*
X-188738095Y-36793807D02*
X-188690476Y-36889045D01*
X-188690476Y-36889045D02*
X-188690476Y-36984283D01*
X-188690476Y-36984283D02*
X-188738095Y-37127140D01*
X-188738095Y-37127140D02*
X-189309523Y-37698569D01*
X-189309523Y-37698569D02*
X-188690476Y-37698569D01*
X-287559523Y-78132200D02*
X-287416666Y-78179819D01*
X-287416666Y-78179819D02*
X-287178571Y-78179819D01*
X-287178571Y-78179819D02*
X-287083333Y-78132200D01*
X-287083333Y-78132200D02*
X-287035714Y-78084580D01*
X-287035714Y-78084580D02*
X-286988095Y-77989342D01*
X-286988095Y-77989342D02*
X-286988095Y-77894104D01*
X-286988095Y-77894104D02*
X-287035714Y-77798866D01*
X-287035714Y-77798866D02*
X-287083333Y-77751247D01*
X-287083333Y-77751247D02*
X-287178571Y-77703628D01*
X-287178571Y-77703628D02*
X-287369047Y-77656009D01*
X-287369047Y-77656009D02*
X-287464285Y-77608390D01*
X-287464285Y-77608390D02*
X-287511904Y-77560771D01*
X-287511904Y-77560771D02*
X-287559523Y-77465533D01*
X-287559523Y-77465533D02*
X-287559523Y-77370295D01*
X-287559523Y-77370295D02*
X-287511904Y-77275057D01*
X-287511904Y-77275057D02*
X-287464285Y-77227438D01*
X-287464285Y-77227438D02*
X-287369047Y-77179819D01*
X-287369047Y-77179819D02*
X-287130952Y-77179819D01*
X-287130952Y-77179819D02*
X-286988095Y-77227438D01*
X-286654761Y-77179819D02*
X-286416666Y-78179819D01*
X-286416666Y-78179819D02*
X-286226190Y-77465533D01*
X-286226190Y-77465533D02*
X-286035714Y-78179819D01*
X-286035714Y-78179819D02*
X-285797619Y-77179819D01*
X-284892857Y-78179819D02*
X-285464285Y-78179819D01*
X-285178571Y-78179819D02*
X-285178571Y-77179819D01*
X-285178571Y-77179819D02*
X-285273809Y-77322676D01*
X-285273809Y-77322676D02*
X-285369047Y-77417914D01*
X-285369047Y-77417914D02*
X-285464285Y-77465533D01*
X-284416666Y-78179819D02*
X-284226190Y-78179819D01*
X-284226190Y-78179819D02*
X-284130952Y-78132200D01*
X-284130952Y-78132200D02*
X-284083333Y-78084580D01*
X-284083333Y-78084580D02*
X-283988095Y-77941723D01*
X-283988095Y-77941723D02*
X-283940476Y-77751247D01*
X-283940476Y-77751247D02*
X-283940476Y-77370295D01*
X-283940476Y-77370295D02*
X-283988095Y-77275057D01*
X-283988095Y-77275057D02*
X-284035714Y-77227438D01*
X-284035714Y-77227438D02*
X-284130952Y-77179819D01*
X-284130952Y-77179819D02*
X-284321428Y-77179819D01*
X-284321428Y-77179819D02*
X-284416666Y-77227438D01*
X-284416666Y-77227438D02*
X-284464285Y-77275057D01*
X-284464285Y-77275057D02*
X-284511904Y-77370295D01*
X-284511904Y-77370295D02*
X-284511904Y-77608390D01*
X-284511904Y-77608390D02*
X-284464285Y-77703628D01*
X-284464285Y-77703628D02*
X-284416666Y-77751247D01*
X-284416666Y-77751247D02*
X-284321428Y-77798866D01*
X-284321428Y-77798866D02*
X-284130952Y-77798866D01*
X-284130952Y-77798866D02*
X-284035714Y-77751247D01*
X-284035714Y-77751247D02*
X-283988095Y-77703628D01*
X-283988095Y-77703628D02*
X-283940476Y-77608390D01*
X-287083332Y-20982200D02*
X-286940475Y-21029819D01*
X-286940475Y-21029819D02*
X-286702380Y-21029819D01*
X-286702380Y-21029819D02*
X-286607142Y-20982200D01*
X-286607142Y-20982200D02*
X-286559523Y-20934580D01*
X-286559523Y-20934580D02*
X-286511904Y-20839342D01*
X-286511904Y-20839342D02*
X-286511904Y-20744104D01*
X-286511904Y-20744104D02*
X-286559523Y-20648866D01*
X-286559523Y-20648866D02*
X-286607142Y-20601247D01*
X-286607142Y-20601247D02*
X-286702380Y-20553628D01*
X-286702380Y-20553628D02*
X-286892856Y-20506009D01*
X-286892856Y-20506009D02*
X-286988094Y-20458390D01*
X-286988094Y-20458390D02*
X-287035713Y-20410771D01*
X-287035713Y-20410771D02*
X-287083332Y-20315533D01*
X-287083332Y-20315533D02*
X-287083332Y-20220295D01*
X-287083332Y-20220295D02*
X-287035713Y-20125057D01*
X-287035713Y-20125057D02*
X-286988094Y-20077438D01*
X-286988094Y-20077438D02*
X-286892856Y-20029819D01*
X-286892856Y-20029819D02*
X-286654761Y-20029819D01*
X-286654761Y-20029819D02*
X-286511904Y-20077438D01*
X-286178570Y-20029819D02*
X-285940475Y-21029819D01*
X-285940475Y-21029819D02*
X-285749999Y-20315533D01*
X-285749999Y-20315533D02*
X-285559523Y-21029819D01*
X-285559523Y-21029819D02*
X-285321428Y-20029819D01*
X-284416666Y-21029819D02*
X-284988094Y-21029819D01*
X-284702380Y-21029819D02*
X-284702380Y-20029819D01*
X-284702380Y-20029819D02*
X-284797618Y-20172676D01*
X-284797618Y-20172676D02*
X-284892856Y-20267914D01*
X-284892856Y-20267914D02*
X-284988094Y-20315533D01*
X-136745073Y-90736113D02*
X-136597546Y-90705924D01*
X-136597546Y-90705924D02*
X-136391349Y-90586876D01*
X-136391349Y-90586876D02*
X-136332680Y-90498018D01*
X-136332680Y-90498018D02*
X-136315250Y-90432969D01*
X-136315250Y-90432969D02*
X-136321630Y-90326681D01*
X-136321630Y-90326681D02*
X-136369249Y-90244202D01*
X-136369249Y-90244202D02*
X-136458107Y-90185533D01*
X-136458107Y-90185533D02*
X-136523156Y-90168103D01*
X-136523156Y-90168103D02*
X-136629444Y-90174483D01*
X-136629444Y-90174483D02*
X-136818211Y-90228482D01*
X-136818211Y-90228482D02*
X-136924499Y-90234862D01*
X-136924499Y-90234862D02*
X-136989548Y-90217432D01*
X-136989548Y-90217432D02*
X-137078406Y-90158763D01*
X-137078406Y-90158763D02*
X-137126025Y-90076284D01*
X-137126025Y-90076284D02*
X-137132405Y-89969996D01*
X-137132405Y-89969996D02*
X-137114975Y-89904947D01*
X-137114975Y-89904947D02*
X-137056306Y-89816089D01*
X-137056306Y-89816089D02*
X-136850110Y-89697041D01*
X-136850110Y-89697041D02*
X-136702582Y-89666852D01*
X-136437717Y-89458946D02*
X-135731520Y-90205924D01*
X-135731520Y-90205924D02*
X-135923706Y-89492096D01*
X-135923706Y-89492096D02*
X-135401606Y-90015447D01*
X-135401606Y-90015447D02*
X-135695409Y-89030374D01*
X-134827675Y-88914288D02*
X-134494341Y-89491638D01*
X-135224347Y-88703421D02*
X-135073401Y-89441058D01*
X-135073401Y-89441058D02*
X-134537290Y-89131534D01*
X-134002888Y-88438097D02*
X-133669555Y-89015448D01*
X-134399561Y-88227230D02*
X-134248615Y-88964868D01*
X-134248615Y-88964868D02*
X-133712504Y-88655344D01*
X-287559523Y-59082200D02*
X-287416666Y-59129819D01*
X-287416666Y-59129819D02*
X-287178571Y-59129819D01*
X-287178571Y-59129819D02*
X-287083333Y-59082200D01*
X-287083333Y-59082200D02*
X-287035714Y-59034580D01*
X-287035714Y-59034580D02*
X-286988095Y-58939342D01*
X-286988095Y-58939342D02*
X-286988095Y-58844104D01*
X-286988095Y-58844104D02*
X-287035714Y-58748866D01*
X-287035714Y-58748866D02*
X-287083333Y-58701247D01*
X-287083333Y-58701247D02*
X-287178571Y-58653628D01*
X-287178571Y-58653628D02*
X-287369047Y-58606009D01*
X-287369047Y-58606009D02*
X-287464285Y-58558390D01*
X-287464285Y-58558390D02*
X-287511904Y-58510771D01*
X-287511904Y-58510771D02*
X-287559523Y-58415533D01*
X-287559523Y-58415533D02*
X-287559523Y-58320295D01*
X-287559523Y-58320295D02*
X-287511904Y-58225057D01*
X-287511904Y-58225057D02*
X-287464285Y-58177438D01*
X-287464285Y-58177438D02*
X-287369047Y-58129819D01*
X-287369047Y-58129819D02*
X-287130952Y-58129819D01*
X-287130952Y-58129819D02*
X-286988095Y-58177438D01*
X-286654761Y-58129819D02*
X-286416666Y-59129819D01*
X-286416666Y-59129819D02*
X-286226190Y-58415533D01*
X-286226190Y-58415533D02*
X-286035714Y-59129819D01*
X-286035714Y-59129819D02*
X-285797619Y-58129819D01*
X-284892857Y-59129819D02*
X-285464285Y-59129819D01*
X-285178571Y-59129819D02*
X-285178571Y-58129819D01*
X-285178571Y-58129819D02*
X-285273809Y-58272676D01*
X-285273809Y-58272676D02*
X-285369047Y-58367914D01*
X-285369047Y-58367914D02*
X-285464285Y-58415533D01*
X-284559523Y-58129819D02*
X-283940476Y-58129819D01*
X-283940476Y-58129819D02*
X-284273809Y-58510771D01*
X-284273809Y-58510771D02*
X-284130952Y-58510771D01*
X-284130952Y-58510771D02*
X-284035714Y-58558390D01*
X-284035714Y-58558390D02*
X-283988095Y-58606009D01*
X-283988095Y-58606009D02*
X-283940476Y-58701247D01*
X-283940476Y-58701247D02*
X-283940476Y-58939342D01*
X-283940476Y-58939342D02*
X-283988095Y-59034580D01*
X-283988095Y-59034580D02*
X-284035714Y-59082200D01*
X-284035714Y-59082200D02*
X-284130952Y-59129819D01*
X-284130952Y-59129819D02*
X-284416666Y-59129819D01*
X-284416666Y-59129819D02*
X-284511904Y-59082200D01*
X-284511904Y-59082200D02*
X-284559523Y-59034580D01*
X-63722023Y-54319700D02*
X-63579166Y-54367319D01*
X-63579166Y-54367319D02*
X-63341071Y-54367319D01*
X-63341071Y-54367319D02*
X-63245833Y-54319700D01*
X-63245833Y-54319700D02*
X-63198214Y-54272080D01*
X-63198214Y-54272080D02*
X-63150595Y-54176842D01*
X-63150595Y-54176842D02*
X-63150595Y-54081604D01*
X-63150595Y-54081604D02*
X-63198214Y-53986366D01*
X-63198214Y-53986366D02*
X-63245833Y-53938747D01*
X-63245833Y-53938747D02*
X-63341071Y-53891128D01*
X-63341071Y-53891128D02*
X-63531547Y-53843509D01*
X-63531547Y-53843509D02*
X-63626785Y-53795890D01*
X-63626785Y-53795890D02*
X-63674404Y-53748271D01*
X-63674404Y-53748271D02*
X-63722023Y-53653033D01*
X-63722023Y-53653033D02*
X-63722023Y-53557795D01*
X-63722023Y-53557795D02*
X-63674404Y-53462557D01*
X-63674404Y-53462557D02*
X-63626785Y-53414938D01*
X-63626785Y-53414938D02*
X-63531547Y-53367319D01*
X-63531547Y-53367319D02*
X-63293452Y-53367319D01*
X-63293452Y-53367319D02*
X-63150595Y-53414938D01*
X-62817261Y-53367319D02*
X-62579166Y-54367319D01*
X-62579166Y-54367319D02*
X-62388690Y-53653033D01*
X-62388690Y-53653033D02*
X-62198214Y-54367319D01*
X-62198214Y-54367319D02*
X-61960119Y-53367319D01*
X-61674404Y-53367319D02*
X-61055357Y-53367319D01*
X-61055357Y-53367319D02*
X-61388690Y-53748271D01*
X-61388690Y-53748271D02*
X-61245833Y-53748271D01*
X-61245833Y-53748271D02*
X-61150595Y-53795890D01*
X-61150595Y-53795890D02*
X-61102976Y-53843509D01*
X-61102976Y-53843509D02*
X-61055357Y-53938747D01*
X-61055357Y-53938747D02*
X-61055357Y-54176842D01*
X-61055357Y-54176842D02*
X-61102976Y-54272080D01*
X-61102976Y-54272080D02*
X-61150595Y-54319700D01*
X-61150595Y-54319700D02*
X-61245833Y-54367319D01*
X-61245833Y-54367319D02*
X-61531547Y-54367319D01*
X-61531547Y-54367319D02*
X-61626785Y-54319700D01*
X-61626785Y-54319700D02*
X-61674404Y-54272080D01*
X-60674404Y-53462557D02*
X-60626785Y-53414938D01*
X-60626785Y-53414938D02*
X-60531547Y-53367319D01*
X-60531547Y-53367319D02*
X-60293452Y-53367319D01*
X-60293452Y-53367319D02*
X-60198214Y-53414938D01*
X-60198214Y-53414938D02*
X-60150595Y-53462557D01*
X-60150595Y-53462557D02*
X-60102976Y-53557795D01*
X-60102976Y-53557795D02*
X-60102976Y-53653033D01*
X-60102976Y-53653033D02*
X-60150595Y-53795890D01*
X-60150595Y-53795890D02*
X-60722023Y-54367319D01*
X-60722023Y-54367319D02*
X-60102976Y-54367319D01*
X-120872023Y-37650950D02*
X-120729166Y-37698569D01*
X-120729166Y-37698569D02*
X-120491071Y-37698569D01*
X-120491071Y-37698569D02*
X-120395833Y-37650950D01*
X-120395833Y-37650950D02*
X-120348214Y-37603330D01*
X-120348214Y-37603330D02*
X-120300595Y-37508092D01*
X-120300595Y-37508092D02*
X-120300595Y-37412854D01*
X-120300595Y-37412854D02*
X-120348214Y-37317616D01*
X-120348214Y-37317616D02*
X-120395833Y-37269997D01*
X-120395833Y-37269997D02*
X-120491071Y-37222378D01*
X-120491071Y-37222378D02*
X-120681547Y-37174759D01*
X-120681547Y-37174759D02*
X-120776785Y-37127140D01*
X-120776785Y-37127140D02*
X-120824404Y-37079521D01*
X-120824404Y-37079521D02*
X-120872023Y-36984283D01*
X-120872023Y-36984283D02*
X-120872023Y-36889045D01*
X-120872023Y-36889045D02*
X-120824404Y-36793807D01*
X-120824404Y-36793807D02*
X-120776785Y-36746188D01*
X-120776785Y-36746188D02*
X-120681547Y-36698569D01*
X-120681547Y-36698569D02*
X-120443452Y-36698569D01*
X-120443452Y-36698569D02*
X-120300595Y-36746188D01*
X-119967261Y-36698569D02*
X-119729166Y-37698569D01*
X-119729166Y-37698569D02*
X-119538690Y-36984283D01*
X-119538690Y-36984283D02*
X-119348214Y-37698569D01*
X-119348214Y-37698569D02*
X-119110119Y-36698569D01*
X-118300595Y-37031902D02*
X-118300595Y-37698569D01*
X-118538690Y-36650950D02*
X-118776785Y-37365235D01*
X-118776785Y-37365235D02*
X-118157738Y-37365235D01*
X-117824404Y-36793807D02*
X-117776785Y-36746188D01*
X-117776785Y-36746188D02*
X-117681547Y-36698569D01*
X-117681547Y-36698569D02*
X-117443452Y-36698569D01*
X-117443452Y-36698569D02*
X-117348214Y-36746188D01*
X-117348214Y-36746188D02*
X-117300595Y-36793807D01*
X-117300595Y-36793807D02*
X-117252976Y-36889045D01*
X-117252976Y-36889045D02*
X-117252976Y-36984283D01*
X-117252976Y-36984283D02*
X-117300595Y-37127140D01*
X-117300595Y-37127140D02*
X-117872023Y-37698569D01*
X-117872023Y-37698569D02*
X-117252976Y-37698569D01*
X-144732213Y-23500569D02*
X-144160785Y-23500569D01*
X-144446499Y-24500569D02*
X-144446499Y-23500569D01*
X-143827451Y-24500569D02*
X-143827451Y-23500569D01*
X-143827451Y-23500569D02*
X-143446499Y-23500569D01*
X-143446499Y-23500569D02*
X-143351261Y-23548188D01*
X-143351261Y-23548188D02*
X-143303642Y-23595807D01*
X-143303642Y-23595807D02*
X-143256023Y-23691045D01*
X-143256023Y-23691045D02*
X-143256023Y-23833902D01*
X-143256023Y-23833902D02*
X-143303642Y-23929140D01*
X-143303642Y-23929140D02*
X-143351261Y-23976759D01*
X-143351261Y-23976759D02*
X-143446499Y-24024378D01*
X-143446499Y-24024378D02*
X-143827451Y-24024378D01*
X-142922689Y-23500569D02*
X-142303642Y-23500569D01*
X-142303642Y-23500569D02*
X-142636975Y-23881521D01*
X-142636975Y-23881521D02*
X-142494118Y-23881521D01*
X-142494118Y-23881521D02*
X-142398880Y-23929140D01*
X-142398880Y-23929140D02*
X-142351261Y-23976759D01*
X-142351261Y-23976759D02*
X-142303642Y-24071997D01*
X-142303642Y-24071997D02*
X-142303642Y-24310092D01*
X-142303642Y-24310092D02*
X-142351261Y-24405330D01*
X-142351261Y-24405330D02*
X-142398880Y-24452950D01*
X-142398880Y-24452950D02*
X-142494118Y-24500569D01*
X-142494118Y-24500569D02*
X-142779832Y-24500569D01*
X-142779832Y-24500569D02*
X-142875070Y-24452950D01*
X-142875070Y-24452950D02*
X-142922689Y-24405330D01*
X-229933332Y-11457200D02*
X-229790475Y-11504819D01*
X-229790475Y-11504819D02*
X-229552380Y-11504819D01*
X-229552380Y-11504819D02*
X-229457142Y-11457200D01*
X-229457142Y-11457200D02*
X-229409523Y-11409580D01*
X-229409523Y-11409580D02*
X-229361904Y-11314342D01*
X-229361904Y-11314342D02*
X-229361904Y-11219104D01*
X-229361904Y-11219104D02*
X-229409523Y-11123866D01*
X-229409523Y-11123866D02*
X-229457142Y-11076247D01*
X-229457142Y-11076247D02*
X-229552380Y-11028628D01*
X-229552380Y-11028628D02*
X-229742856Y-10981009D01*
X-229742856Y-10981009D02*
X-229838094Y-10933390D01*
X-229838094Y-10933390D02*
X-229885713Y-10885771D01*
X-229885713Y-10885771D02*
X-229933332Y-10790533D01*
X-229933332Y-10790533D02*
X-229933332Y-10695295D01*
X-229933332Y-10695295D02*
X-229885713Y-10600057D01*
X-229885713Y-10600057D02*
X-229838094Y-10552438D01*
X-229838094Y-10552438D02*
X-229742856Y-10504819D01*
X-229742856Y-10504819D02*
X-229504761Y-10504819D01*
X-229504761Y-10504819D02*
X-229361904Y-10552438D01*
X-229028570Y-10504819D02*
X-228790475Y-11504819D01*
X-228790475Y-11504819D02*
X-228599999Y-10790533D01*
X-228599999Y-10790533D02*
X-228409523Y-11504819D01*
X-228409523Y-11504819D02*
X-228171428Y-10504819D01*
X-227361904Y-10838152D02*
X-227361904Y-11504819D01*
X-227599999Y-10457200D02*
X-227838094Y-11171485D01*
X-227838094Y-11171485D02*
X-227219047Y-11171485D01*
X-101822023Y-35269700D02*
X-101679166Y-35317319D01*
X-101679166Y-35317319D02*
X-101441071Y-35317319D01*
X-101441071Y-35317319D02*
X-101345833Y-35269700D01*
X-101345833Y-35269700D02*
X-101298214Y-35222080D01*
X-101298214Y-35222080D02*
X-101250595Y-35126842D01*
X-101250595Y-35126842D02*
X-101250595Y-35031604D01*
X-101250595Y-35031604D02*
X-101298214Y-34936366D01*
X-101298214Y-34936366D02*
X-101345833Y-34888747D01*
X-101345833Y-34888747D02*
X-101441071Y-34841128D01*
X-101441071Y-34841128D02*
X-101631547Y-34793509D01*
X-101631547Y-34793509D02*
X-101726785Y-34745890D01*
X-101726785Y-34745890D02*
X-101774404Y-34698271D01*
X-101774404Y-34698271D02*
X-101822023Y-34603033D01*
X-101822023Y-34603033D02*
X-101822023Y-34507795D01*
X-101822023Y-34507795D02*
X-101774404Y-34412557D01*
X-101774404Y-34412557D02*
X-101726785Y-34364938D01*
X-101726785Y-34364938D02*
X-101631547Y-34317319D01*
X-101631547Y-34317319D02*
X-101393452Y-34317319D01*
X-101393452Y-34317319D02*
X-101250595Y-34364938D01*
X-100917261Y-34317319D02*
X-100679166Y-35317319D01*
X-100679166Y-35317319D02*
X-100488690Y-34603033D01*
X-100488690Y-34603033D02*
X-100298214Y-35317319D01*
X-100298214Y-35317319D02*
X-100060119Y-34317319D01*
X-99774404Y-34317319D02*
X-99155357Y-34317319D01*
X-99155357Y-34317319D02*
X-99488690Y-34698271D01*
X-99488690Y-34698271D02*
X-99345833Y-34698271D01*
X-99345833Y-34698271D02*
X-99250595Y-34745890D01*
X-99250595Y-34745890D02*
X-99202976Y-34793509D01*
X-99202976Y-34793509D02*
X-99155357Y-34888747D01*
X-99155357Y-34888747D02*
X-99155357Y-35126842D01*
X-99155357Y-35126842D02*
X-99202976Y-35222080D01*
X-99202976Y-35222080D02*
X-99250595Y-35269700D01*
X-99250595Y-35269700D02*
X-99345833Y-35317319D01*
X-99345833Y-35317319D02*
X-99631547Y-35317319D01*
X-99631547Y-35317319D02*
X-99726785Y-35269700D01*
X-99726785Y-35269700D02*
X-99774404Y-35222080D01*
X-98583928Y-34745890D02*
X-98679166Y-34698271D01*
X-98679166Y-34698271D02*
X-98726785Y-34650652D01*
X-98726785Y-34650652D02*
X-98774404Y-34555414D01*
X-98774404Y-34555414D02*
X-98774404Y-34507795D01*
X-98774404Y-34507795D02*
X-98726785Y-34412557D01*
X-98726785Y-34412557D02*
X-98679166Y-34364938D01*
X-98679166Y-34364938D02*
X-98583928Y-34317319D01*
X-98583928Y-34317319D02*
X-98393452Y-34317319D01*
X-98393452Y-34317319D02*
X-98298214Y-34364938D01*
X-98298214Y-34364938D02*
X-98250595Y-34412557D01*
X-98250595Y-34412557D02*
X-98202976Y-34507795D01*
X-98202976Y-34507795D02*
X-98202976Y-34555414D01*
X-98202976Y-34555414D02*
X-98250595Y-34650652D01*
X-98250595Y-34650652D02*
X-98298214Y-34698271D01*
X-98298214Y-34698271D02*
X-98393452Y-34745890D01*
X-98393452Y-34745890D02*
X-98583928Y-34745890D01*
X-98583928Y-34745890D02*
X-98679166Y-34793509D01*
X-98679166Y-34793509D02*
X-98726785Y-34841128D01*
X-98726785Y-34841128D02*
X-98774404Y-34936366D01*
X-98774404Y-34936366D02*
X-98774404Y-35126842D01*
X-98774404Y-35126842D02*
X-98726785Y-35222080D01*
X-98726785Y-35222080D02*
X-98679166Y-35269700D01*
X-98679166Y-35269700D02*
X-98583928Y-35317319D01*
X-98583928Y-35317319D02*
X-98393452Y-35317319D01*
X-98393452Y-35317319D02*
X-98298214Y-35269700D01*
X-98298214Y-35269700D02*
X-98250595Y-35222080D01*
X-98250595Y-35222080D02*
X-98202976Y-35126842D01*
X-98202976Y-35126842D02*
X-98202976Y-34936366D01*
X-98202976Y-34936366D02*
X-98250595Y-34841128D01*
X-98250595Y-34841128D02*
X-98298214Y-34793509D01*
X-98298214Y-34793509D02*
X-98393452Y-34745890D01*
X-148399404Y-73504819D02*
X-148399404Y-72504819D01*
X-148399404Y-72981009D02*
X-147827976Y-72981009D01*
X-147827976Y-73504819D02*
X-147827976Y-72504819D01*
X-146923214Y-72838152D02*
X-146923214Y-73504819D01*
X-147161309Y-72457200D02*
X-147399404Y-73171485D01*
X-147399404Y-73171485D02*
X-146780357Y-73171485D01*
X-148899404Y-23500569D02*
X-148327976Y-23500569D01*
X-148613690Y-24500569D02*
X-148613690Y-23500569D01*
X-147994642Y-24500569D02*
X-147994642Y-23500569D01*
X-147994642Y-23500569D02*
X-147613690Y-23500569D01*
X-147613690Y-23500569D02*
X-147518452Y-23548188D01*
X-147518452Y-23548188D02*
X-147470833Y-23595807D01*
X-147470833Y-23595807D02*
X-147423214Y-23691045D01*
X-147423214Y-23691045D02*
X-147423214Y-23833902D01*
X-147423214Y-23833902D02*
X-147470833Y-23929140D01*
X-147470833Y-23929140D02*
X-147518452Y-23976759D01*
X-147518452Y-23976759D02*
X-147613690Y-24024378D01*
X-147613690Y-24024378D02*
X-147994642Y-24024378D01*
X-146566071Y-23833902D02*
X-146566071Y-24500569D01*
X-146804166Y-23452950D02*
X-147042261Y-24167235D01*
X-147042261Y-24167235D02*
X-146423214Y-24167235D01*
X-82772023Y-30507200D02*
X-82629166Y-30554819D01*
X-82629166Y-30554819D02*
X-82391071Y-30554819D01*
X-82391071Y-30554819D02*
X-82295833Y-30507200D01*
X-82295833Y-30507200D02*
X-82248214Y-30459580D01*
X-82248214Y-30459580D02*
X-82200595Y-30364342D01*
X-82200595Y-30364342D02*
X-82200595Y-30269104D01*
X-82200595Y-30269104D02*
X-82248214Y-30173866D01*
X-82248214Y-30173866D02*
X-82295833Y-30126247D01*
X-82295833Y-30126247D02*
X-82391071Y-30078628D01*
X-82391071Y-30078628D02*
X-82581547Y-30031009D01*
X-82581547Y-30031009D02*
X-82676785Y-29983390D01*
X-82676785Y-29983390D02*
X-82724404Y-29935771D01*
X-82724404Y-29935771D02*
X-82772023Y-29840533D01*
X-82772023Y-29840533D02*
X-82772023Y-29745295D01*
X-82772023Y-29745295D02*
X-82724404Y-29650057D01*
X-82724404Y-29650057D02*
X-82676785Y-29602438D01*
X-82676785Y-29602438D02*
X-82581547Y-29554819D01*
X-82581547Y-29554819D02*
X-82343452Y-29554819D01*
X-82343452Y-29554819D02*
X-82200595Y-29602438D01*
X-81867261Y-29554819D02*
X-81629166Y-30554819D01*
X-81629166Y-30554819D02*
X-81438690Y-29840533D01*
X-81438690Y-29840533D02*
X-81248214Y-30554819D01*
X-81248214Y-30554819D02*
X-81010119Y-29554819D01*
X-80724404Y-29554819D02*
X-80105357Y-29554819D01*
X-80105357Y-29554819D02*
X-80438690Y-29935771D01*
X-80438690Y-29935771D02*
X-80295833Y-29935771D01*
X-80295833Y-29935771D02*
X-80200595Y-29983390D01*
X-80200595Y-29983390D02*
X-80152976Y-30031009D01*
X-80152976Y-30031009D02*
X-80105357Y-30126247D01*
X-80105357Y-30126247D02*
X-80105357Y-30364342D01*
X-80105357Y-30364342D02*
X-80152976Y-30459580D01*
X-80152976Y-30459580D02*
X-80200595Y-30507200D01*
X-80200595Y-30507200D02*
X-80295833Y-30554819D01*
X-80295833Y-30554819D02*
X-80581547Y-30554819D01*
X-80581547Y-30554819D02*
X-80676785Y-30507200D01*
X-80676785Y-30507200D02*
X-80724404Y-30459580D01*
X-79248214Y-29888152D02*
X-79248214Y-30554819D01*
X-79486309Y-29507200D02*
X-79724404Y-30221485D01*
X-79724404Y-30221485D02*
X-79105357Y-30221485D01*
X-82772023Y-49557200D02*
X-82629166Y-49604819D01*
X-82629166Y-49604819D02*
X-82391071Y-49604819D01*
X-82391071Y-49604819D02*
X-82295833Y-49557200D01*
X-82295833Y-49557200D02*
X-82248214Y-49509580D01*
X-82248214Y-49509580D02*
X-82200595Y-49414342D01*
X-82200595Y-49414342D02*
X-82200595Y-49319104D01*
X-82200595Y-49319104D02*
X-82248214Y-49223866D01*
X-82248214Y-49223866D02*
X-82295833Y-49176247D01*
X-82295833Y-49176247D02*
X-82391071Y-49128628D01*
X-82391071Y-49128628D02*
X-82581547Y-49081009D01*
X-82581547Y-49081009D02*
X-82676785Y-49033390D01*
X-82676785Y-49033390D02*
X-82724404Y-48985771D01*
X-82724404Y-48985771D02*
X-82772023Y-48890533D01*
X-82772023Y-48890533D02*
X-82772023Y-48795295D01*
X-82772023Y-48795295D02*
X-82724404Y-48700057D01*
X-82724404Y-48700057D02*
X-82676785Y-48652438D01*
X-82676785Y-48652438D02*
X-82581547Y-48604819D01*
X-82581547Y-48604819D02*
X-82343452Y-48604819D01*
X-82343452Y-48604819D02*
X-82200595Y-48652438D01*
X-81867261Y-48604819D02*
X-81629166Y-49604819D01*
X-81629166Y-49604819D02*
X-81438690Y-48890533D01*
X-81438690Y-48890533D02*
X-81248214Y-49604819D01*
X-81248214Y-49604819D02*
X-81010119Y-48604819D01*
X-80724404Y-48604819D02*
X-80105357Y-48604819D01*
X-80105357Y-48604819D02*
X-80438690Y-48985771D01*
X-80438690Y-48985771D02*
X-80295833Y-48985771D01*
X-80295833Y-48985771D02*
X-80200595Y-49033390D01*
X-80200595Y-49033390D02*
X-80152976Y-49081009D01*
X-80152976Y-49081009D02*
X-80105357Y-49176247D01*
X-80105357Y-49176247D02*
X-80105357Y-49414342D01*
X-80105357Y-49414342D02*
X-80152976Y-49509580D01*
X-80152976Y-49509580D02*
X-80200595Y-49557200D01*
X-80200595Y-49557200D02*
X-80295833Y-49604819D01*
X-80295833Y-49604819D02*
X-80581547Y-49604819D01*
X-80581547Y-49604819D02*
X-80676785Y-49557200D01*
X-80676785Y-49557200D02*
X-80724404Y-49509580D01*
X-79200595Y-48604819D02*
X-79676785Y-48604819D01*
X-79676785Y-48604819D02*
X-79724404Y-49081009D01*
X-79724404Y-49081009D02*
X-79676785Y-49033390D01*
X-79676785Y-49033390D02*
X-79581547Y-48985771D01*
X-79581547Y-48985771D02*
X-79343452Y-48985771D01*
X-79343452Y-48985771D02*
X-79248214Y-49033390D01*
X-79248214Y-49033390D02*
X-79200595Y-49081009D01*
X-79200595Y-49081009D02*
X-79152976Y-49176247D01*
X-79152976Y-49176247D02*
X-79152976Y-49414342D01*
X-79152976Y-49414342D02*
X-79200595Y-49509580D01*
X-79200595Y-49509580D02*
X-79248214Y-49557200D01*
X-79248214Y-49557200D02*
X-79343452Y-49604819D01*
X-79343452Y-49604819D02*
X-79581547Y-49604819D01*
X-79581547Y-49604819D02*
X-79676785Y-49557200D01*
X-79676785Y-49557200D02*
X-79724404Y-49509580D01*
X-136493154Y-68742319D02*
X-136493154Y-67742319D01*
X-136493154Y-68218509D02*
X-135921726Y-68218509D01*
X-135921726Y-68742319D02*
X-135921726Y-67742319D01*
X-135540773Y-67742319D02*
X-134921726Y-67742319D01*
X-134921726Y-67742319D02*
X-135255059Y-68123271D01*
X-135255059Y-68123271D02*
X-135112202Y-68123271D01*
X-135112202Y-68123271D02*
X-135016964Y-68170890D01*
X-135016964Y-68170890D02*
X-134969345Y-68218509D01*
X-134969345Y-68218509D02*
X-134921726Y-68313747D01*
X-134921726Y-68313747D02*
X-134921726Y-68551842D01*
X-134921726Y-68551842D02*
X-134969345Y-68647080D01*
X-134969345Y-68647080D02*
X-135016964Y-68694700D01*
X-135016964Y-68694700D02*
X-135112202Y-68742319D01*
X-135112202Y-68742319D02*
X-135397916Y-68742319D01*
X-135397916Y-68742319D02*
X-135493154Y-68694700D01*
X-135493154Y-68694700D02*
X-135540773Y-68647080D01*
X-63722023Y-35269700D02*
X-63579166Y-35317319D01*
X-63579166Y-35317319D02*
X-63341071Y-35317319D01*
X-63341071Y-35317319D02*
X-63245833Y-35269700D01*
X-63245833Y-35269700D02*
X-63198214Y-35222080D01*
X-63198214Y-35222080D02*
X-63150595Y-35126842D01*
X-63150595Y-35126842D02*
X-63150595Y-35031604D01*
X-63150595Y-35031604D02*
X-63198214Y-34936366D01*
X-63198214Y-34936366D02*
X-63245833Y-34888747D01*
X-63245833Y-34888747D02*
X-63341071Y-34841128D01*
X-63341071Y-34841128D02*
X-63531547Y-34793509D01*
X-63531547Y-34793509D02*
X-63626785Y-34745890D01*
X-63626785Y-34745890D02*
X-63674404Y-34698271D01*
X-63674404Y-34698271D02*
X-63722023Y-34603033D01*
X-63722023Y-34603033D02*
X-63722023Y-34507795D01*
X-63722023Y-34507795D02*
X-63674404Y-34412557D01*
X-63674404Y-34412557D02*
X-63626785Y-34364938D01*
X-63626785Y-34364938D02*
X-63531547Y-34317319D01*
X-63531547Y-34317319D02*
X-63293452Y-34317319D01*
X-63293452Y-34317319D02*
X-63150595Y-34364938D01*
X-62817261Y-34317319D02*
X-62579166Y-35317319D01*
X-62579166Y-35317319D02*
X-62388690Y-34603033D01*
X-62388690Y-34603033D02*
X-62198214Y-35317319D01*
X-62198214Y-35317319D02*
X-61960119Y-34317319D01*
X-61674404Y-34317319D02*
X-61055357Y-34317319D01*
X-61055357Y-34317319D02*
X-61388690Y-34698271D01*
X-61388690Y-34698271D02*
X-61245833Y-34698271D01*
X-61245833Y-34698271D02*
X-61150595Y-34745890D01*
X-61150595Y-34745890D02*
X-61102976Y-34793509D01*
X-61102976Y-34793509D02*
X-61055357Y-34888747D01*
X-61055357Y-34888747D02*
X-61055357Y-35126842D01*
X-61055357Y-35126842D02*
X-61102976Y-35222080D01*
X-61102976Y-35222080D02*
X-61150595Y-35269700D01*
X-61150595Y-35269700D02*
X-61245833Y-35317319D01*
X-61245833Y-35317319D02*
X-61531547Y-35317319D01*
X-61531547Y-35317319D02*
X-61626785Y-35269700D01*
X-61626785Y-35269700D02*
X-61674404Y-35222080D01*
X-60102976Y-35317319D02*
X-60674404Y-35317319D01*
X-60388690Y-35317319D02*
X-60388690Y-34317319D01*
X-60388690Y-34317319D02*
X-60483928Y-34460176D01*
X-60483928Y-34460176D02*
X-60579166Y-34555414D01*
X-60579166Y-34555414D02*
X-60674404Y-34603033D01*
X-155245925Y-57617023D02*
X-155198305Y-57474166D01*
X-155198305Y-57474166D02*
X-155198305Y-57236071D01*
X-155198305Y-57236071D02*
X-155245925Y-57140833D01*
X-155245925Y-57140833D02*
X-155293544Y-57093214D01*
X-155293544Y-57093214D02*
X-155388782Y-57045595D01*
X-155388782Y-57045595D02*
X-155484020Y-57045595D01*
X-155484020Y-57045595D02*
X-155579258Y-57093214D01*
X-155579258Y-57093214D02*
X-155626877Y-57140833D01*
X-155626877Y-57140833D02*
X-155674496Y-57236071D01*
X-155674496Y-57236071D02*
X-155722115Y-57426547D01*
X-155722115Y-57426547D02*
X-155769734Y-57521785D01*
X-155769734Y-57521785D02*
X-155817353Y-57569404D01*
X-155817353Y-57569404D02*
X-155912591Y-57617023D01*
X-155912591Y-57617023D02*
X-156007829Y-57617023D01*
X-156007829Y-57617023D02*
X-156103067Y-57569404D01*
X-156103067Y-57569404D02*
X-156150686Y-57521785D01*
X-156150686Y-57521785D02*
X-156198305Y-57426547D01*
X-156198305Y-57426547D02*
X-156198305Y-57188452D01*
X-156198305Y-57188452D02*
X-156150686Y-57045595D01*
X-156198305Y-56712261D02*
X-155198305Y-56474166D01*
X-155198305Y-56474166D02*
X-155912591Y-56283690D01*
X-155912591Y-56283690D02*
X-155198305Y-56093214D01*
X-155198305Y-56093214D02*
X-156198305Y-55855119D01*
X-155864972Y-55045595D02*
X-155198305Y-55045595D01*
X-156245925Y-55283690D02*
X-155531639Y-55521785D01*
X-155531639Y-55521785D02*
X-155531639Y-54902738D01*
X-156198305Y-54093214D02*
X-156198305Y-54283690D01*
X-156198305Y-54283690D02*
X-156150686Y-54378928D01*
X-156150686Y-54378928D02*
X-156103067Y-54426547D01*
X-156103067Y-54426547D02*
X-155960210Y-54521785D01*
X-155960210Y-54521785D02*
X-155769734Y-54569404D01*
X-155769734Y-54569404D02*
X-155388782Y-54569404D01*
X-155388782Y-54569404D02*
X-155293544Y-54521785D01*
X-155293544Y-54521785D02*
X-155245925Y-54474166D01*
X-155245925Y-54474166D02*
X-155198305Y-54378928D01*
X-155198305Y-54378928D02*
X-155198305Y-54188452D01*
X-155198305Y-54188452D02*
X-155245925Y-54093214D01*
X-155245925Y-54093214D02*
X-155293544Y-54045595D01*
X-155293544Y-54045595D02*
X-155388782Y-53997976D01*
X-155388782Y-53997976D02*
X-155626877Y-53997976D01*
X-155626877Y-53997976D02*
X-155722115Y-54045595D01*
X-155722115Y-54045595D02*
X-155769734Y-54093214D01*
X-155769734Y-54093214D02*
X-155817353Y-54188452D01*
X-155817353Y-54188452D02*
X-155817353Y-54378928D01*
X-155817353Y-54378928D02*
X-155769734Y-54474166D01*
X-155769734Y-54474166D02*
X-155722115Y-54521785D01*
X-155722115Y-54521785D02*
X-155626877Y-54569404D01*
X-230409523Y-49557200D02*
X-230266666Y-49604819D01*
X-230266666Y-49604819D02*
X-230028571Y-49604819D01*
X-230028571Y-49604819D02*
X-229933333Y-49557200D01*
X-229933333Y-49557200D02*
X-229885714Y-49509580D01*
X-229885714Y-49509580D02*
X-229838095Y-49414342D01*
X-229838095Y-49414342D02*
X-229838095Y-49319104D01*
X-229838095Y-49319104D02*
X-229885714Y-49223866D01*
X-229885714Y-49223866D02*
X-229933333Y-49176247D01*
X-229933333Y-49176247D02*
X-230028571Y-49128628D01*
X-230028571Y-49128628D02*
X-230219047Y-49081009D01*
X-230219047Y-49081009D02*
X-230314285Y-49033390D01*
X-230314285Y-49033390D02*
X-230361904Y-48985771D01*
X-230361904Y-48985771D02*
X-230409523Y-48890533D01*
X-230409523Y-48890533D02*
X-230409523Y-48795295D01*
X-230409523Y-48795295D02*
X-230361904Y-48700057D01*
X-230361904Y-48700057D02*
X-230314285Y-48652438D01*
X-230314285Y-48652438D02*
X-230219047Y-48604819D01*
X-230219047Y-48604819D02*
X-229980952Y-48604819D01*
X-229980952Y-48604819D02*
X-229838095Y-48652438D01*
X-229504761Y-48604819D02*
X-229266666Y-49604819D01*
X-229266666Y-49604819D02*
X-229076190Y-48890533D01*
X-229076190Y-48890533D02*
X-228885714Y-49604819D01*
X-228885714Y-49604819D02*
X-228647619Y-48604819D01*
X-227742857Y-49604819D02*
X-228314285Y-49604819D01*
X-228028571Y-49604819D02*
X-228028571Y-48604819D01*
X-228028571Y-48604819D02*
X-228123809Y-48747676D01*
X-228123809Y-48747676D02*
X-228219047Y-48842914D01*
X-228219047Y-48842914D02*
X-228314285Y-48890533D01*
X-226885714Y-48604819D02*
X-227076190Y-48604819D01*
X-227076190Y-48604819D02*
X-227171428Y-48652438D01*
X-227171428Y-48652438D02*
X-227219047Y-48700057D01*
X-227219047Y-48700057D02*
X-227314285Y-48842914D01*
X-227314285Y-48842914D02*
X-227361904Y-49033390D01*
X-227361904Y-49033390D02*
X-227361904Y-49414342D01*
X-227361904Y-49414342D02*
X-227314285Y-49509580D01*
X-227314285Y-49509580D02*
X-227266666Y-49557200D01*
X-227266666Y-49557200D02*
X-227171428Y-49604819D01*
X-227171428Y-49604819D02*
X-226980952Y-49604819D01*
X-226980952Y-49604819D02*
X-226885714Y-49557200D01*
X-226885714Y-49557200D02*
X-226838095Y-49509580D01*
X-226838095Y-49509580D02*
X-226790476Y-49414342D01*
X-226790476Y-49414342D02*
X-226790476Y-49176247D01*
X-226790476Y-49176247D02*
X-226838095Y-49081009D01*
X-226838095Y-49081009D02*
X-226885714Y-49033390D01*
X-226885714Y-49033390D02*
X-226980952Y-48985771D01*
X-226980952Y-48985771D02*
X-227171428Y-48985771D01*
X-227171428Y-48985771D02*
X-227266666Y-49033390D01*
X-227266666Y-49033390D02*
X-227314285Y-49081009D01*
X-227314285Y-49081009D02*
X-227361904Y-49176247D01*
X-25622023Y-20982200D02*
X-25479166Y-21029819D01*
X-25479166Y-21029819D02*
X-25241071Y-21029819D01*
X-25241071Y-21029819D02*
X-25145833Y-20982200D01*
X-25145833Y-20982200D02*
X-25098214Y-20934580D01*
X-25098214Y-20934580D02*
X-25050595Y-20839342D01*
X-25050595Y-20839342D02*
X-25050595Y-20744104D01*
X-25050595Y-20744104D02*
X-25098214Y-20648866D01*
X-25098214Y-20648866D02*
X-25145833Y-20601247D01*
X-25145833Y-20601247D02*
X-25241071Y-20553628D01*
X-25241071Y-20553628D02*
X-25431547Y-20506009D01*
X-25431547Y-20506009D02*
X-25526785Y-20458390D01*
X-25526785Y-20458390D02*
X-25574404Y-20410771D01*
X-25574404Y-20410771D02*
X-25622023Y-20315533D01*
X-25622023Y-20315533D02*
X-25622023Y-20220295D01*
X-25622023Y-20220295D02*
X-25574404Y-20125057D01*
X-25574404Y-20125057D02*
X-25526785Y-20077438D01*
X-25526785Y-20077438D02*
X-25431547Y-20029819D01*
X-25431547Y-20029819D02*
X-25193452Y-20029819D01*
X-25193452Y-20029819D02*
X-25050595Y-20077438D01*
X-24717261Y-20029819D02*
X-24479166Y-21029819D01*
X-24479166Y-21029819D02*
X-24288690Y-20315533D01*
X-24288690Y-20315533D02*
X-24098214Y-21029819D01*
X-24098214Y-21029819D02*
X-23860119Y-20029819D01*
X-23526785Y-20125057D02*
X-23479166Y-20077438D01*
X-23479166Y-20077438D02*
X-23383928Y-20029819D01*
X-23383928Y-20029819D02*
X-23145833Y-20029819D01*
X-23145833Y-20029819D02*
X-23050595Y-20077438D01*
X-23050595Y-20077438D02*
X-23002976Y-20125057D01*
X-23002976Y-20125057D02*
X-22955357Y-20220295D01*
X-22955357Y-20220295D02*
X-22955357Y-20315533D01*
X-22955357Y-20315533D02*
X-23002976Y-20458390D01*
X-23002976Y-20458390D02*
X-23574404Y-21029819D01*
X-23574404Y-21029819D02*
X-22955357Y-21029819D01*
X-22622023Y-20029819D02*
X-22002976Y-20029819D01*
X-22002976Y-20029819D02*
X-22336309Y-20410771D01*
X-22336309Y-20410771D02*
X-22193452Y-20410771D01*
X-22193452Y-20410771D02*
X-22098214Y-20458390D01*
X-22098214Y-20458390D02*
X-22050595Y-20506009D01*
X-22050595Y-20506009D02*
X-22002976Y-20601247D01*
X-22002976Y-20601247D02*
X-22002976Y-20839342D01*
X-22002976Y-20839342D02*
X-22050595Y-20934580D01*
X-22050595Y-20934580D02*
X-22098214Y-20982200D01*
X-22098214Y-20982200D02*
X-22193452Y-21029819D01*
X-22193452Y-21029819D02*
X-22479166Y-21029819D01*
X-22479166Y-21029819D02*
X-22574404Y-20982200D01*
X-22574404Y-20982200D02*
X-22622023Y-20934580D01*
X-268033332Y-40032200D02*
X-267890475Y-40079819D01*
X-267890475Y-40079819D02*
X-267652380Y-40079819D01*
X-267652380Y-40079819D02*
X-267557142Y-40032200D01*
X-267557142Y-40032200D02*
X-267509523Y-39984580D01*
X-267509523Y-39984580D02*
X-267461904Y-39889342D01*
X-267461904Y-39889342D02*
X-267461904Y-39794104D01*
X-267461904Y-39794104D02*
X-267509523Y-39698866D01*
X-267509523Y-39698866D02*
X-267557142Y-39651247D01*
X-267557142Y-39651247D02*
X-267652380Y-39603628D01*
X-267652380Y-39603628D02*
X-267842856Y-39556009D01*
X-267842856Y-39556009D02*
X-267938094Y-39508390D01*
X-267938094Y-39508390D02*
X-267985713Y-39460771D01*
X-267985713Y-39460771D02*
X-268033332Y-39365533D01*
X-268033332Y-39365533D02*
X-268033332Y-39270295D01*
X-268033332Y-39270295D02*
X-267985713Y-39175057D01*
X-267985713Y-39175057D02*
X-267938094Y-39127438D01*
X-267938094Y-39127438D02*
X-267842856Y-39079819D01*
X-267842856Y-39079819D02*
X-267604761Y-39079819D01*
X-267604761Y-39079819D02*
X-267461904Y-39127438D01*
X-267128570Y-39079819D02*
X-266890475Y-40079819D01*
X-266890475Y-40079819D02*
X-266699999Y-39365533D01*
X-266699999Y-39365533D02*
X-266509523Y-40079819D01*
X-266509523Y-40079819D02*
X-266271428Y-39079819D01*
X-265747618Y-39508390D02*
X-265842856Y-39460771D01*
X-265842856Y-39460771D02*
X-265890475Y-39413152D01*
X-265890475Y-39413152D02*
X-265938094Y-39317914D01*
X-265938094Y-39317914D02*
X-265938094Y-39270295D01*
X-265938094Y-39270295D02*
X-265890475Y-39175057D01*
X-265890475Y-39175057D02*
X-265842856Y-39127438D01*
X-265842856Y-39127438D02*
X-265747618Y-39079819D01*
X-265747618Y-39079819D02*
X-265557142Y-39079819D01*
X-265557142Y-39079819D02*
X-265461904Y-39127438D01*
X-265461904Y-39127438D02*
X-265414285Y-39175057D01*
X-265414285Y-39175057D02*
X-265366666Y-39270295D01*
X-265366666Y-39270295D02*
X-265366666Y-39317914D01*
X-265366666Y-39317914D02*
X-265414285Y-39413152D01*
X-265414285Y-39413152D02*
X-265461904Y-39460771D01*
X-265461904Y-39460771D02*
X-265557142Y-39508390D01*
X-265557142Y-39508390D02*
X-265747618Y-39508390D01*
X-265747618Y-39508390D02*
X-265842856Y-39556009D01*
X-265842856Y-39556009D02*
X-265890475Y-39603628D01*
X-265890475Y-39603628D02*
X-265938094Y-39698866D01*
X-265938094Y-39698866D02*
X-265938094Y-39889342D01*
X-265938094Y-39889342D02*
X-265890475Y-39984580D01*
X-265890475Y-39984580D02*
X-265842856Y-40032200D01*
X-265842856Y-40032200D02*
X-265747618Y-40079819D01*
X-265747618Y-40079819D02*
X-265557142Y-40079819D01*
X-265557142Y-40079819D02*
X-265461904Y-40032200D01*
X-265461904Y-40032200D02*
X-265414285Y-39984580D01*
X-265414285Y-39984580D02*
X-265366666Y-39889342D01*
X-265366666Y-39889342D02*
X-265366666Y-39698866D01*
X-265366666Y-39698866D02*
X-265414285Y-39603628D01*
X-265414285Y-39603628D02*
X-265461904Y-39556009D01*
X-265461904Y-39556009D02*
X-265557142Y-39508390D01*
X-25622023Y-40032200D02*
X-25479166Y-40079819D01*
X-25479166Y-40079819D02*
X-25241071Y-40079819D01*
X-25241071Y-40079819D02*
X-25145833Y-40032200D01*
X-25145833Y-40032200D02*
X-25098214Y-39984580D01*
X-25098214Y-39984580D02*
X-25050595Y-39889342D01*
X-25050595Y-39889342D02*
X-25050595Y-39794104D01*
X-25050595Y-39794104D02*
X-25098214Y-39698866D01*
X-25098214Y-39698866D02*
X-25145833Y-39651247D01*
X-25145833Y-39651247D02*
X-25241071Y-39603628D01*
X-25241071Y-39603628D02*
X-25431547Y-39556009D01*
X-25431547Y-39556009D02*
X-25526785Y-39508390D01*
X-25526785Y-39508390D02*
X-25574404Y-39460771D01*
X-25574404Y-39460771D02*
X-25622023Y-39365533D01*
X-25622023Y-39365533D02*
X-25622023Y-39270295D01*
X-25622023Y-39270295D02*
X-25574404Y-39175057D01*
X-25574404Y-39175057D02*
X-25526785Y-39127438D01*
X-25526785Y-39127438D02*
X-25431547Y-39079819D01*
X-25431547Y-39079819D02*
X-25193452Y-39079819D01*
X-25193452Y-39079819D02*
X-25050595Y-39127438D01*
X-24717261Y-39079819D02*
X-24479166Y-40079819D01*
X-24479166Y-40079819D02*
X-24288690Y-39365533D01*
X-24288690Y-39365533D02*
X-24098214Y-40079819D01*
X-24098214Y-40079819D02*
X-23860119Y-39079819D01*
X-23526785Y-39175057D02*
X-23479166Y-39127438D01*
X-23479166Y-39127438D02*
X-23383928Y-39079819D01*
X-23383928Y-39079819D02*
X-23145833Y-39079819D01*
X-23145833Y-39079819D02*
X-23050595Y-39127438D01*
X-23050595Y-39127438D02*
X-23002976Y-39175057D01*
X-23002976Y-39175057D02*
X-22955357Y-39270295D01*
X-22955357Y-39270295D02*
X-22955357Y-39365533D01*
X-22955357Y-39365533D02*
X-23002976Y-39508390D01*
X-23002976Y-39508390D02*
X-23574404Y-40079819D01*
X-23574404Y-40079819D02*
X-22955357Y-40079819D01*
X-22098214Y-39413152D02*
X-22098214Y-40079819D01*
X-22336309Y-39032200D02*
X-22574404Y-39746485D01*
X-22574404Y-39746485D02*
X-21955357Y-39746485D01*
X-268033332Y-20982200D02*
X-267890475Y-21029819D01*
X-267890475Y-21029819D02*
X-267652380Y-21029819D01*
X-267652380Y-21029819D02*
X-267557142Y-20982200D01*
X-267557142Y-20982200D02*
X-267509523Y-20934580D01*
X-267509523Y-20934580D02*
X-267461904Y-20839342D01*
X-267461904Y-20839342D02*
X-267461904Y-20744104D01*
X-267461904Y-20744104D02*
X-267509523Y-20648866D01*
X-267509523Y-20648866D02*
X-267557142Y-20601247D01*
X-267557142Y-20601247D02*
X-267652380Y-20553628D01*
X-267652380Y-20553628D02*
X-267842856Y-20506009D01*
X-267842856Y-20506009D02*
X-267938094Y-20458390D01*
X-267938094Y-20458390D02*
X-267985713Y-20410771D01*
X-267985713Y-20410771D02*
X-268033332Y-20315533D01*
X-268033332Y-20315533D02*
X-268033332Y-20220295D01*
X-268033332Y-20220295D02*
X-267985713Y-20125057D01*
X-267985713Y-20125057D02*
X-267938094Y-20077438D01*
X-267938094Y-20077438D02*
X-267842856Y-20029819D01*
X-267842856Y-20029819D02*
X-267604761Y-20029819D01*
X-267604761Y-20029819D02*
X-267461904Y-20077438D01*
X-267128570Y-20029819D02*
X-266890475Y-21029819D01*
X-266890475Y-21029819D02*
X-266699999Y-20315533D01*
X-266699999Y-20315533D02*
X-266509523Y-21029819D01*
X-266509523Y-21029819D02*
X-266271428Y-20029819D01*
X-265938094Y-20125057D02*
X-265890475Y-20077438D01*
X-265890475Y-20077438D02*
X-265795237Y-20029819D01*
X-265795237Y-20029819D02*
X-265557142Y-20029819D01*
X-265557142Y-20029819D02*
X-265461904Y-20077438D01*
X-265461904Y-20077438D02*
X-265414285Y-20125057D01*
X-265414285Y-20125057D02*
X-265366666Y-20220295D01*
X-265366666Y-20220295D02*
X-265366666Y-20315533D01*
X-265366666Y-20315533D02*
X-265414285Y-20458390D01*
X-265414285Y-20458390D02*
X-265985713Y-21029819D01*
X-265985713Y-21029819D02*
X-265366666Y-21029819D01*
D12*
X-107112500Y-54812500D02*
X-107112500Y-69012500D01*
X-107112500Y-69012500D02*
X-92912500Y-69012500D01*
X-92912500Y-54812500D02*
X-107112500Y-54812500D01*
X-92912500Y-69012500D02*
X-92912500Y-54812500D01*
D11*
X-146901250Y-20883750D02*
X-146901250Y-17303750D01*
X-139801250Y-20883750D02*
X-146901250Y-20883750D01*
X-139801250Y-20883750D02*
X-139801250Y-17303750D01*
X-152241250Y-17303750D02*
X-134461250Y-17303750D01*
X-134461250Y-50323750D01*
X-152241250Y-50323750D01*
X-152241250Y-17303750D01*
D12*
X-216650000Y-54812500D02*
X-216650000Y-69012500D01*
X-216650000Y-69012500D02*
X-202450000Y-69012500D01*
X-202450000Y-54812500D02*
X-216650000Y-54812500D01*
X-202450000Y-69012500D02*
X-202450000Y-54812500D01*
X-153059375Y-52537500D02*
X-153059375Y-58737497D01*
X-152599374Y-58737500D02*
X-153059375Y-58737497D01*
X-152599372Y-52537501D02*
X-153059375Y-52537500D01*
X-149819377Y-52537498D02*
X-149819375Y-51537500D01*
X-149359375Y-52537500D02*
X-149819377Y-52537498D01*
X-149359374Y-58737501D02*
X-149819375Y-58737501D01*
X-149359374Y-58737501D02*
X-149359375Y-52537500D01*
X-150659377Y-54137503D02*
X-150659375Y-56987500D01*
X-151709375Y-56987500D01*
X-151709377Y-54137500D01*
X-150659377Y-54137503D01*
X-49962500Y-21475000D02*
X-49962500Y-35675000D01*
X-49962500Y-35675000D02*
X-35762500Y-35675000D01*
X-35762500Y-21475000D02*
X-49962500Y-21475000D01*
X-35762500Y-35675000D02*
X-35762500Y-21475000D01*
X-254750000Y-16712500D02*
X-254750000Y-30912500D01*
X-254750000Y-30912500D02*
X-240550000Y-30912500D01*
X-240550000Y-16712500D02*
X-254750000Y-16712500D01*
X-240550000Y-30912500D02*
X-240550000Y-16712500D01*
X-216650000Y-16712500D02*
X-216650000Y-30912500D01*
X-216650000Y-30912500D02*
X-202450000Y-30912500D01*
X-202450000Y-16712500D02*
X-216650000Y-16712500D01*
X-202450000Y-30912500D02*
X-202450000Y-16712500D01*
X-216650000Y-35762500D02*
X-216650000Y-49962500D01*
X-216650000Y-49962500D02*
X-202450000Y-49962500D01*
X-202450000Y-35762500D02*
X-216650000Y-35762500D01*
X-202450000Y-49962500D02*
X-202450000Y-35762500D01*
X-120211314Y-82857667D02*
X-116536083Y-96573814D01*
X-116536083Y-96573814D02*
X-102819936Y-92898583D01*
X-106495167Y-79182436D02*
X-120211314Y-82857667D01*
X-102819936Y-92898583D02*
X-106495167Y-79182436D01*
X-168809518Y-26193772D02*
G75*
G02*
X-171709518Y-26193772I-1450000J0D01*
G01*
X-171709518Y-26193772D02*
G75*
G02*
X-168809518Y-26193772I1450000J0D01*
G01*
X-30912500Y-59575000D02*
X-30912500Y-73775000D01*
X-30912500Y-73775000D02*
X-16712500Y-73775000D01*
X-16712500Y-59575000D02*
X-30912500Y-59575000D01*
X-16712500Y-73775000D02*
X-16712500Y-59575000D01*
X-235700000Y-31000000D02*
X-235700000Y-45200000D01*
X-235700000Y-45200000D02*
X-221500000Y-45200000D01*
X-221500000Y-31000000D02*
X-235700000Y-31000000D01*
X-221500000Y-45200000D02*
X-221500000Y-31000000D01*
X-126162500Y-57193750D02*
X-126162500Y-71393750D01*
X-126162500Y-71393750D02*
X-111962500Y-71393750D01*
X-111962500Y-57193750D02*
X-126162500Y-57193750D01*
X-111962500Y-71393750D02*
X-111962500Y-57193750D01*
X-254750000Y-54812500D02*
X-254750000Y-69012500D01*
X-254750000Y-69012500D02*
X-240550000Y-69012500D01*
X-240550000Y-54812500D02*
X-254750000Y-54812500D01*
X-240550000Y-69012500D02*
X-240550000Y-54812500D01*
X-254750000Y-35762500D02*
X-254750000Y-49962500D01*
X-254750000Y-49962500D02*
X-240550000Y-49962500D01*
X-240550000Y-35762500D02*
X-254750000Y-35762500D01*
X-240550000Y-49962500D02*
X-240550000Y-35762500D01*
D11*
X-171187500Y-17504703D02*
X-162187500Y-17504703D01*
X-171187500Y-21004703D02*
X-171187500Y-17504703D01*
X-162187500Y-17504703D02*
X-162187500Y-21004703D01*
X-162187500Y-21004703D02*
X-171187500Y-21004703D01*
D12*
X-97587500Y-78625000D02*
X-97587500Y-92825000D01*
X-97587500Y-92825000D02*
X-83387500Y-92825000D01*
X-83387500Y-78625000D02*
X-97587500Y-78625000D01*
X-83387500Y-92825000D02*
X-83387500Y-78625000D01*
D11*
X-169761250Y-20883750D02*
X-169761250Y-17303750D01*
X-162661250Y-20883750D02*
X-169761250Y-20883750D01*
X-162661250Y-20883750D02*
X-162661250Y-17303750D01*
X-175101250Y-17303750D02*
X-157321250Y-17303750D01*
X-157321250Y-50323750D01*
X-175101250Y-50323750D01*
X-175101250Y-17303750D01*
D12*
X-69012500Y-16712500D02*
X-69012500Y-30912500D01*
X-69012500Y-30912500D02*
X-54812500Y-30912500D01*
X-54812500Y-16712500D02*
X-69012500Y-16712500D01*
X-54812500Y-30912500D02*
X-54812500Y-16712500D01*
X-206745689Y-92898583D02*
X-193029542Y-96573814D01*
X-203070458Y-79182436D02*
X-206745689Y-92898583D01*
X-193029542Y-96573814D02*
X-189354311Y-82857667D01*
X-189354311Y-82857667D02*
X-203070458Y-79182436D01*
X-197600000Y-19093750D02*
X-197600000Y-33293750D01*
X-197600000Y-33293750D02*
X-183400000Y-33293750D01*
X-183400000Y-19093750D02*
X-197600000Y-19093750D01*
X-183400000Y-33293750D02*
X-183400000Y-19093750D01*
X-88062500Y-11950000D02*
X-88062500Y-26150000D01*
X-88062500Y-26150000D02*
X-73862500Y-26150000D01*
X-73862500Y-11950000D02*
X-88062500Y-11950000D01*
X-73862500Y-26150000D02*
X-73862500Y-11950000D01*
X-107112500Y-16712500D02*
X-107112500Y-30912500D01*
X-107112500Y-30912500D02*
X-92912500Y-30912500D01*
X-92912500Y-16712500D02*
X-107112500Y-16712500D01*
X-92912500Y-30912500D02*
X-92912500Y-16712500D01*
X-188610031Y-100198780D02*
X-176312470Y-107298781D01*
X-181510030Y-87901219D02*
X-188610031Y-100198780D01*
X-176312470Y-107298781D02*
X-169212469Y-95001220D01*
X-169212469Y-95001220D02*
X-181510030Y-87901219D01*
X-292850000Y-40525000D02*
X-292850000Y-54725000D01*
X-292850000Y-54725000D02*
X-278650000Y-54725000D01*
X-278650000Y-40525000D02*
X-292850000Y-40525000D01*
X-278650000Y-54725000D02*
X-278650000Y-40525000D01*
X-164642327Y-26193772D02*
G75*
G02*
X-167542327Y-26193772I-1450000J0D01*
G01*
X-167542327Y-26193772D02*
G75*
G02*
X-164642327Y-26193772I1450000J0D01*
G01*
X-126162500Y-19093750D02*
X-126162500Y-33293750D01*
X-126162500Y-33293750D02*
X-111962500Y-33293750D01*
X-111962500Y-19093750D02*
X-126162500Y-19093750D01*
X-111962500Y-33293750D02*
X-111962500Y-19093750D01*
X-226175000Y-78625000D02*
X-226175000Y-92825000D01*
X-226175000Y-92825000D02*
X-211975000Y-92825000D01*
X-211975000Y-78625000D02*
X-226175000Y-78625000D01*
X-211975000Y-92825000D02*
X-211975000Y-78625000D01*
X-273800000Y-59575000D02*
X-273800000Y-73775000D01*
X-273800000Y-73775000D02*
X-259600000Y-73775000D01*
X-259600000Y-59575000D02*
X-273800000Y-59575000D01*
X-259600000Y-73775000D02*
X-259600000Y-59575000D01*
X-30912500Y-78625000D02*
X-30912500Y-92825000D01*
X-30912500Y-92825000D02*
X-16712500Y-92825000D01*
X-16712500Y-78625000D02*
X-30912500Y-78625000D01*
X-16712500Y-92825000D02*
X-16712500Y-78625000D01*
X-197600000Y-57193750D02*
X-197600000Y-71393750D01*
X-197600000Y-71393750D02*
X-183400000Y-71393750D01*
X-183400000Y-57193750D02*
X-197600000Y-57193750D01*
X-183400000Y-71393750D02*
X-183400000Y-57193750D01*
X-49962500Y-59575000D02*
X-49962500Y-73775000D01*
X-49962500Y-73775000D02*
X-35762500Y-73775000D01*
X-35762500Y-59575000D02*
X-49962500Y-59575000D01*
X-35762500Y-73775000D02*
X-35762500Y-59575000D01*
X-197600000Y-38143750D02*
X-197600000Y-52343750D01*
X-197600000Y-52343750D02*
X-183400000Y-52343750D01*
X-183400000Y-38143750D02*
X-197600000Y-38143750D01*
X-183400000Y-52343750D02*
X-183400000Y-38143750D01*
X-292850000Y-78625000D02*
X-292850000Y-92825000D01*
X-292850000Y-92825000D02*
X-278650000Y-92825000D01*
X-278650000Y-78625000D02*
X-292850000Y-78625000D01*
X-278650000Y-92825000D02*
X-278650000Y-78625000D01*
X-292850000Y-21475000D02*
X-292850000Y-35675000D01*
X-292850000Y-35675000D02*
X-278650000Y-35675000D01*
X-278650000Y-21475000D02*
X-292850000Y-21475000D01*
X-278650000Y-35675000D02*
X-278650000Y-21475000D01*
D11*
X-147375000Y-17504703D02*
X-138375000Y-17504703D01*
X-147375000Y-21004703D02*
X-147375000Y-17504703D01*
X-138375000Y-17504703D02*
X-138375000Y-21004703D01*
X-138375000Y-21004703D02*
X-147375000Y-21004703D01*
D12*
X-49962500Y-40525000D02*
X-49962500Y-54725000D01*
X-49962500Y-54725000D02*
X-35762500Y-54725000D01*
X-35762500Y-40525000D02*
X-49962500Y-40525000D01*
X-35762500Y-54725000D02*
X-35762500Y-40525000D01*
X-141080361Y-93808130D02*
X-133980360Y-106105691D01*
X-133980360Y-106105691D02*
X-121682799Y-99005690D01*
X-128782800Y-86708129D02*
X-141080361Y-93808130D01*
X-121682799Y-99005690D02*
X-128782800Y-86708129D01*
X-292850000Y-59575000D02*
X-292850000Y-73775000D01*
X-292850000Y-73775000D02*
X-278650000Y-73775000D01*
X-278650000Y-59575000D02*
X-292850000Y-59575000D01*
X-278650000Y-73775000D02*
X-278650000Y-59575000D01*
X-69012500Y-54812500D02*
X-69012500Y-69012500D01*
X-69012500Y-69012500D02*
X-54812500Y-69012500D01*
X-54812500Y-54812500D02*
X-69012500Y-54812500D01*
X-54812500Y-69012500D02*
X-54812500Y-54812500D01*
X-126162500Y-38143750D02*
X-126162500Y-52343750D01*
X-126162500Y-52343750D02*
X-111962500Y-52343750D01*
X-111962500Y-38143750D02*
X-126162500Y-38143750D01*
X-111962500Y-52343750D02*
X-111962500Y-38143750D01*
X-142020309Y-26193750D02*
G75*
G02*
X-144920309Y-26193750I-1450000J0D01*
G01*
X-144920309Y-26193750D02*
G75*
G02*
X-142020309Y-26193750I1450000J0D01*
G01*
X-235700000Y-11950000D02*
X-235700000Y-26150000D01*
X-235700000Y-26150000D02*
X-221500000Y-26150000D01*
X-221500000Y-11950000D02*
X-235700000Y-11950000D01*
X-221500000Y-26150000D02*
X-221500000Y-11950000D01*
X-107112500Y-35762500D02*
X-107112500Y-49962500D01*
X-107112500Y-49962500D02*
X-92912500Y-49962500D01*
X-92912500Y-35762500D02*
X-107112500Y-35762500D01*
X-92912500Y-49962500D02*
X-92912500Y-35762500D01*
X-146187500Y-26193750D02*
G75*
G02*
X-149087500Y-26193750I-1450000J0D01*
G01*
X-149087500Y-26193750D02*
G75*
G02*
X-146187500Y-26193750I1450000J0D01*
G01*
X-88062500Y-31000000D02*
X-88062500Y-45200000D01*
X-88062500Y-45200000D02*
X-73862500Y-45200000D01*
X-73862500Y-31000000D02*
X-88062500Y-31000000D01*
X-73862500Y-45200000D02*
X-73862500Y-31000000D01*
X-88062500Y-50050000D02*
X-88062500Y-64250000D01*
X-88062500Y-64250000D02*
X-73862500Y-64250000D01*
X-73862500Y-50050000D02*
X-88062500Y-50050000D01*
X-73862500Y-64250000D02*
X-73862500Y-50050000D01*
X-69012500Y-35762500D02*
X-69012500Y-49962500D01*
X-69012500Y-49962500D02*
X-54812500Y-49962500D01*
X-54812500Y-35762500D02*
X-69012500Y-35762500D01*
X-54812500Y-49962500D02*
X-54812500Y-35762500D01*
X-160203125Y-52537500D02*
X-160203125Y-58737497D01*
X-159743124Y-58737500D02*
X-160203125Y-58737497D01*
X-159743122Y-52537501D02*
X-160203125Y-52537500D01*
X-156963127Y-52537498D02*
X-156963125Y-51537500D01*
X-156503125Y-52537500D02*
X-156963127Y-52537498D01*
X-156503124Y-58737501D02*
X-156963125Y-58737501D01*
X-156503124Y-58737501D02*
X-156503125Y-52537500D01*
X-157803127Y-54137503D02*
X-157803125Y-56987500D01*
X-158853125Y-56987500D01*
X-158853127Y-54137500D01*
X-157803127Y-54137503D01*
X-235700000Y-50050000D02*
X-235700000Y-64250000D01*
X-235700000Y-64250000D02*
X-221500000Y-64250000D01*
X-221500000Y-50050000D02*
X-235700000Y-50050000D01*
X-221500000Y-64250000D02*
X-221500000Y-50050000D01*
X-30912500Y-21475000D02*
X-30912500Y-35675000D01*
X-30912500Y-35675000D02*
X-16712500Y-35675000D01*
X-16712500Y-21475000D02*
X-30912500Y-21475000D01*
X-16712500Y-35675000D02*
X-16712500Y-21475000D01*
X-273800000Y-40525000D02*
X-273800000Y-54725000D01*
X-273800000Y-54725000D02*
X-259600000Y-54725000D01*
X-259600000Y-40525000D02*
X-273800000Y-40525000D01*
X-259600000Y-54725000D02*
X-259600000Y-40525000D01*
X-30912500Y-40525000D02*
X-30912500Y-54725000D01*
X-30912500Y-54725000D02*
X-16712500Y-54725000D01*
X-16712500Y-40525000D02*
X-30912500Y-40525000D01*
X-16712500Y-54725000D02*
X-16712500Y-40525000D01*
X-273800000Y-21475000D02*
X-273800000Y-35675000D01*
X-273800000Y-35675000D02*
X-259600000Y-35675000D01*
X-259600000Y-21475000D02*
X-273800000Y-21475000D01*
X-259600000Y-35675000D02*
X-259600000Y-21475000D01*
M02*
