M48
; DRILL file KiCad 10.0.0 date 2026-04-10T18:59:44
; FORMAT={-:-/ absolute / metric / decimal}
; #@! TF.CreationDate,2026-04-10T18:59:44-05:00
; #@! TF.GenerationSoftware,Kicad,Pcbnew,10.0.0
; #@! TF.FileFunction,NonPlated,1,2,NPTH
FMAT,2
METRIC
; #@! TA.AperFunction,NonPlated,NPTH,ComponentDrill
T1C1.750
; #@! TA.AperFunction,NonPlated,NPTH,ComponentDrill
T2C2.200
; #@! TA.AperFunction,NonPlated,NPTH,ComponentDrill
T3C3.050
; #@! TA.AperFunction,NonPlated,NPTH,ComponentDrill
T4C4.000
%
G90
G05
T1
X-290.83Y-28.575
X-290.83Y-47.625
X-290.83Y-66.675
X-290.83Y-85.725
X-280.67Y-28.575
X-280.67Y-47.625
X-280.67Y-66.675
X-280.67Y-85.725
X-271.78Y-28.575
X-271.78Y-47.625
X-271.78Y-66.675
X-261.62Y-28.575
X-261.62Y-47.625
X-261.62Y-66.675
X-252.73Y-23.812
X-252.73Y-42.862
X-252.73Y-61.912
X-242.57Y-23.812
X-242.57Y-42.862
X-242.57Y-61.912
X-233.68Y-19.05
X-233.68Y-38.1
X-233.68Y-57.15
X-224.155Y-85.725
X-223.52Y-19.05
X-223.52Y-38.1
X-223.52Y-57.15
X-214.63Y-23.812
X-214.63Y-42.862
X-214.63Y-61.912
X-213.995Y-85.725
X-204.47Y-23.812
X-204.47Y-42.862
X-204.47Y-61.912
X-202.957Y-86.563
X-195.58Y-26.194
X-195.58Y-45.244
X-195.58Y-64.294
X-193.143Y-89.193
X-185.42Y-26.194
X-185.42Y-45.244
X-185.42Y-64.294
X-183.311Y-95.06
X-174.512Y-100.14
X-135.781Y-98.947
X-126.982Y-93.867
X-124.142Y-26.194
X-124.142Y-45.244
X-124.142Y-64.294
X-116.423Y-89.193
X-113.983Y-26.194
X-113.983Y-45.244
X-113.983Y-64.294
X-106.609Y-86.563
X-105.093Y-23.812
X-105.093Y-42.862
X-105.093Y-61.912
X-95.567Y-85.725
X-94.932Y-23.812
X-94.932Y-42.862
X-94.932Y-61.912
X-86.042Y-19.05
X-86.042Y-38.1
X-86.042Y-57.15
X-85.407Y-85.725
X-75.882Y-19.05
X-75.882Y-38.1
X-75.882Y-57.15
X-66.992Y-23.812
X-66.992Y-42.862
X-66.992Y-61.912
X-56.832Y-23.812
X-56.832Y-42.862
X-56.832Y-61.912
X-47.942Y-28.575
X-47.942Y-47.625
X-47.942Y-66.675
X-37.782Y-28.575
X-37.782Y-47.625
X-37.782Y-66.675
X-28.892Y-28.575
X-28.892Y-47.625
X-28.892Y-66.675
X-28.892Y-85.725
X-18.732Y-28.575
X-18.732Y-47.625
X-18.732Y-66.675
X-18.732Y-85.725
T2
X-173.831Y-71.438
X-161.925Y-76.2
X-147.637Y-76.2
X-135.731Y-71.438
T3
X-289.56Y-26.035
X-289.56Y-45.085
X-289.56Y-64.135
X-289.56Y-83.185
X-283.21Y-23.495
X-283.21Y-42.545
X-283.21Y-61.595
X-283.21Y-80.645
X-270.51Y-26.035
X-270.51Y-45.085
X-270.51Y-64.135
X-264.16Y-23.495
X-264.16Y-42.545
X-264.16Y-61.595
X-251.46Y-21.272
X-251.46Y-40.322
X-251.46Y-59.372
X-245.11Y-18.732
X-245.11Y-37.782
X-245.11Y-56.832
X-232.41Y-16.51
X-232.41Y-35.56
X-232.41Y-54.61
X-226.06Y-13.97
X-226.06Y-33.02
X-226.06Y-52.07
X-222.885Y-83.185
X-216.535Y-80.645
X-213.36Y-21.272
X-213.36Y-40.322
X-213.36Y-59.372
X-207.01Y-18.732
X-207.01Y-37.782
X-207.01Y-56.832
X-201.073Y-84.439
X-194.31Y-23.654
X-194.31Y-42.704
X-194.31Y-61.754
X-194.282Y-83.629
X-187.96Y-21.114
X-187.96Y-40.164
X-187.96Y-59.214
X-180.941Y-93.495
X-174.172Y-94.471
X-135.951Y-96.112
X-131.722Y-90.737
X-122.872Y-23.654
X-122.872Y-42.704
X-122.872Y-61.754
X-116.522Y-21.114
X-116.522Y-40.164
X-116.522Y-59.214
X-115.853Y-86.411
X-110.377Y-82.314
X-103.822Y-21.272
X-103.822Y-40.322
X-103.822Y-59.372
X-97.472Y-18.732
X-97.472Y-37.782
X-97.472Y-56.832
X-94.297Y-83.185
X-87.947Y-80.645
X-84.772Y-16.51
X-84.772Y-35.56
X-84.772Y-54.61
X-78.422Y-13.97
X-78.422Y-33.02
X-78.422Y-52.07
X-65.722Y-21.272
X-65.722Y-40.322
X-65.722Y-59.372
X-59.372Y-18.732
X-59.372Y-37.782
X-59.372Y-56.832
X-46.672Y-26.035
X-46.672Y-45.085
X-46.672Y-64.135
X-40.322Y-23.495
X-40.322Y-42.545
X-40.322Y-61.595
X-27.622Y-26.035
X-27.622Y-45.085
X-27.622Y-64.135
X-27.622Y-83.185
X-21.272Y-23.495
X-21.272Y-42.545
X-21.272Y-61.595
X-21.272Y-80.645
T4
X-285.75Y-28.575
X-285.75Y-47.625
X-285.75Y-66.675
X-285.75Y-85.725
X-266.7Y-28.575
X-266.7Y-47.625
X-266.7Y-66.675
X-247.65Y-23.812
X-247.65Y-42.862
X-247.65Y-61.912
X-228.6Y-19.05
X-228.6Y-38.1
X-228.6Y-57.15
X-219.075Y-85.725
X-209.55Y-23.812
X-209.55Y-42.862
X-209.55Y-61.912
X-198.05Y-87.878
X-190.5Y-26.194
X-190.5Y-45.244
X-190.5Y-64.294
X-178.911Y-97.6
X-131.382Y-96.407
X-119.062Y-26.194
X-119.062Y-45.244
X-119.062Y-64.294
X-111.516Y-87.878
X-100.012Y-23.812
X-100.012Y-42.862
X-100.012Y-61.912
X-90.487Y-85.725
X-80.962Y-19.05
X-80.962Y-38.1
X-80.962Y-57.15
X-61.912Y-23.812
X-61.912Y-42.862
X-61.912Y-61.912
X-42.862Y-28.575
X-42.862Y-47.625
X-42.862Y-66.675
X-23.812Y-28.575
X-23.812Y-47.625
X-23.812Y-66.675
X-23.812Y-85.725
M30
