G04 #@! TF.GenerationSoftware,KiCad,Pcbnew,10.0.0*
G04 #@! TF.CreationDate,2026-04-10T19:00:32-05:00*
G04 #@! TF.ProjectId,pepuinoSplit44,70657075-696e-46f5-9370-6c697434342e,rev?*
G04 #@! TF.SameCoordinates,Original*
G04 #@! TF.FileFunction,Paste,Bot*
G04 #@! TF.FilePolarity,Positive*
%FSLAX46Y46*%
G04 Gerber Fmt 4.6, Leading zero omitted, Abs format (unit mm)*
G04 Created by KiCad (PCBNEW 10.0.0) date 2026-04-10 19:00:32*
%MOMM*%
%LPD*%
G01*
G04 APERTURE LIST*
G04 Aperture macros list*
%AMRoundRect*
0 Rectangle with rounded corners*
0 $1 Rounding radius*
0 $2 $3 $4 $5 $6 $7 $8 $9 X,Y pos of 4 corners*
0 Add a 4 corners polygon primitive as box body*
4,1,4,$2,$3,$4,$5,$6,$7,$8,$9,$2,$3,0*
0 Add four circle primitives for the rounded corners*
1,1,$1+$1,$2,$3*
1,1,$1+$1,$4,$5*
1,1,$1+$1,$6,$7*
1,1,$1+$1,$8,$9*
0 Add four rect primitives between the rounded corners*
20,1,$1+$1,$2,$3,$4,$5,0*
20,1,$1+$1,$4,$5,$6,$7,0*
20,1,$1+$1,$6,$7,$8,$9,0*
20,1,$1+$1,$8,$9,$2,$3,0*%
%AMRotRect*
0 Rectangle, with rotation*
0 The origin of the aperture is its center*
0 $1 length*
0 $2 width*
0 $3 Rotation angle, in degrees counterclockwise*
0 Add horizontal line*
21,1,$1,$2,0,0,$3*%
G04 Aperture macros list end*
%ADD10RoundRect,0.250000X-1.025000X-1.000000X1.025000X-1.000000X1.025000X1.000000X-1.025000X1.000000X0*%
%ADD11RoundRect,0.250000X-0.731255X-1.231215X1.248893X-0.700636X0.731255X1.231215X-1.248893X0.700636X0*%
%ADD12RoundRect,0.250000X-1.248893X-0.700636X0.731255X-1.231215X1.248893X0.700636X-0.731255X1.231215X0*%
%ADD13RoundRect,0.250000X-1.387676X-0.353525X0.387676X-1.378525X1.387676X0.353525X-0.387676X1.378525X0*%
%ADD14RoundRect,0.250000X-0.387676X-1.378525X1.387676X-0.353525X0.387676X1.378525X-1.387676X0.353525X0*%
%ADD15R,1.700000X0.825000*%
%ADD16RoundRect,0.225000X0.375000X-0.225000X0.375000X0.225000X-0.375000X0.225000X-0.375000X-0.225000X0*%
%ADD17RoundRect,0.250000X0.450000X-0.262500X0.450000X0.262500X-0.450000X0.262500X-0.450000X-0.262500X0*%
%ADD18RoundRect,0.250000X-0.450000X0.262500X-0.450000X-0.262500X0.450000X-0.262500X0.450000X0.262500X0*%
%ADD19RotRect,1.700000X0.825000X210.000000*%
%ADD20RotRect,1.700000X0.825000X165.000000*%
%ADD21RotRect,1.700000X0.825000X150.000000*%
%ADD22RotRect,1.700000X0.825000X195.000000*%
G04 APERTURE END LIST*
D10*
X-107097500Y-59372500D03*
X-94170500Y-56832500D03*
X-216635000Y-59372500D03*
X-203708000Y-56832500D03*
X-49947500Y-26035000D03*
X-37020500Y-23495000D03*
X-254735000Y-21272500D03*
X-241808000Y-18732500D03*
X-216635000Y-21272500D03*
X-203708000Y-18732500D03*
X-216635000Y-40322500D03*
X-203708000Y-37782500D03*
D11*
X-119016610Y-87258406D03*
X-107187487Y-81459201D03*
D10*
X-30897500Y-64135000D03*
X-17970500Y-61595000D03*
X-235685000Y-35560000D03*
X-222758000Y-33020000D03*
X-126147500Y-61753750D03*
X-113220500Y-59213750D03*
X-254735000Y-59372500D03*
X-241808000Y-56832500D03*
X-254735000Y-40322500D03*
X-241808000Y-37782500D03*
X-97572500Y-83185000D03*
X-84645500Y-80645000D03*
X-68997500Y-21272500D03*
X-56070500Y-18732500D03*
D12*
X-204236184Y-83590940D03*
X-191092261Y-84483243D03*
D10*
X-197585000Y-23653750D03*
X-184658000Y-21113750D03*
X-88047500Y-16510000D03*
X-75120500Y-13970000D03*
X-107097500Y-21272500D03*
X-94170500Y-18732500D03*
D13*
X-183777040Y-91857795D03*
X-171311930Y-96121591D03*
D10*
X-292835000Y-45085000D03*
X-279908000Y-42545000D03*
X-126147500Y-23653750D03*
X-113220500Y-21113750D03*
X-226160000Y-83185000D03*
X-213233000Y-80645000D03*
X-273785000Y-64135000D03*
X-260858000Y-61595000D03*
X-30897500Y-83185000D03*
X-17970500Y-80645000D03*
X-197585000Y-61753750D03*
X-184658000Y-59213750D03*
X-49947500Y-64135000D03*
X-37020500Y-61595000D03*
X-197585000Y-42703750D03*
X-184658000Y-40163750D03*
X-292835000Y-83185000D03*
X-279908000Y-80645000D03*
X-292835000Y-26035000D03*
X-279908000Y-23495000D03*
X-49947500Y-45085000D03*
X-37020500Y-42545000D03*
D14*
X-138787370Y-97749705D03*
X-128862260Y-89086501D03*
D10*
X-292835000Y-64135000D03*
X-279908000Y-61595000D03*
X-68997500Y-59372500D03*
X-56070500Y-56832500D03*
X-126147500Y-42703750D03*
X-113220500Y-40163750D03*
X-235685000Y-16510000D03*
X-222758000Y-13970000D03*
X-107097500Y-40322500D03*
X-94170500Y-37782500D03*
X-88047500Y-35560000D03*
X-75120500Y-33020000D03*
X-88047500Y-54610000D03*
X-75120500Y-52070000D03*
X-68997500Y-40322500D03*
X-56070500Y-37782500D03*
X-235685000Y-54610000D03*
X-222758000Y-52070000D03*
X-30897500Y-26035000D03*
X-17970500Y-23495000D03*
X-273785000Y-45085000D03*
X-260858000Y-42545000D03*
X-30897500Y-45085000D03*
X-17970500Y-42545000D03*
X-273785000Y-26035000D03*
X-260858000Y-23495000D03*
D15*
X-93287500Y-94550000D03*
X-93287500Y-95950000D03*
X-87687500Y-95950000D03*
X-87687500Y-94550000D03*
X-64712500Y-32637500D03*
X-64712500Y-34037500D03*
X-59112500Y-34037500D03*
X-59112500Y-32637500D03*
D16*
X-238025000Y-65212500D03*
X-238025000Y-61912500D03*
X-90387500Y-46162500D03*
X-90387500Y-42862500D03*
X-238125000Y-46162500D03*
X-238125000Y-42862500D03*
D15*
X-102812500Y-70737500D03*
X-102812500Y-72137500D03*
X-97212500Y-72137500D03*
X-97212500Y-70737500D03*
X-288550000Y-56450000D03*
X-288550000Y-57850000D03*
X-282950000Y-57850000D03*
X-282950000Y-56450000D03*
D16*
X-71337500Y-46162500D03*
X-71337500Y-42862500D03*
D15*
X-288550000Y-75500000D03*
X-288550000Y-76900000D03*
X-282950000Y-76900000D03*
X-282950000Y-75500000D03*
X-26612500Y-56450000D03*
X-26612500Y-57850000D03*
X-21012500Y-57850000D03*
X-21012500Y-56450000D03*
X-26612500Y-94550000D03*
X-26612500Y-95950000D03*
X-21012500Y-95950000D03*
X-21012500Y-94550000D03*
D17*
X-147637500Y-31181250D03*
X-147637500Y-29356250D03*
D15*
X-121862500Y-54068750D03*
X-121862500Y-55468750D03*
X-116262500Y-55468750D03*
X-116262500Y-54068750D03*
D16*
X-276225232Y-33337528D03*
X-276225232Y-30037528D03*
X-276225000Y-91406250D03*
X-276225000Y-88106250D03*
D15*
X-250450000Y-51687500D03*
X-250450000Y-53087500D03*
X-244850000Y-53087500D03*
X-244850000Y-51687500D03*
D16*
X-200025000Y-29493750D03*
X-200025000Y-26193750D03*
D15*
X-288550000Y-94550000D03*
X-288550000Y-95950000D03*
X-282950000Y-95950000D03*
X-282950000Y-94550000D03*
X-45662500Y-75500000D03*
X-45662500Y-76900000D03*
X-40062500Y-76900000D03*
X-40062500Y-75500000D03*
D16*
X-109437500Y-29493750D03*
X-109437500Y-26193750D03*
X-90387500Y-65212500D03*
X-90387500Y-61912500D03*
D15*
X-231400000Y-46925000D03*
X-231400000Y-48325000D03*
X-225800000Y-48325000D03*
X-225800000Y-46925000D03*
D16*
X-238125000Y-27112500D03*
X-238125000Y-23812500D03*
D15*
X-231400000Y-27875000D03*
X-231400000Y-29275000D03*
X-225800000Y-29275000D03*
X-225800000Y-27875000D03*
D18*
X-163115768Y-29331272D03*
X-163115768Y-31156272D03*
D16*
X-257175000Y-50925000D03*
X-257175000Y-47625000D03*
D15*
X-231400000Y-65975000D03*
X-231400000Y-67375000D03*
X-225800000Y-67375000D03*
X-225800000Y-65975000D03*
D16*
X-14187500Y-53306250D03*
X-14187500Y-50006250D03*
X-219075000Y-46162500D03*
X-219075000Y-42862500D03*
X-207168750Y-89025000D03*
X-207168750Y-85725000D03*
D15*
X-269500000Y-56450000D03*
X-269500000Y-57850000D03*
X-263900000Y-57850000D03*
X-263900000Y-56450000D03*
X-193300000Y-54068750D03*
X-193300000Y-55468750D03*
X-187700000Y-55468750D03*
X-187700000Y-54068750D03*
X-212350000Y-70737500D03*
X-212350000Y-72137500D03*
X-206750000Y-72137500D03*
X-206750000Y-70737500D03*
D16*
X-218975000Y-65212500D03*
X-218975000Y-61912500D03*
X-14187500Y-34256250D03*
X-14187500Y-30956250D03*
D15*
X-221875000Y-94550000D03*
X-221875000Y-95950000D03*
X-216275000Y-95950000D03*
X-216275000Y-94550000D03*
X-45662500Y-37400000D03*
X-45662500Y-38800000D03*
X-40062500Y-38800000D03*
X-40062500Y-37400000D03*
D16*
X-180975000Y-50925000D03*
X-180975000Y-47625000D03*
D15*
X-121862500Y-73118750D03*
X-121862500Y-74518750D03*
X-116262500Y-74518750D03*
X-116262500Y-73118750D03*
D16*
X-14187500Y-72356250D03*
X-14187500Y-69056250D03*
D15*
X-45662500Y-56450000D03*
X-45662500Y-57850000D03*
X-40062500Y-57850000D03*
X-40062500Y-56450000D03*
D17*
X-170259518Y-31181272D03*
X-170259518Y-29356272D03*
D16*
X-109437500Y-67593750D03*
X-109437500Y-64293750D03*
D15*
X-288550000Y-37400000D03*
X-288550000Y-38800000D03*
X-282950000Y-38800000D03*
X-282950000Y-37400000D03*
D16*
X-102393750Y-89025000D03*
X-102393750Y-85725000D03*
X-199925000Y-67593750D03*
X-199925000Y-64293750D03*
X-100012500Y-89025000D03*
X-100012500Y-85725000D03*
X-228600000Y-89025000D03*
X-228600000Y-85725000D03*
X-71337500Y-65212500D03*
X-71337500Y-61912500D03*
X-90387500Y-27112500D03*
X-90387500Y-23812500D03*
X-80962500Y-89025000D03*
X-80962500Y-85725000D03*
X-257175000Y-31875000D03*
X-257175000Y-28575000D03*
X-180975000Y-31875000D03*
X-180975000Y-28575000D03*
D15*
X-212350000Y-32637500D03*
X-212350000Y-34037500D03*
X-206750000Y-34037500D03*
X-206750000Y-32637500D03*
X-250450000Y-32637500D03*
X-250450000Y-34037500D03*
X-244850000Y-34037500D03*
X-244850000Y-32637500D03*
D16*
X-200025000Y-48543750D03*
X-200025000Y-45243750D03*
X-209550000Y-89025000D03*
X-209550000Y-85725000D03*
X-52287500Y-31875000D03*
X-52287500Y-28575000D03*
X-52287500Y-69975000D03*
X-52287500Y-66675000D03*
D15*
X-83762500Y-46925000D03*
X-83762500Y-48325000D03*
X-78162500Y-48325000D03*
X-78162500Y-46925000D03*
X-121862500Y-35018750D03*
X-121862500Y-36418750D03*
X-116262500Y-36418750D03*
X-116262500Y-35018750D03*
D19*
X-129393952Y-105449584D03*
X-128693951Y-106662018D03*
X-123844208Y-103862020D03*
X-124544209Y-102649586D03*
D15*
X-64712500Y-51687500D03*
X-64712500Y-53087500D03*
X-59112500Y-53087500D03*
X-59112500Y-51687500D03*
D16*
X-14287500Y-91406250D03*
X-14287500Y-88106250D03*
D18*
X-140493750Y-29331250D03*
X-140493750Y-31156250D03*
D15*
X-83762500Y-27875000D03*
X-83762500Y-29275000D03*
X-78162500Y-29275000D03*
X-78162500Y-27875000D03*
X-102812500Y-32637500D03*
X-102812500Y-34037500D03*
X-97212500Y-34037500D03*
X-97212500Y-32637500D03*
X-193300000Y-35018750D03*
X-193300000Y-36418750D03*
X-187700000Y-36418750D03*
X-187700000Y-35018750D03*
X-269500000Y-75500000D03*
X-269500000Y-76900000D03*
X-263900000Y-76900000D03*
X-263900000Y-75500000D03*
X-64712500Y-70737500D03*
X-64712500Y-72137500D03*
X-59112500Y-72137500D03*
X-59112500Y-70737500D03*
D16*
X-109437500Y-48543750D03*
X-109437500Y-45243750D03*
X-276125000Y-72356250D03*
X-276125000Y-69056250D03*
X-33237500Y-72356250D03*
X-33237500Y-69056250D03*
X-52287500Y-50925000D03*
X-52287500Y-47625000D03*
X-276225000Y-53306250D03*
X-276225000Y-50006250D03*
D15*
X-250450000Y-70737500D03*
X-250450000Y-72137500D03*
X-244850000Y-72137500D03*
X-244850000Y-70737500D03*
D16*
X-33237500Y-34256250D03*
X-33237500Y-30956250D03*
X-71337500Y-27112500D03*
X-71337500Y-23812500D03*
X-180875000Y-69975000D03*
X-180875000Y-66675000D03*
D20*
X-203038669Y-95677727D03*
X-203401016Y-97030027D03*
X-197991835Y-98479411D03*
X-197629488Y-97127111D03*
D16*
X-219075000Y-27112500D03*
X-219075000Y-23812500D03*
D15*
X-83762500Y-65975000D03*
X-83762500Y-67375000D03*
X-78162500Y-67375000D03*
X-78162500Y-65975000D03*
X-269500000Y-37400000D03*
X-269500000Y-38800000D03*
X-263900000Y-38800000D03*
X-263900000Y-37400000D03*
X-212350000Y-51687500D03*
X-212350000Y-53087500D03*
X-206750000Y-53087500D03*
X-206750000Y-51687500D03*
D16*
X-33237500Y-53306250D03*
X-33237500Y-50006250D03*
D15*
X-26612500Y-37400000D03*
X-26612500Y-38800000D03*
X-21012500Y-38800000D03*
X-21012500Y-37400000D03*
D21*
X-185748619Y-103842674D03*
X-186448620Y-105055113D03*
X-181598881Y-107855110D03*
X-180898880Y-106642671D03*
D15*
X-102812500Y-51687500D03*
X-102812500Y-53087500D03*
X-97212500Y-53087500D03*
X-97212500Y-51687500D03*
D16*
X-257075000Y-69975000D03*
X-257075000Y-66675000D03*
D22*
X-111936140Y-97127114D03*
X-111573793Y-98479410D03*
X-106164608Y-97030024D03*
X-106526955Y-95677728D03*
D15*
X-26612500Y-75500000D03*
X-26612500Y-76900000D03*
X-21012500Y-76900000D03*
X-21012500Y-75500000D03*
X-193300000Y-73118750D03*
X-193300000Y-74518750D03*
X-187700000Y-74518750D03*
X-187700000Y-73118750D03*
M02*
