M48
; DRILL file KiCad 10.0.0 date 2026-04-10T18:59:44
; FORMAT={-:-/ absolute / metric / decimal}
; #@! TF.CreationDate,2026-04-10T18:59:44-05:00
; #@! TF.GenerationSoftware,Kicad,Pcbnew,10.0.0
; #@! TF.FileFunction,Plated,1,2,PTH
FMAT,2
METRIC
; #@! TA.AperFunction,Plated,PTH,ViaDrill
T1C0.300
; #@! TA.AperFunction,Plated,PTH,ComponentDrill
T2C0.500
; #@! TA.AperFunction,Plated,PTH,ComponentDrill
T3C0.700
; #@! TA.AperFunction,Plated,PTH,ComponentDrill
T4C1.000
; #@! TA.AperFunction,Plated,PTH,ComponentDrill
T5C1.300
%
G90
G05
T1
X-292.835Y-26.194
X-292.835Y-45.085
X-292.835Y-64.135
X-292.835Y-83.185
X-288.55Y-37.4
X-288.55Y-38.8
X-288.55Y-56.45
X-288.55Y-75.5
X-288.55Y-76.9
X-288.55Y-94.55
X-282.95Y-38.8
X-282.95Y-56.45
X-282.95Y-57.85
X-282.95Y-76.9
X-282.95Y-94.55
X-282.95Y-95.95
X-273.785Y-26.035
X-273.785Y-45.085
X-273.785Y-64.135
X-269.5Y-37.4
X-269.5Y-56.45
X-269.5Y-75.5
X-263.9Y-38.8
X-263.9Y-57.85
X-263.9Y-76.9
X-254.735Y-21.272
X-254.735Y-40.322
X-254.735Y-59.372
X-250.45Y-32.637
X-250.45Y-51.688
X-250.45Y-70.737
X-244.85Y-34.038
X-244.85Y-53.087
X-244.85Y-72.138
X-235.685Y-16.51
X-235.685Y-35.56
X-235.685Y-54.61
X-231.4Y-27.875
X-231.4Y-46.925
X-231.4Y-65.975
X-226.16Y-83.185
X-225.8Y-29.275
X-225.8Y-48.325
X-225.8Y-67.375
X-221.875Y-94.55
X-216.635Y-21.272
X-216.635Y-40.322
X-216.635Y-59.372
X-216.275Y-95.95
X-212.35Y-32.637
X-212.35Y-51.688
X-212.35Y-70.737
X-206.75Y-34.038
X-206.75Y-53.087
X-206.75Y-72.138
X-204.236Y-83.591
X-203.039Y-95.678
X-197.992Y-98.486
X-197.585Y-23.654
X-197.585Y-42.704
X-197.585Y-61.754
X-193.3Y-35.019
X-193.3Y-54.069
X-193.3Y-55.469
X-193.3Y-73.119
X-187.7Y-36.419
X-187.7Y-55.469
X-187.7Y-73.119
X-187.7Y-74.519
X-185.749Y-103.843
X-183.952Y-71.438
X-183.777Y-91.858
X-181.599Y-107.855
X-170.26Y-26.194
X-163.116Y-57.15
X-163.116Y-29.331
X-157.163Y-55.364
X-147.637Y-26.194
X-141.684Y-52.388
X-140.494Y-29.331
X-138.787Y-97.75
X-126.147Y-23.654
X-126.147Y-42.704
X-126.147Y-61.754
X-123.844Y-103.862
X-121.862Y-35.019
X-121.862Y-54.069
X-121.862Y-55.469
X-121.862Y-73.119
X-119.017Y-87.258
X-116.262Y-36.419
X-116.262Y-55.469
X-116.262Y-73.119
X-116.262Y-74.519
X-107.097Y-21.272
X-107.097Y-40.322
X-107.097Y-59.372
X-102.812Y-32.637
X-102.812Y-51.688
X-102.812Y-70.737
X-97.212Y-34.038
X-97.212Y-53.087
X-97.212Y-72.138
X-93.287Y-94.55
X-91.678Y-78.581
X-88.047Y-16.51
X-88.047Y-35.56
X-88.047Y-54.61
X-87.688Y-95.95
X-83.763Y-27.875
X-83.763Y-46.925
X-83.763Y-65.975
X-78.162Y-29.275
X-78.162Y-48.325
X-78.162Y-67.375
X-70.247Y-54.769
X-68.998Y-21.272
X-68.998Y-40.322
X-68.998Y-59.372
X-64.712Y-32.637
X-64.712Y-51.688
X-64.712Y-70.737
X-59.112Y-34.038
X-59.112Y-53.087
X-59.112Y-72.138
X-49.947Y-26.035
X-49.947Y-45.085
X-49.947Y-64.135
X-45.663Y-37.4
X-45.663Y-56.45
X-45.663Y-75.5
X-40.062Y-38.8
X-40.062Y-57.85
X-40.062Y-76.9
X-30.897Y-26.035
X-30.897Y-45.085
X-30.897Y-64.135
X-30.897Y-83.185
X-26.612Y-37.4
X-26.612Y-38.8
X-26.612Y-56.45
X-26.612Y-75.5
X-26.612Y-76.9
X-26.612Y-94.55
X-21.012Y-38.8
X-21.012Y-56.45
X-21.012Y-57.85
X-21.012Y-76.9
X-21.012Y-94.55
X-21.012Y-95.95
T3
X-171.768Y-41.672
X-171.768Y-44.053
X-166.688Y-41.672
X-166.688Y-44.053
X-148.828Y-41.672
X-148.828Y-44.053
X-143.748Y-41.672
X-143.748Y-44.053
T4
X-173.831Y-18.574
X-173.831Y-21.114
X-173.831Y-23.654
X-173.831Y-26.194
X-173.831Y-28.734
X-173.831Y-31.274
X-173.831Y-33.814
X-173.831Y-36.354
X-173.831Y-38.894
X-173.831Y-41.434
X-173.831Y-43.974
X-173.831Y-46.514
X-173.831Y-49.054
X-170.758Y-45.96
X-170.033Y-54.769
X-168.218Y-45.96
X-167.493Y-54.769
X-165.678Y-45.96
X-164.953Y-54.769
X-162.412Y-54.769
X-158.591Y-18.574
X-158.591Y-21.114
X-158.591Y-23.654
X-158.591Y-26.194
X-158.591Y-28.734
X-158.591Y-31.274
X-158.591Y-33.814
X-158.591Y-36.354
X-158.591Y-38.894
X-158.591Y-41.434
X-158.591Y-43.974
X-158.591Y-46.514
X-158.591Y-49.054
X-150.971Y-18.574
X-150.971Y-21.114
X-150.971Y-23.654
X-150.971Y-26.194
X-150.971Y-28.734
X-150.971Y-31.274
X-150.971Y-33.814
X-150.971Y-36.354
X-150.971Y-38.894
X-150.971Y-41.434
X-150.971Y-43.974
X-150.971Y-46.514
X-150.971Y-49.054
X-147.898Y-45.96
X-147.162Y-54.769
X-145.358Y-45.96
X-144.623Y-54.769
X-142.818Y-45.96
X-142.083Y-54.769
X-139.542Y-54.769
X-135.731Y-18.574
X-135.731Y-21.114
X-135.731Y-23.654
X-135.731Y-26.194
X-135.731Y-28.734
X-135.731Y-31.274
X-135.731Y-33.814
X-135.731Y-36.354
X-135.731Y-38.894
X-135.731Y-41.434
X-135.731Y-43.974
X-135.731Y-46.514
X-135.731Y-49.054
T5
X-158.353Y-52.387
X-158.353Y-58.887
X-151.209Y-52.387
X-151.209Y-58.887
T2
G00X-169.037Y-18.455
M15
G01X-169.338Y-18.455
M16
G05
G00X-166.537Y-18.455
M15
G01X-166.838Y-18.455
M16
G05
G00X-164.037Y-18.455
M15
G01X-164.338Y-18.455
M16
G05
G00X-145.225Y-18.455
M15
G01X-145.525Y-18.455
M16
G05
G00X-142.725Y-18.455
M15
G01X-143.025Y-18.455
M16
G05
G00X-140.225Y-18.455
M15
G01X-140.525Y-18.455
M16
G05
M30
